<svg width="586" height="370" viewBox="0 0 586 370" fill="none" xmlns="http://www.w3.org/2000/svg">
<path d="M409.377 67.617H409.357C408.156 67.587 406.965 67.5549 405.785 67.5209C405.677 67.5213 405.57 67.4997 405.471 67.4575C405.372 67.4153 405.282 67.3533 405.207 67.2753C405.132 67.1972 405.073 67.1046 405.034 67.003C404.994 66.9014 404.976 66.7928 404.979 66.6838C404.982 66.5748 405.007 66.4675 405.051 66.3683C405.096 66.2692 405.16 66.1801 405.24 66.1065C405.319 66.0329 405.412 65.9762 405.514 65.9399C405.615 65.9035 405.723 65.8882 405.831 65.8948C407.009 65.9278 408.198 65.9593 409.397 65.9894C409.61 65.992 409.813 66.0802 409.962 66.2346C410.111 66.3891 410.193 66.5971 410.19 66.8129C410.188 67.0288 410.101 67.2348 409.948 67.3855C409.796 67.5363 409.591 67.6196 409.377 67.617ZM400.278 67.3452H400.25C399.048 67.3032 397.858 67.2596 396.679 67.2146C396.466 67.2062 396.265 67.1125 396.121 66.9539C395.976 66.7954 395.899 66.5851 395.907 66.3692C395.915 66.1534 396.008 65.9497 396.165 65.803C396.321 65.6563 396.529 65.5786 396.742 65.587C397.919 65.634 399.104 65.678 400.299 65.7191C400.404 65.721 400.509 65.7439 400.605 65.7865C400.702 65.8291 400.79 65.8906 400.863 65.9675C400.936 66.0444 400.994 66.1352 401.032 66.2347C401.071 66.3341 401.09 66.4403 401.088 66.5472C401.086 66.654 401.064 66.7595 401.022 66.8575C400.98 66.9555 400.919 67.0442 400.843 67.1185C400.767 67.1927 400.677 67.2511 400.579 67.2902C400.481 67.3294 400.376 67.3486 400.271 67.3467L400.278 67.3452ZM391.179 66.9804H391.143C389.94 66.9263 388.75 66.8698 387.573 66.8107C387.36 66.7999 387.16 66.704 387.017 66.5439C386.874 66.3838 386.8 66.1727 386.81 65.9571C386.821 65.7414 386.916 65.5389 387.074 65.394C387.232 65.2492 387.44 65.1738 387.653 65.1845C388.829 65.2436 390.014 65.3002 391.21 65.3542C391.316 65.3566 391.42 65.38 391.516 65.4231C391.613 65.4661 391.7 65.5281 391.773 65.6053C391.846 65.6826 391.903 65.7736 391.941 65.8733C391.98 65.9729 391.998 66.0792 391.996 66.1861C391.993 66.2929 391.97 66.3983 391.928 66.4961C391.885 66.594 391.824 66.6823 391.748 66.7562C391.672 66.8301 391.582 66.8881 391.483 66.9268C391.385 66.9655 391.28 66.9842 391.175 66.9819L391.179 66.9804ZM382.09 66.5134H382.044C380.841 66.4443 379.651 66.3732 378.476 66.3002C378.264 66.287 378.065 66.1888 377.924 66.0272C377.783 65.8656 377.711 65.6537 377.724 65.4383C377.736 65.2229 377.833 65.0215 377.993 64.8784C378.153 64.7354 378.362 64.6624 378.574 64.6755C379.748 64.7496 380.934 64.8207 382.132 64.8888C382.34 64.9015 382.535 64.9958 382.676 65.1516C382.816 65.3074 382.892 65.5125 382.886 65.7236C382.88 65.9347 382.794 66.1353 382.645 66.283C382.496 66.4306 382.296 66.5138 382.087 66.5149L382.09 66.5134ZM373.013 65.9383H372.957C371.755 65.8542 370.569 65.7676 369.399 65.6786C369.294 65.6706 369.192 65.6417 369.097 65.5935C369.003 65.5453 368.919 65.4789 368.851 65.3978C368.782 65.3168 368.729 65.2229 368.696 65.1214C368.663 65.0198 368.65 64.9127 368.658 64.8062C368.674 64.5909 368.774 64.3909 368.935 64.2501C369.015 64.1804 369.108 64.1273 369.208 64.0939C369.309 64.0605 369.414 64.0474 369.52 64.0554C370.69 64.1435 371.876 64.2296 373.077 64.3137C373.286 64.3264 373.482 64.4214 373.623 64.5783C373.764 64.7353 373.839 64.9418 373.831 65.1538C373.824 65.3659 373.736 65.5667 373.584 65.7135C373.433 65.8603 373.231 65.9415 373.022 65.9398L373.013 65.9383ZM363.942 65.2401H363.874C362.67 65.14 361.484 65.0359 360.317 64.9278C360.104 64.9079 359.908 64.8034 359.772 64.6372C359.636 64.4711 359.571 64.2569 359.59 64.0419C359.61 63.8269 359.713 63.6285 359.877 63.4906C360.041 63.3526 360.252 63.2862 360.465 63.3062C361.633 63.4133 362.818 63.5169 364.022 63.617C364.228 63.6349 364.419 63.7327 364.556 63.8898C364.693 64.047 364.764 64.2516 364.756 64.4609C364.747 64.6702 364.66 64.8681 364.511 65.0135C364.362 65.159 364.164 65.2407 363.957 65.2416L363.942 65.2401ZM354.878 64.4038H354.798C353.595 64.2816 352.409 64.1585 351.241 64.0344C351.029 64.0117 350.835 63.9047 350.701 63.7368C350.567 63.569 350.504 63.3541 350.527 63.1395C350.549 62.9248 350.655 62.728 350.82 62.5923C350.986 62.4566 351.198 62.3931 351.41 62.4158C352.573 62.5399 353.755 62.6625 354.955 62.7836C355.163 62.8015 355.355 62.9002 355.492 63.0588C355.629 63.2175 355.7 63.4238 355.69 63.6343C355.679 63.8448 355.589 64.0431 355.437 64.1875C355.286 64.3319 355.085 64.411 354.877 64.4083L354.878 64.4038ZM345.837 63.4128C345.806 63.4128 345.775 63.4128 345.743 63.4128C344.558 63.2716 343.365 63.126 342.186 62.9773C341.975 62.9504 341.782 62.8396 341.652 62.6691C341.521 62.4985 341.462 62.2824 341.489 62.0682C341.515 61.8539 341.625 61.6591 341.793 61.5266C341.961 61.3941 342.175 61.3348 342.386 61.3617C343.553 61.5118 344.743 61.662 345.923 61.7956C346.128 61.8175 346.318 61.9187 346.451 62.0782C346.585 62.2378 346.653 62.4434 346.641 62.6524C346.629 62.8613 346.538 63.0575 346.387 63.2003C346.236 63.343 346.036 63.4212 345.829 63.4188L345.837 63.4128ZM336.81 62.2461C336.774 62.249 336.737 62.249 336.701 62.2461C335.515 62.0794 334.319 61.9082 333.16 61.7356C332.949 61.7041 332.759 61.5891 332.632 61.4157C332.504 61.2424 332.45 61.025 332.481 60.8114C332.513 60.5977 332.626 60.4053 332.797 60.2765C332.968 60.1477 333.183 60.093 333.394 60.1244C334.547 60.2971 335.734 60.4683 336.92 60.6335C337.122 60.6614 337.306 60.766 337.434 60.926C337.563 61.0861 337.626 61.2896 337.613 61.4955C337.599 61.7013 337.508 61.8941 337.359 62.0349C337.21 62.1756 337.014 62.2538 336.81 62.2536V62.2461ZM327.813 60.8782C327.77 60.8784 327.727 60.8749 327.684 60.8677C326.499 60.674 325.313 60.4713 324.157 60.2671C324.052 60.2501 323.951 60.2121 323.86 60.1554C323.77 60.0987 323.692 60.0243 323.63 59.9366C323.568 59.849 323.524 59.7497 323.5 59.6446C323.476 59.5395 323.474 59.4307 323.492 59.3245C323.51 59.2183 323.549 59.1168 323.606 59.026C323.663 58.9351 323.737 58.8566 323.825 58.7951C323.912 58.7336 324.011 58.6903 324.115 58.6677C324.219 58.6451 324.326 58.6437 324.431 58.6635C325.583 58.8662 326.764 59.0674 327.942 59.2641C328.142 59.2968 328.321 59.4044 328.446 59.5654C328.57 59.7264 328.631 59.929 328.614 60.1329C328.598 60.3368 328.507 60.527 328.358 60.6657C328.21 60.8043 328.015 60.8813 327.813 60.8812V60.8782ZM318.855 59.2731C318.805 59.2722 318.756 59.2672 318.707 59.2581C317.521 59.0283 316.347 58.7896 315.198 58.5509C315.095 58.5294 314.997 58.4875 314.909 58.4275C314.822 58.3676 314.747 58.2908 314.689 58.2016C314.631 58.1124 314.591 58.0124 314.571 57.9075C314.551 57.8025 314.552 57.6946 314.573 57.5899C314.594 57.4852 314.635 57.3857 314.694 57.2972C314.754 57.2087 314.829 57.1329 314.917 57.074C315.006 57.0152 315.104 56.9745 315.208 56.9543C315.311 56.9341 315.418 56.9348 315.521 56.9562C316.664 57.195 317.838 57.4307 319.01 57.659C319.208 57.6958 319.384 57.8061 319.505 57.9682C319.626 58.1302 319.683 58.3323 319.665 58.5346C319.646 58.737 319.553 58.925 319.405 59.0616C319.256 59.1983 319.063 59.2737 318.862 59.2731H318.855ZM309.962 57.3767C309.901 57.3771 309.84 57.37 309.781 57.3557C308.595 57.0809 307.429 56.7986 306.298 56.5148C306.194 56.4903 306.096 56.4452 306.01 56.3821C305.923 56.3189 305.85 56.2391 305.795 56.1471C305.739 56.0551 305.702 55.9529 305.686 55.8463C305.67 55.7397 305.675 55.6309 305.7 55.5263C305.726 55.4216 305.772 55.3232 305.835 55.2366C305.899 55.1501 305.979 55.0772 306.07 55.0222C306.162 54.9672 306.263 54.9312 306.369 54.9163C306.474 54.9013 306.581 54.9078 306.684 54.9352C307.805 55.216 308.969 55.4968 310.141 55.7701C310.333 55.8151 310.502 55.9301 310.616 56.0932C310.729 56.2562 310.78 56.4559 310.758 56.6543C310.736 56.8527 310.642 57.0359 310.495 57.1691C310.349 57.3023 310.159 57.3762 309.962 57.3767ZM301.138 55.1109C301.064 55.1105 300.991 55.1004 300.92 55.0809C299.745 54.7475 298.587 54.4052 297.48 54.0628C297.276 53.9999 297.105 53.8575 297.005 53.667C296.905 53.4765 296.883 53.2535 296.946 53.0471C297.008 52.8406 297.148 52.6675 297.336 52.566C297.524 52.4645 297.744 52.4428 297.948 52.5058C299.045 52.8436 300.189 53.1829 301.357 53.5133C301.544 53.5662 301.706 53.6858 301.813 53.8501C301.919 54.0144 301.963 54.2122 301.937 54.4069C301.911 54.6017 301.816 54.7803 301.67 54.9097C301.524 55.0391 301.337 55.1106 301.142 55.1109H301.138ZM292.464 52.3511C292.373 52.351 292.282 52.3353 292.196 52.3046C291.026 51.8826 289.894 51.4532 288.831 51.0238C288.73 50.9865 288.638 50.9292 288.559 50.8551C288.48 50.7809 288.417 50.6916 288.373 50.5922C288.329 50.4929 288.305 50.3856 288.303 50.2768C288.3 50.1679 288.32 50.0597 288.359 49.9585C288.399 49.8573 288.458 49.7652 288.534 49.6877C288.609 49.6101 288.699 49.5487 288.798 49.5071C288.898 49.4654 289.004 49.4443 289.112 49.4451C289.219 49.446 289.325 49.4686 289.424 49.5117C290.462 49.9322 291.581 50.3556 292.732 50.77C292.911 50.834 293.062 50.9601 293.158 51.1259C293.254 51.2917 293.289 51.4865 293.256 51.6759C293.224 51.8652 293.127 52.0369 292.981 52.1605C292.836 52.284 292.652 52.3516 292.463 52.3511H292.464ZM284.085 48.8045C283.96 48.805 283.836 48.7751 283.724 48.7174C281.487 47.5673 280.565 46.848 280.528 46.818C280.362 46.6849 280.254 46.4906 280.229 46.2776C280.204 46.0646 280.262 45.85 280.392 45.6806C280.522 45.5111 280.713 45.4005 280.923 45.3728C281.133 45.3451 281.345 45.4026 281.514 45.5327C281.53 45.5462 282.387 46.2054 284.45 47.2655C284.611 47.3484 284.739 47.4838 284.815 47.6498C284.89 47.8159 284.909 48.0028 284.867 48.1806C284.824 48.3584 284.724 48.5166 284.583 48.6298C284.441 48.743 284.266 48.8045 284.085 48.8045Z" fill="#112F4A"/>
<path d="M235.038 1.18112C234.657 2.67275 234.443 4.20277 234.4 5.74254C234.418 6.34096 234.412 6.93937 234.459 7.53779C234.755 11.3272 236.128 14.7367 238.148 17.9008C240.625 21.7801 243.825 24.9801 247.399 27.8121C248.002 28.2908 248.287 28.7576 248.365 29.5714C248.79 34.263 250.827 38.2484 253.798 41.803C253.981 42.0429 254.236 42.2163 254.524 42.2973C254.812 42.3782 255.119 42.3623 255.398 42.2518C255.682 42.1618 255.931 41.9831 256.109 41.7412C256.287 41.4993 256.384 41.2068 256.388 40.9054C256.432 40.1469 256.462 39.3854 256.536 38.6299C256.684 37.1503 256.879 35.6812 257.302 34.2525C257.367 34.0341 257.406 33.7902 257.696 33.7229C258.987 33.401 260.204 32.8289 261.28 32.0384C261.54 31.8559 261.706 31.8888 261.916 32.1222C262.485 32.7475 263.074 33.3579 263.668 33.9623C264.64 34.9542 265.878 34.9183 266.941 33.8815C267.976 32.8762 268.03 31.624 267.089 30.6127C266.523 30.0053 265.958 29.3979 265.369 28.8174C265.112 28.5646 265.099 28.3791 265.318 28.0903C266.062 27.1353 266.626 26.0494 266.981 24.8873C267.103 24.4699 267.297 24.2725 267.72 24.1767C269.807 23.7291 271.936 23.5219 274.068 23.5588C274.793 23.5588 275.311 23.2282 275.56 22.6178C275.808 22.0075 275.665 21.3941 275.116 20.9004C271.556 17.6615 267.524 15.4234 262.673 14.9372C262.55 14.9291 262.431 14.8921 262.324 14.8293C262.218 14.7665 262.127 14.6795 262.059 14.5751C261.411 13.6775 260.766 12.7919 260.078 11.9346C256.994 8.09132 253.514 4.70878 249.128 2.3974C244.914 0.17878 240.49 -0.575223 235.811 0.452555C235.387 0.545309 235.153 0.709872 235.038 1.18112ZM255.654 33.708C255.081 35.6633 254.876 37.6769 254.716 39.6921C254.693 39.8252 254.663 39.9571 254.627 40.0871C252.236 37.0351 250.688 33.7588 250.111 29.8886C250.92 30.4272 251.619 30.9134 252.341 31.3652C253.344 31.9935 254.362 32.5979 255.377 33.2068C255.569 33.328 255.74 33.4177 255.654 33.708ZM257.039 32.1087C256.488 31.857 255.958 31.5614 255.454 31.2245C255.306 31.1363 255.454 31.0375 255.54 30.9897C256.628 30.4082 257.675 29.7514 258.674 29.0239C258.697 29.003 258.724 28.9875 258.754 28.9783C258.784 28.9691 258.815 28.9665 258.846 28.9706C258.876 28.9747 258.906 28.9855 258.932 29.0022C258.958 29.0189 258.981 29.041 258.998 29.0673C259.405 29.4981 259.814 29.927 260.223 30.3538C260.343 30.4795 260.383 30.5887 260.211 30.7024C259.251 31.3412 258.239 31.8618 257.039 32.1087ZM265.714 31.6689C265.849 31.8095 266.019 31.9337 266.01 32.1715C265.963 32.5321 265.698 32.7281 265.418 32.8821C265.138 33.0362 264.954 32.8044 264.78 32.6218C262.754 30.4975 260.729 28.3726 258.705 26.2472C257.847 25.3496 256.989 24.452 256.133 23.5544C255.689 23.0876 255.701 22.9275 256.092 22.5191C256.482 22.1107 256.749 22.2498 257.076 22.5954C259.949 25.6224 262.827 28.6469 265.708 31.6689H265.714ZM265.427 23.5903C265.467 23.6708 265.491 23.7589 265.496 23.849C265.501 23.939 265.487 24.0292 265.457 24.1139C265.149 25.1186 264.682 26.0663 264.075 26.9204C263.927 27.1344 263.802 27.1942 263.631 26.9683L263.592 26.9294C263.19 26.4941 262.567 26.1126 262.444 25.6069C262.321 25.1013 263.027 24.6913 263.318 24.2036C263.734 23.508 264.18 22.8318 264.65 22.0778C264.934 22.6343 265.177 23.1175 265.427 23.5948V23.5903ZM273.402 21.6634C273.302 21.8773 273.138 21.801 273.013 21.813C271.065 21.9222 269.116 22.0254 267.216 22.5221C266.991 22.5804 266.85 22.5505 266.738 22.3246C265.828 20.5174 264.814 18.7715 263.743 17.0556C263.718 16.9822 263.702 16.9058 263.696 16.8282C267.407 17.5268 270.573 19.2353 273.402 21.6634ZM245.184 2.59488C248.587 3.74234 251.512 5.70963 254.15 8.13022C257.89 11.5532 260.877 15.585 263.452 19.9489C263.513 20.0323 263.548 20.1323 263.552 20.236C263.557 20.3397 263.53 20.4424 263.477 20.5309C262.907 21.6829 262.241 22.784 261.487 23.8222C261.206 24.2126 261.028 24.3084 260.66 23.891C259.872 22.9933 259.022 22.1675 258.209 21.2983C257.524 20.5653 256.716 20.3184 255.774 20.664C254.831 21.0096 254.078 22.0628 254.059 23.0233C254.066 23.6109 254.301 24.1722 254.713 24.5866C255.574 25.4842 256.416 26.3983 257.295 27.2795C257.604 27.5907 257.551 27.7283 257.212 27.9527C256.139 28.6759 255.019 29.3233 253.858 29.8901C253.761 29.9514 253.648 29.9824 253.534 29.9792C253.419 29.976 253.309 29.9388 253.215 29.8721C248.411 26.7035 244.033 23.0577 240.591 18.3661C238.882 16.0353 237.544 13.5115 236.76 10.7034C236.648 10.301 236.721 10.105 237.096 9.89554C240.078 8.29585 242.557 5.88396 244.253 2.93299C244.5 2.49764 244.741 2.44528 245.184 2.59488ZM242.816 2.0219C241.344 4.5512 239.245 6.64919 236.727 8.10927C236.431 8.2873 236.272 8.3247 236.227 7.87589C236.06 6.12824 236.137 4.36541 236.458 2.63976C236.539 2.19095 236.739 2.02639 237.185 1.95757C239.052 1.65167 240.957 1.67343 242.816 2.0219Z" fill="#112F4A"/>
<path d="M240.783 12.7605C240.712 16.2761 243.347 19.0663 246.798 19.1306C248.021 19.1629 249.226 18.8274 250.26 18.1666C251.294 17.5057 252.111 16.5493 252.607 15.4186C253.103 14.2878 253.255 13.0337 253.045 11.8151C252.836 10.5966 252.273 9.46845 251.428 8.57378C250.583 7.67911 249.495 7.05819 248.3 6.78971C247.106 6.52124 245.86 6.61731 244.72 7.06574C243.58 7.51417 242.597 8.29478 241.896 9.3086C241.195 10.3224 240.808 11.5238 240.783 12.7605ZM251.311 12.9804C251.264 15.5236 249.318 17.4386 246.825 17.3922C245.656 17.3492 244.551 16.8437 243.747 15.9846C242.944 15.1255 242.506 13.9815 242.529 12.7993C242.552 11.6171 243.033 10.4914 243.87 9.66473C244.706 8.83807 245.83 8.3767 246.999 8.38006C249.469 8.43093 251.355 10.4446 251.311 12.9804ZM277.017 40.8306C277.012 41.0687 276.984 41.3058 276.933 41.5382C276.656 42.8039 275.947 43.317 275.401 43.525C273.573 44.2221 270.962 42.581 270.054 41.9407C270.078 42.4957 270.017 43.2078 269.376 43.5953C268.145 44.3433 267.195 43.712 266.094 42.9849L265.798 42.7919C263.924 41.5667 262.593 39.2912 262.839 37.7174C262.888 37.3365 263.051 36.9799 263.306 36.6954C263.562 36.4109 263.897 36.212 264.267 36.1256C266.145 35.6064 268.016 34.827 268.469 31.5941V31.5522L268.481 31.5118C268.814 30.3389 269.543 29.9185 270.097 29.7719C271.704 29.3485 273.796 30.7084 274.814 31.7257C276.166 33.0796 277.329 34.2465 276.999 35.2594C276.843 35.7396 276.408 36.0358 275.688 36.1375C275.175 36.2108 274.959 36.3036 274.878 36.3515C274.944 36.5534 275.256 36.9723 275.49 37.2865C276.162 38.1826 277.044 39.369 277.017 40.8306ZM268.835 41.2974C268.835 40.9787 268.917 40.666 269.233 40.4895C269.719 40.2142 270.24 40.6017 270.521 40.8097C271.935 41.8569 273.935 42.8054 274.984 42.4059C275.387 42.2563 275.647 41.8853 275.779 41.2794C276.052 40.0242 275.218 38.9052 274.548 38.0061C273.976 37.2386 273.482 36.5774 273.763 35.8907C274.027 35.2459 274.842 35.0514 275.524 34.9542C275.644 34.9419 275.762 34.9101 275.872 34.8599C275.811 34.4111 274.586 33.1784 273.987 32.5785C272.998 31.5881 271.347 30.6785 270.397 30.9328C270.16 30.9942 269.826 31.1542 269.631 31.808C269.092 35.5361 266.884 36.6432 264.578 37.282C264.428 37.308 264.291 37.3828 264.188 37.4949C264.085 37.6071 264.02 37.7503 264.005 37.9029C263.857 38.8887 264.865 40.7603 266.442 41.7926L266.738 41.99C267.824 42.7081 268.195 42.9191 268.764 42.575C268.912 42.4867 268.872 42.005 268.849 41.7163C268.837 41.577 268.833 41.4372 268.835 41.2974Z" fill="#112F4A"/>
<path d="M269.419 39.4393C267.759 38.9291 267.12 37.8041 269.487 35.8024C271.855 33.8007 272.917 38.4384 273.058 39.6562C273.198 40.874 271.016 39.9285 269.419 39.4393Z" fill="#112F4A"/>
<path d="M96.5789 370C96.2581 370 95.9506 369.871 95.7238 369.642C95.497 369.412 95.3696 369.101 95.3696 368.777C95.3696 368.452 95.497 368.141 95.7238 367.912C95.9506 367.682 96.2581 367.553 96.5789 367.553C98.3393 367.537 100.135 367.497 101.934 367.434C102.095 367.424 102.256 367.447 102.409 367.501C102.561 367.555 102.701 367.64 102.82 367.75C102.94 367.86 103.036 367.993 103.104 368.141C103.172 368.289 103.21 368.45 103.215 368.613C103.221 368.776 103.194 368.939 103.136 369.091C103.078 369.244 102.991 369.383 102.879 369.501C102.768 369.619 102.634 369.713 102.486 369.778C102.337 369.843 102.178 369.877 102.016 369.878C100.209 369.944 98.3906 369.984 96.6101 370H96.5789ZM88.2477 369.905H88.2075C86.3868 369.844 84.5684 369.756 82.7991 369.643C82.479 369.623 82.1801 369.474 81.9681 369.231C81.7562 368.987 81.6486 368.668 81.669 368.344C81.6894 368.02 81.8362 367.718 82.077 367.504C82.3178 367.289 82.6329 367.18 82.9531 367.201C84.6956 367.312 86.4917 367.4 88.2856 367.458C88.6063 367.463 88.9119 367.597 89.1351 367.83C89.3583 368.063 89.4809 368.377 89.4759 368.701C89.4709 369.025 89.3387 369.335 89.1083 369.56C88.878 369.786 88.5684 369.91 88.2477 369.905ZM110.276 369.431C109.966 369.427 109.669 369.302 109.447 369.082C109.226 368.862 109.096 368.565 109.085 368.251C109.074 367.937 109.183 367.631 109.389 367.396C109.595 367.161 109.882 367.015 110.191 366.989C111.947 366.862 113.743 366.711 115.524 366.537C115.838 366.516 116.149 366.62 116.388 366.827C116.628 367.034 116.779 367.328 116.808 367.645C116.837 367.963 116.742 368.279 116.544 368.527C116.346 368.775 116.06 368.935 115.747 368.973C113.946 369.142 112.135 369.293 110.361 369.424L110.276 369.431ZM74.5772 368.903C74.5304 368.906 74.4834 368.906 74.4366 368.903C72.6249 368.693 70.8177 368.452 69.0617 368.178C68.7446 368.129 68.4596 367.955 68.2697 367.693C68.0797 367.432 68.0003 367.104 68.0488 366.783C68.0973 366.463 68.2698 366.174 68.5284 365.982C68.787 365.79 69.1105 365.71 69.4277 365.759C71.1524 366.025 72.9306 366.267 74.7133 366.472C75.0222 366.505 75.3067 366.657 75.5078 366.896C75.709 367.135 75.8115 367.444 75.794 367.758C75.7765 368.071 75.6404 368.366 75.4138 368.581C75.1873 368.796 74.8878 368.914 74.5772 368.912V368.903ZM123.92 368.063C123.612 368.064 123.315 367.946 123.09 367.732C122.865 367.519 122.729 367.227 122.71 366.916C122.691 366.604 122.79 366.297 122.987 366.058C123.184 365.818 123.464 365.663 123.77 365.626C125.533 365.4 127.316 365.152 129.072 364.89C129.23 364.862 129.393 364.867 129.55 364.904C129.707 364.941 129.855 365.009 129.985 365.105C130.116 365.2 130.226 365.321 130.31 365.461C130.393 365.6 130.448 365.755 130.472 365.916C130.496 366.077 130.487 366.242 130.447 366.399C130.407 366.557 130.336 366.705 130.239 366.835C130.142 366.965 130.019 367.074 129.88 367.155C129.74 367.237 129.586 367.289 129.426 367.309C127.653 367.576 125.856 367.824 124.071 368.052C124.021 368.058 123.97 368.06 123.92 368.059V368.063ZM61.054 366.65C60.9662 366.651 60.8786 366.641 60.793 366.621C59.008 366.226 57.2231 365.788 55.5162 365.323C55.3628 365.281 55.2191 365.21 55.0931 365.112C54.9672 365.014 54.8615 364.892 54.7821 364.753C54.7028 364.613 54.6513 364.46 54.6306 364.301C54.61 364.141 54.6205 363.979 54.6617 363.824C54.7029 363.669 54.7738 363.524 54.8706 363.396C54.9673 363.269 55.0879 363.162 55.2254 363.082C55.363 363.001 55.5149 362.949 55.6723 362.928C55.8298 362.907 55.9898 362.918 56.1432 362.96C57.821 363.411 59.5591 363.842 61.3106 364.231C61.603 364.294 61.8618 364.464 62.0372 364.71C62.2125 364.955 62.2919 365.257 62.26 365.557C62.2281 365.858 62.0872 366.136 61.8645 366.338C61.6418 366.54 61.353 366.651 61.054 366.65ZM137.474 365.953C137.172 365.954 136.881 365.84 136.657 365.635C136.434 365.429 136.294 365.147 136.266 364.843C136.238 364.539 136.324 364.235 136.506 363.991C136.688 363.748 136.954 363.582 137.251 363.526C139.052 363.194 140.821 362.849 142.503 362.495C142.661 362.457 142.824 362.452 142.983 362.479C143.143 362.506 143.295 362.565 143.431 362.653C143.568 362.741 143.685 362.856 143.777 362.99C143.869 363.125 143.933 363.277 143.966 363.437C143.999 363.597 144 363.762 143.968 363.923C143.937 364.083 143.874 364.236 143.784 364.371C143.693 364.506 143.576 364.622 143.441 364.711C143.305 364.8 143.153 364.861 142.994 364.89C141.292 365.246 139.505 365.598 137.684 365.932C137.615 365.944 137.544 365.949 137.474 365.948V365.953ZM47.8811 362.856C47.7419 362.856 47.6038 362.831 47.4728 362.784C45.7459 362.156 44.0413 361.481 42.4058 360.772C42.1099 360.645 41.8763 360.404 41.7562 360.102C41.6361 359.8 41.6394 359.462 41.7655 359.163C41.8915 358.864 42.1299 358.627 42.4283 358.506C42.7266 358.384 43.0604 358.388 43.3563 358.515C44.9494 359.206 46.6093 359.87 48.2894 360.475C48.5572 360.572 48.7825 360.762 48.9255 361.011C49.0686 361.26 49.1203 361.552 49.0715 361.835C49.0227 362.119 48.8766 362.376 48.6589 362.562C48.4411 362.747 48.1657 362.849 47.8811 362.849V362.856ZM35.4044 357.174C35.1989 357.173 34.9971 357.12 34.8176 357.019C33.2134 356.116 31.6404 355.152 30.1477 354.154C29.8799 353.975 29.6937 353.695 29.6299 353.376C29.5661 353.058 29.6299 352.727 29.8074 352.456C29.985 352.185 30.2616 351.996 30.5765 351.932C30.8913 351.867 31.2187 351.932 31.4864 352.111C32.93 353.075 34.4494 354.008 36.0023 354.881C36.2369 355.013 36.4216 355.219 36.5273 355.469C36.633 355.718 36.6537 355.996 36.5863 356.259C36.5188 356.521 36.367 356.754 36.1547 356.92C35.9423 357.085 35.6815 357.175 35.4133 357.174H35.4044ZM24.1637 349.297C23.8746 349.297 23.5949 349.192 23.3761 349.001C21.9883 347.796 20.6429 346.518 19.3778 345.216C19.2666 345.101 19.1788 344.965 19.1195 344.816C19.0602 344.667 19.0304 344.508 19.032 344.347C19.0335 344.186 19.0664 344.028 19.1286 343.88C19.1908 343.732 19.2812 343.598 19.3945 343.485C19.5079 343.373 19.6421 343.284 19.7894 343.224C19.9367 343.164 20.0943 343.134 20.2531 343.136C20.4119 343.137 20.5689 343.17 20.715 343.233C20.8611 343.296 20.9935 343.388 21.1047 343.502C22.3207 344.76 23.6148 345.985 24.9513 347.146C25.1385 347.308 25.272 347.525 25.3338 347.767C25.3955 348.009 25.3827 348.264 25.297 348.498C25.2112 348.732 25.0566 348.934 24.854 349.077C24.6515 349.22 24.4106 349.297 24.1637 349.297ZM14.8485 339.175C14.6592 339.176 14.4725 339.131 14.3034 339.045C14.1344 338.958 13.9879 338.833 13.8757 338.679C12.8003 337.202 11.7717 335.656 10.8235 334.078C10.7366 333.941 10.6778 333.788 10.6504 333.627C10.6231 333.466 10.6277 333.302 10.6641 333.143C10.7004 332.984 10.7678 332.834 10.8623 332.702C10.9567 332.57 11.0762 332.459 11.2139 332.374C11.3516 332.289 11.5046 332.233 11.664 332.209C11.8234 332.185 11.9859 332.194 12.142 332.234C12.2981 332.274 12.4446 332.346 12.573 332.445C12.7014 332.543 12.809 332.667 12.8895 332.808C13.8021 334.322 14.7883 335.808 15.8213 337.225C15.9543 337.407 16.0347 337.623 16.0536 337.849C16.0724 338.074 16.029 338.301 15.9282 338.503C15.8273 338.705 15.673 338.875 15.4824 338.994C15.2918 339.112 15.0723 339.175 14.8485 339.175ZM7.98984 327.212C7.75859 327.212 7.53222 327.145 7.33735 327.019C7.14248 326.893 6.98723 326.713 6.88989 326.501C6.1179 324.806 5.40391 323.099 4.76357 321.424C4.69835 321.273 4.66405 321.11 4.66271 320.945C4.66137 320.78 4.69304 320.617 4.7558 320.464C4.81856 320.312 4.9111 320.174 5.02789 320.059C5.14468 319.944 5.28331 319.854 5.4354 319.794C5.58748 319.735 5.74991 319.707 5.9129 319.713C6.07589 319.718 6.23608 319.757 6.38384 319.827C6.5316 319.897 6.66387 319.996 6.77269 320.119C6.88151 320.242 6.96462 320.386 7.01705 320.542C7.63955 322.169 8.33569 323.828 9.08759 325.476C9.15399 325.622 9.19131 325.78 9.19741 325.941C9.20351 326.101 9.17828 326.261 9.12316 326.412C9.06805 326.563 8.98412 326.701 8.87619 326.819C8.76825 326.937 8.63841 327.032 8.49409 327.099C8.33601 327.173 8.16389 327.211 7.98984 327.21V327.212ZM3.30436 314.199C3.03886 314.199 2.78075 314.111 2.56986 313.947C2.35897 313.784 2.20702 313.555 2.13746 313.296C1.66445 311.49 1.26731 309.685 0.952718 307.892C0.903447 307.576 0.97873 307.253 1.16244 306.992C1.34614 306.731 1.62361 306.554 1.93526 306.497C2.24691 306.441 2.56791 306.511 2.82931 306.692C3.09071 306.872 3.27167 307.149 3.33337 307.464C3.63681 309.179 4.02057 310.931 4.47573 312.673C4.55731 312.987 4.51244 313.321 4.35094 313.601C4.18944 313.881 3.92453 314.085 3.6145 314.167C3.51349 314.19 3.41004 314.2 3.3066 314.197L3.30436 314.199ZM1.24499 300.52C0.932232 300.52 0.631786 300.397 0.406717 300.177C0.181647 299.958 0.0494805 299.658 0.0379399 299.342C0.0133969 298.665 0 297.963 0 297.283C0 296.116 0.0379279 294.94 0.109326 293.787C0.119288 293.627 0.160362 293.47 0.230227 293.326C0.300091 293.181 0.397374 293.052 0.516505 292.946C0.635636 292.84 0.774296 292.758 0.924556 292.706C1.07482 292.654 1.23374 292.633 1.39225 292.643C1.55077 292.653 1.70577 292.694 1.8484 292.765C1.99104 292.836 2.11851 292.934 2.22355 293.055C2.3286 293.175 2.40916 293.315 2.46062 293.467C2.51207 293.619 2.53341 293.78 2.52345 293.94C2.45428 295.044 2.41859 296.168 2.41859 297.283C2.41859 297.934 2.43199 298.595 2.4543 299.254C2.46575 299.578 2.34949 299.894 2.13109 300.131C1.91269 300.369 1.61003 300.509 1.28963 300.52H1.24499ZM2.50114 286.767C2.41029 286.766 2.31977 286.756 2.23118 286.735C2.07632 286.7 1.92992 286.633 1.80036 286.541C1.6708 286.448 1.56059 286.33 1.47606 286.194C1.39153 286.058 1.33432 285.906 1.30769 285.748C1.28105 285.589 1.28554 285.427 1.32087 285.27C1.72848 283.464 2.2297 281.681 2.82245 279.928C2.86881 279.77 2.94623 279.623 3.05012 279.496C3.154 279.369 3.28218 279.264 3.42695 279.189C3.57173 279.113 3.73012 279.068 3.89261 279.056C4.0551 279.043 4.21834 279.065 4.37254 279.118C4.52673 279.171 4.66869 279.255 4.7899 279.366C4.91111 279.476 5.00908 279.61 5.0779 279.759C5.14672 279.908 5.18497 280.07 5.19038 280.235C5.1958 280.4 5.16827 280.564 5.10941 280.718C4.54587 282.39 4.0685 284.092 3.67921 285.814C3.6182 286.084 3.46876 286.325 3.25523 286.497C3.0417 286.67 2.77668 286.764 2.50338 286.765L2.50114 286.767ZM7.27141 273.831C7.07397 273.83 6.87962 273.781 6.70471 273.689C6.42162 273.536 6.2098 273.276 6.1157 272.966C6.0216 272.656 6.05289 272.321 6.20269 272.034C7.04831 270.42 7.98762 268.813 9.00504 267.258C9.08761 267.113 9.19874 266.986 9.33155 266.886C9.46435 266.787 9.61601 266.715 9.77713 266.677C9.93825 266.639 10.1054 266.635 10.2683 266.664C10.4311 266.694 10.5862 266.757 10.7239 266.85C10.8616 266.943 10.979 267.064 11.0688 267.204C11.1586 267.345 11.2189 267.503 11.246 267.668C11.2731 267.833 11.2665 268.002 11.2264 268.164C11.1863 268.327 11.1137 268.479 11.0131 268.612C10.0403 270.102 9.13891 271.641 8.33569 273.185C8.23256 273.38 8.07938 273.542 7.89239 273.655C7.70541 273.768 7.49158 273.828 7.27364 273.829L7.27141 273.831ZM15.0627 262.466C14.8299 262.466 14.6019 262.399 14.4061 262.271C14.2103 262.144 14.0551 261.962 13.9589 261.747C13.8628 261.533 13.8299 261.295 13.8642 261.062C13.8985 260.829 13.9986 260.611 14.1524 260.434C15.3327 259.08 16.6067 257.726 17.9119 256.421C18.0256 256.308 18.1601 256.22 18.3076 256.16C18.4551 256.1 18.6128 256.071 18.7717 256.072C18.9307 256.074 19.0876 256.108 19.2337 256.171C19.3798 256.234 19.5122 256.326 19.6232 256.441C19.7343 256.556 19.8218 256.692 19.8809 256.841C19.94 256.991 19.9695 257.15 19.9676 257.311C19.9658 257.472 19.9326 257.631 19.8701 257.778C19.8075 257.926 19.7168 258.06 19.6031 258.172C18.3314 259.427 17.1109 260.73 15.973 262.046C15.8597 262.177 15.7201 262.282 15.5635 262.354C15.4069 262.426 15.2369 262.463 15.0649 262.463L15.0627 262.466ZM25.0316 252.985C24.7798 252.985 24.5343 252.906 24.3293 252.758C24.1243 252.61 23.97 252.401 23.8879 252.161C23.8059 251.92 23.8002 251.659 23.8716 251.415C23.943 251.171 24.088 250.955 24.2864 250.798C25.692 249.685 27.1713 248.591 28.684 247.543C28.9487 247.373 29.2686 247.313 29.5761 247.376C29.8835 247.44 30.1545 247.622 30.3318 247.884C30.5091 248.146 30.5787 248.467 30.526 248.78C30.4734 249.093 30.3025 249.373 30.0495 249.561C28.5792 250.579 27.149 251.645 25.7746 252.721C25.564 252.891 25.3029 252.983 25.0338 252.983L25.0316 252.985ZM36.4463 245.336C36.1785 245.336 35.918 245.247 35.7057 245.082C35.4934 244.916 35.3414 244.684 35.2735 244.422C35.2056 244.16 35.2256 243.883 35.3305 243.633C35.4353 243.384 35.6191 243.177 35.8528 243.045C37.4147 242.162 39.0233 241.297 40.661 240.478C40.947 240.344 41.2733 240.329 41.5705 240.435C41.8677 240.541 42.1122 240.76 42.2521 241.046C42.3919 241.331 42.416 241.661 42.3193 241.964C42.2226 242.267 42.0127 242.521 41.7342 242.67C40.1345 243.471 38.5526 244.315 37.0488 245.178C36.8655 245.281 36.6586 245.335 36.4486 245.333L36.4463 245.336ZM48.7981 239.345C48.5186 239.343 48.2484 239.242 48.0336 239.061C47.8188 238.88 47.6727 238.63 47.6201 238.352C47.5675 238.074 47.6116 237.786 47.7451 237.538C47.8785 237.289 48.0929 237.095 48.3519 236.988C50.0052 236.311 51.7121 235.652 53.4256 235.036C53.728 234.927 54.0606 234.945 54.3504 235.084C54.6402 235.224 54.8633 235.474 54.9707 235.78C55.0781 236.086 55.061 236.422 54.9231 236.715C54.7853 237.008 54.5379 237.234 54.2355 237.343C52.5554 237.945 50.8888 238.589 49.26 239.255C49.114 239.314 48.9578 239.344 48.8004 239.343L48.7981 239.345ZM61.7591 234.855C61.4666 234.856 61.1838 234.749 60.9631 234.555C60.7423 234.361 60.5987 234.092 60.5586 233.799C60.5186 233.506 60.5849 233.208 60.7454 232.961C60.9058 232.713 61.1494 232.533 61.4311 232.454C63.1536 231.959 64.9184 231.492 66.6766 231.063C66.9884 230.987 67.3174 231.04 67.591 231.209C67.8647 231.378 68.0606 231.651 68.1358 231.966C68.2109 232.282 68.1591 232.614 67.9918 232.891C67.8244 233.168 67.5552 233.366 67.2433 233.442C65.5164 233.862 63.7828 234.323 62.0893 234.797C61.9831 234.831 61.8727 234.85 61.7613 234.853L61.7591 234.855ZM75.1149 231.745C74.8107 231.749 74.5161 231.637 74.2898 231.431C74.0635 231.226 73.9222 230.941 73.894 230.635C73.8659 230.328 73.953 230.022 74.1379 229.778C74.3228 229.533 74.592 229.369 74.8918 229.316C76.6544 228.998 78.4617 228.707 80.2466 228.452C80.406 228.424 80.5692 228.429 80.7265 228.467C80.8839 228.505 81.0322 228.574 81.1627 228.67C81.2932 228.767 81.4032 228.889 81.4862 229.029C81.5693 229.17 81.6237 229.325 81.6462 229.487C81.6687 229.649 81.6589 229.814 81.6174 229.972C81.5758 230.13 81.5034 230.278 81.4043 230.408C81.3052 230.537 81.1816 230.645 81.0406 230.725C80.8996 230.805 80.7442 230.855 80.5836 230.874C78.8254 231.124 77.0538 231.411 75.3202 231.725C75.2531 231.736 75.1852 231.742 75.1172 231.743L75.1149 231.745ZM88.7073 229.939C88.389 229.949 88.0797 229.831 87.8466 229.612C87.6135 229.392 87.4753 229.089 87.4621 228.767C87.4489 228.445 87.5617 228.131 87.776 227.893C87.9903 227.655 88.2889 227.511 88.6069 227.494C90.3918 227.343 92.2214 227.224 94.0219 227.138C94.3424 227.123 94.6557 227.237 94.8929 227.455C95.1302 227.674 95.2719 227.978 95.287 228.303C95.3021 228.627 95.1893 228.944 94.9734 229.184C94.7575 229.424 94.4562 229.567 94.1357 229.582C92.3642 229.666 90.5659 229.783 88.8077 229.935L88.7073 229.939ZM102.416 229.384C102.257 229.385 102.099 229.354 101.952 229.294C101.805 229.234 101.671 229.145 101.558 229.032C101.445 228.919 101.355 228.785 101.293 228.637C101.231 228.489 101.199 228.33 101.197 228.169C101.196 228.009 101.226 227.849 101.286 227.701C101.346 227.552 101.434 227.416 101.545 227.302C101.657 227.187 101.789 227.096 101.936 227.034C102.082 226.971 102.239 226.938 102.398 226.937C104.053 226.914 105.848 226.887 107.782 226.853H107.802C108.122 226.851 108.431 226.978 108.659 227.205C108.888 227.433 109.018 227.743 109.02 228.068C109.022 228.392 108.897 228.704 108.672 228.936C108.447 229.167 108.14 229.298 107.82 229.3C105.886 229.332 104.091 229.36 102.433 229.384H102.416ZM116.162 229.158C115.841 229.161 115.532 229.035 115.304 228.808C115.075 228.58 114.944 228.27 114.942 227.946C114.939 227.621 115.063 227.309 115.288 227.078C115.513 226.846 115.819 226.714 116.14 226.711C117.862 226.68 119.657 226.644 121.523 226.605H121.548C121.869 226.602 122.178 226.728 122.407 226.955C122.636 227.182 122.766 227.492 122.77 227.816C122.773 228.141 122.649 228.453 122.424 228.685C122.2 228.917 121.893 229.049 121.573 229.052C119.704 229.091 117.908 229.126 116.184 229.158H116.162ZM129.899 228.876C129.579 228.879 129.27 228.753 129.041 228.526C128.812 228.299 128.681 227.989 128.678 227.665C128.674 227.34 128.799 227.028 129.023 226.796C129.248 226.564 129.554 226.432 129.875 226.429L135.254 226.307H135.283C135.604 226.304 135.913 226.429 136.142 226.656C136.371 226.883 136.502 227.193 136.506 227.517C136.509 227.842 136.385 228.154 136.161 228.386C135.937 228.618 135.631 228.75 135.31 228.754L129.926 228.876H129.899ZM143.63 228.555C143.309 228.559 143 228.434 142.771 228.207C142.541 227.981 142.41 227.671 142.406 227.347C142.402 227.022 142.526 226.709 142.75 226.477C142.974 226.245 143.28 226.112 143.601 226.109L148.98 225.973C149.301 225.965 149.612 226.086 149.844 226.31C150.077 226.534 150.212 226.842 150.22 227.166C150.228 227.491 150.108 227.805 149.887 228.04C149.666 228.275 149.361 228.412 149.041 228.42L143.659 228.555H143.63ZM157.354 228.199C157.033 228.203 156.724 228.078 156.494 227.852C156.265 227.625 156.133 227.316 156.129 226.991C156.125 226.667 156.248 226.354 156.472 226.121C156.696 225.889 157.002 225.756 157.323 225.752L162.7 225.605C162.862 225.595 163.024 225.618 163.177 225.673C163.33 225.728 163.47 225.813 163.59 225.924C163.709 226.035 163.806 226.169 163.873 226.318C163.94 226.467 163.977 226.628 163.982 226.792C163.986 226.956 163.958 227.12 163.899 227.272C163.84 227.425 163.751 227.564 163.638 227.682C163.524 227.799 163.389 227.892 163.239 227.955C163.09 228.018 162.929 228.051 162.767 228.05L157.387 228.199H157.354ZM171.074 227.81C170.761 227.802 170.465 227.672 170.245 227.447C170.026 227.222 169.901 226.92 169.897 226.604C169.892 226.289 170.009 225.983 170.222 225.753C170.435 225.522 170.728 225.383 171.04 225.366L176.417 225.206C176.579 225.196 176.741 225.219 176.894 225.273C177.046 225.328 177.187 225.413 177.306 225.524C177.426 225.634 177.522 225.768 177.59 225.917C177.657 226.066 177.695 226.227 177.699 226.391C177.704 226.554 177.676 226.718 177.618 226.87C177.559 227.023 177.47 227.162 177.358 227.28C177.245 227.397 177.109 227.491 176.96 227.554C176.811 227.618 176.651 227.65 176.489 227.65L171.109 227.81H171.074ZM184.791 227.393C184.632 227.395 184.474 227.366 184.327 227.307C184.179 227.247 184.044 227.159 183.93 227.047C183.7 226.821 183.568 226.512 183.564 226.188C183.559 225.863 183.682 225.55 183.905 225.317C184.129 225.084 184.434 224.951 184.755 224.946C186.531 224.89 188.323 224.832 190.13 224.772C190.289 224.767 190.447 224.794 190.596 224.85C190.744 224.907 190.881 224.993 190.997 225.103C191.113 225.213 191.206 225.345 191.271 225.491C191.337 225.637 191.373 225.796 191.378 225.956C191.384 226.117 191.357 226.277 191.301 226.427C191.245 226.578 191.16 226.716 191.052 226.833C190.943 226.95 190.813 227.045 190.668 227.111C190.523 227.177 190.367 227.214 190.208 227.219C188.399 227.278 186.606 227.335 184.829 227.391L184.791 227.393ZM198.506 226.941C198.185 226.947 197.875 226.823 197.645 226.598C197.414 226.372 197.282 226.063 197.277 225.738C197.271 225.414 197.393 225.101 197.617 224.867C197.84 224.634 198.145 224.5 198.466 224.495C200.251 224.436 202.043 224.374 203.843 224.31C204.164 224.298 204.476 224.417 204.71 224.638C204.945 224.86 205.083 225.167 205.093 225.491C205.104 225.816 204.987 226.131 204.768 226.369C204.549 226.606 204.246 226.745 203.925 226.756L198.548 226.941H198.506ZM212.219 226.461C211.898 226.466 211.588 226.343 211.357 226.118C211.127 225.892 210.994 225.583 210.988 225.259C210.983 224.934 211.105 224.621 211.327 224.387C211.55 224.154 211.856 224.02 212.176 224.014L217.551 223.815C217.872 223.803 218.184 223.921 218.419 224.142C218.655 224.363 218.793 224.669 218.805 224.993C218.817 225.318 218.701 225.634 218.483 225.872C218.264 226.11 217.961 226.25 217.64 226.262L212.263 226.458L212.219 226.461ZM225.929 225.946C225.609 225.952 225.299 225.829 225.068 225.604C224.837 225.378 224.704 225.07 224.698 224.745C224.692 224.421 224.814 224.107 225.036 223.873C225.259 223.64 225.564 223.505 225.885 223.499L231.257 223.289C231.575 223.282 231.882 223.401 232.113 223.62C232.345 223.84 232.481 224.143 232.494 224.464C232.506 224.785 232.394 225.097 232.181 225.335C231.967 225.573 231.67 225.716 231.353 225.734L225.976 225.944L225.929 225.946ZM239.64 225.398C239.327 225.392 239.029 225.264 238.807 225.041C238.586 224.817 238.458 224.516 238.452 224.199C238.446 223.883 238.561 223.576 238.773 223.344C238.985 223.111 239.279 222.971 239.591 222.953L244.964 222.727C245.282 222.717 245.591 222.835 245.824 223.054C246.057 223.274 246.195 223.577 246.209 223.899C246.222 224.221 246.109 224.535 245.895 224.774C245.681 225.012 245.382 225.155 245.064 225.172L239.689 225.398H239.64ZM253.346 224.817C253.025 224.824 252.715 224.702 252.483 224.477C252.252 224.253 252.118 223.944 252.111 223.62C252.104 223.295 252.225 222.982 252.447 222.747C252.669 222.513 252.974 222.377 253.295 222.371L258.667 222.145C258.826 222.138 258.985 222.163 259.134 222.218C259.283 222.273 259.42 222.357 259.537 222.465C259.654 222.574 259.749 222.705 259.816 222.85C259.883 222.996 259.921 223.154 259.928 223.314C259.935 223.475 259.911 223.635 259.856 223.786C259.802 223.937 259.719 224.076 259.611 224.194C259.504 224.312 259.375 224.408 259.231 224.476C259.087 224.544 258.931 224.582 258.772 224.589L253.397 224.815L253.346 224.817ZM267.05 224.201C266.729 224.208 266.419 224.086 266.187 223.862C265.955 223.638 265.821 223.329 265.814 223.005C265.807 222.68 265.927 222.366 266.149 222.132C266.371 221.897 266.676 221.762 266.996 221.754L272.367 221.504C272.529 221.49 272.692 221.509 272.847 221.56C273.002 221.611 273.144 221.694 273.267 221.802C273.389 221.911 273.489 222.043 273.559 222.191C273.63 222.34 273.67 222.501 273.678 222.665C273.686 222.83 273.661 222.994 273.604 223.148C273.547 223.303 273.461 223.444 273.349 223.563C273.237 223.683 273.102 223.779 272.953 223.844C272.804 223.91 272.643 223.945 272.481 223.946L267.108 224.199L267.05 224.201ZM280.754 223.547C280.595 223.55 280.437 223.523 280.289 223.465C280.141 223.407 280.005 223.32 279.89 223.209C279.775 223.098 279.683 222.965 279.619 222.818C279.554 222.672 279.519 222.513 279.516 222.353C279.512 222.192 279.539 222.032 279.597 221.882C279.654 221.732 279.74 221.595 279.849 221.479C279.959 221.363 280.09 221.269 280.235 221.204C280.381 221.139 280.537 221.104 280.696 221.1C282.481 221.014 284.271 220.925 286.066 220.833C286.225 220.825 286.384 220.849 286.533 220.903C286.683 220.957 286.821 221.04 286.938 221.148C287.056 221.256 287.152 221.386 287.22 221.532C287.288 221.677 287.327 221.834 287.335 221.995C287.343 222.155 287.319 222.316 287.266 222.467C287.212 222.618 287.13 222.758 287.023 222.877C286.917 222.996 286.788 223.093 286.645 223.162C286.501 223.23 286.345 223.27 286.187 223.278L280.814 223.544L280.754 223.547ZM294.453 222.851C294.14 222.848 293.84 222.722 293.617 222.499C293.394 222.277 293.264 221.975 293.257 221.658C293.249 221.342 293.363 221.034 293.575 220.8C293.787 220.567 294.08 220.426 294.393 220.407L299.764 220.125C299.925 220.111 300.087 220.13 300.241 220.181C300.395 220.233 300.537 220.314 300.659 220.422C300.781 220.53 300.88 220.661 300.951 220.808C301.022 220.956 301.063 221.116 301.071 221.279C301.08 221.443 301.056 221.607 301.001 221.761C300.946 221.915 300.86 222.056 300.75 222.176C300.64 222.296 300.507 222.392 300.36 222.46C300.212 222.527 300.053 222.563 299.891 222.567L294.518 222.851H294.453ZM308.153 222.116C307.839 222.113 307.539 221.988 307.315 221.766C307.09 221.544 306.961 221.242 306.952 220.925C306.944 220.608 307.058 220.299 307.27 220.066C307.481 219.832 307.775 219.69 308.088 219.671L313.456 219.371C313.617 219.358 313.778 219.378 313.931 219.429C314.084 219.48 314.226 219.561 314.347 219.669C314.469 219.776 314.568 219.907 314.638 220.053C314.709 220.199 314.75 220.359 314.759 220.521C314.768 220.684 314.745 220.847 314.691 221.001C314.637 221.154 314.553 221.295 314.445 221.416C314.336 221.536 314.204 221.633 314.058 221.701C313.912 221.77 313.753 221.808 313.592 221.813L308.22 222.116H308.153ZM321.85 221.337C321.529 221.346 321.218 221.226 320.985 221.003C320.752 220.78 320.615 220.473 320.606 220.148C320.597 219.824 320.716 219.509 320.936 219.273C321.156 219.037 321.46 218.899 321.781 218.89L327.169 218.572C327.328 218.562 327.488 218.585 327.638 218.637C327.789 218.69 327.928 218.772 328.047 218.88C328.166 218.987 328.263 219.116 328.333 219.262C328.402 219.407 328.443 219.564 328.452 219.725C328.461 219.886 328.439 220.047 328.387 220.2C328.335 220.352 328.254 220.492 328.148 220.613C328.042 220.733 327.914 220.832 327.77 220.902C327.627 220.972 327.471 221.014 327.312 221.023L321.921 221.344L321.85 221.337ZM335.576 220.506C335.262 220.506 334.96 220.382 334.734 220.161C334.508 219.939 334.377 219.638 334.367 219.32C334.358 219.002 334.471 218.693 334.683 218.458C334.895 218.223 335.189 218.081 335.503 218.062L340.871 217.721C341.029 217.711 341.188 217.732 341.339 217.784C341.489 217.836 341.627 217.918 341.747 218.024C341.866 218.13 341.963 218.259 342.033 218.404C342.103 218.548 342.144 218.705 342.154 218.865C342.164 219.025 342.142 219.186 342.091 219.338C342.039 219.49 341.959 219.631 341.854 219.751C341.749 219.872 341.621 219.97 341.479 220.041C341.336 220.111 341.181 220.153 341.023 220.163L335.652 220.504L335.576 220.506ZM349.256 219.626C348.949 219.615 348.658 219.487 348.441 219.267C348.225 219.048 348.099 218.753 348.089 218.443C348.079 218.133 348.186 217.83 348.388 217.597C348.59 217.363 348.872 217.217 349.178 217.186L354.532 216.827C354.694 216.811 354.856 216.827 355.011 216.876C355.166 216.925 355.309 217.004 355.433 217.11C355.557 217.216 355.658 217.346 355.731 217.492C355.804 217.639 355.847 217.798 355.858 217.962C355.869 218.125 355.848 218.289 355.795 218.444C355.742 218.599 355.658 218.742 355.55 218.864C355.441 218.985 355.31 219.084 355.163 219.153C355.016 219.222 354.857 219.261 354.695 219.267L349.34 219.628L349.256 219.626ZM362.926 218.689C362.616 218.684 362.319 218.559 362.098 218.339C361.877 218.119 361.747 217.821 361.737 217.508C361.726 217.194 361.835 216.888 362.041 216.653C362.247 216.419 362.534 216.273 362.844 216.247C364.628 216.117 366.413 215.989 368.198 215.861C368.518 215.838 368.835 215.944 369.077 216.157C369.319 216.37 369.469 216.671 369.491 216.995C369.514 217.319 369.409 217.639 369.198 217.884C368.988 218.129 368.69 218.28 368.37 218.303L363.002 218.687L362.926 218.689ZM376.608 217.691C376.292 217.695 375.987 217.574 375.758 217.354C375.53 217.133 375.395 216.831 375.384 216.512C375.373 216.193 375.485 215.882 375.698 215.645C375.91 215.409 376.205 215.266 376.521 215.247L381.875 214.838C382.037 214.819 382.201 214.833 382.357 214.88C382.513 214.927 382.658 215.005 382.784 215.109C382.91 215.214 383.013 215.343 383.088 215.49C383.163 215.636 383.208 215.796 383.221 215.96C383.233 216.124 383.213 216.289 383.161 216.445C383.108 216.601 383.026 216.745 382.917 216.868C382.809 216.99 382.677 217.09 382.53 217.16C382.383 217.23 382.223 217.27 382.061 217.276C380.276 217.416 378.491 217.553 376.706 217.687L376.608 217.691ZM390.287 216.624C389.97 216.631 389.662 216.512 389.431 216.292C389.2 216.073 389.063 215.77 389.051 215.449C389.038 215.128 389.151 214.816 389.364 214.578C389.577 214.34 389.874 214.197 390.191 214.179C391.976 214.029 393.761 213.883 395.546 213.741C395.86 213.724 396.169 213.832 396.406 214.042C396.643 214.251 396.79 214.546 396.816 214.863C396.841 215.181 396.744 215.496 396.543 215.742C396.343 215.987 396.055 216.144 395.742 216.179C393.957 216.329 392.172 216.48 390.387 216.63L390.287 216.624ZM403.957 215.479C403.646 215.478 403.347 215.356 403.122 215.138C402.898 214.919 402.765 214.622 402.753 214.307C402.74 213.992 402.847 213.684 403.053 213.448C403.259 213.211 403.547 213.064 403.857 213.037C405.642 212.886 407.427 212.729 409.212 212.565C409.531 212.535 409.85 212.635 410.097 212.842C410.343 213.05 410.499 213.348 410.528 213.671C410.558 213.995 410.459 214.316 410.254 214.566C410.049 214.816 409.755 214.973 409.435 215.003C407.65 215.164 405.865 215.321 404.08 215.475L403.957 215.479ZM417.623 214.249C417.315 214.245 417.02 214.121 416.799 213.904C416.577 213.687 416.446 213.393 416.432 213.081C416.418 212.77 416.522 212.464 416.723 212.228C416.925 211.991 417.207 211.842 417.514 211.809C419.299 211.64 421.084 211.471 422.869 211.301C423.183 211.28 423.494 211.384 423.734 211.591C423.973 211.798 424.124 212.091 424.153 212.409C424.182 212.727 424.087 213.043 423.889 213.291C423.691 213.539 423.405 213.699 423.092 213.737C421.316 213.908 419.531 214.078 417.737 214.245C417.7 214.249 417.663 214.251 417.626 214.251L417.623 214.249ZM431.28 212.922C430.971 212.92 430.675 212.798 430.452 212.581C430.229 212.365 430.096 212.071 430.081 211.758C430.066 211.446 430.17 211.14 430.371 210.902C430.572 210.665 430.855 210.515 431.162 210.482C432.947 210.301 434.732 210.118 436.517 209.931C436.836 209.897 437.156 209.994 437.405 210.198C437.654 210.403 437.813 210.699 437.846 211.022C437.879 211.345 437.784 211.668 437.582 211.92C437.379 212.173 437.086 212.333 436.767 212.367C434.994 212.552 433.209 212.735 431.412 212.917C431.37 212.921 431.327 212.921 431.285 212.92L431.28 212.922ZM444.926 211.482C444.616 211.482 444.318 211.363 444.093 211.147C443.868 210.932 443.733 210.637 443.716 210.324C443.7 210.011 443.803 209.703 444.004 209.465C444.205 209.226 444.489 209.075 444.797 209.042C446.591 208.845 448.371 208.645 450.138 208.443C450.297 208.423 450.459 208.435 450.613 208.478C450.768 208.521 450.912 208.595 451.038 208.695C451.164 208.795 451.27 208.919 451.348 209.061C451.426 209.202 451.475 209.358 451.493 209.519C451.511 209.68 451.498 209.844 451.453 209.999C451.408 210.155 451.333 210.3 451.232 210.426C451.132 210.552 451.007 210.657 450.866 210.734C450.725 210.811 450.57 210.859 450.411 210.875C448.639 211.078 446.854 211.278 445.056 211.475L444.926 211.482ZM458.559 209.902C458.251 209.9 457.956 209.78 457.733 209.566C457.51 209.352 457.376 209.06 457.358 208.75C457.34 208.439 457.439 208.133 457.636 207.894C457.834 207.655 458.113 207.502 458.418 207.464C460.212 207.247 461.99 207.027 463.751 206.805C463.909 206.785 464.068 206.797 464.222 206.839C464.375 206.882 464.518 206.955 464.643 207.053C464.769 207.152 464.874 207.275 464.952 207.415C465.031 207.554 465.081 207.708 465.101 207.868C465.12 208.027 465.109 208.189 465.067 208.344C465.024 208.499 464.952 208.644 464.855 208.771C464.757 208.898 464.636 209.004 464.498 209.083C464.36 209.163 464.207 209.214 464.05 209.234C462.284 209.455 460.499 209.674 458.695 209.893C458.651 209.9 458.606 209.905 458.561 209.906L458.559 209.902ZM472.169 208.168C471.863 208.166 471.569 208.047 471.347 207.835C471.124 207.622 470.99 207.333 470.97 207.024C470.95 206.715 471.047 206.41 471.24 206.171C471.434 205.931 471.71 205.774 472.013 205.733C473.807 205.492 475.581 205.248 477.337 205.001C477.494 204.979 477.654 204.989 477.808 205.029C477.961 205.07 478.106 205.14 478.232 205.237C478.359 205.334 478.466 205.456 478.546 205.594C478.626 205.733 478.679 205.886 478.701 206.045C478.723 206.204 478.713 206.366 478.673 206.522C478.633 206.677 478.563 206.823 478.467 206.952C478.372 207.08 478.252 207.188 478.115 207.269C477.978 207.35 477.826 207.403 477.669 207.425C475.911 207.671 474.131 207.915 472.33 208.157C472.279 208.165 472.227 208.17 472.176 208.173L472.169 208.168ZM485.759 206.236C485.454 206.235 485.161 206.118 484.938 205.908C484.715 205.697 484.579 205.41 484.556 205.102C484.534 204.794 484.627 204.49 484.818 204.249C485.008 204.008 485.281 203.848 485.583 203.803C487.381 203.532 489.168 203.256 490.893 202.981C491.05 202.956 491.21 202.963 491.365 203C491.519 203.038 491.665 203.106 491.793 203.201C491.921 203.296 492.03 203.415 492.113 203.552C492.196 203.689 492.251 203.841 492.275 204C492.3 204.159 492.293 204.321 492.256 204.477C492.219 204.633 492.152 204.781 492.058 204.91C491.964 205.04 491.847 205.15 491.711 205.234C491.575 205.318 491.425 205.374 491.268 205.398C489.537 205.674 487.745 205.952 485.94 206.222C485.882 206.233 485.824 206.239 485.766 206.24L485.759 206.236ZM499.316 204.051C499.013 204.05 498.722 203.934 498.5 203.727C498.278 203.52 498.14 203.235 498.115 202.931C498.089 202.626 498.178 202.322 498.362 202.08C498.547 201.838 498.815 201.675 499.113 201.622C500.918 201.311 502.696 200.995 504.401 200.681C504.716 200.623 505.042 200.695 505.306 200.88C505.569 201.065 505.749 201.348 505.806 201.667C505.863 201.987 505.793 202.316 505.61 202.583C505.427 202.849 505.147 203.032 504.831 203.089C503.12 203.403 501.333 203.721 499.521 204.033C499.456 204.047 499.389 204.054 499.323 204.055L499.316 204.051ZM512.815 201.525C512.513 201.526 512.223 201.414 511.999 201.21C511.776 201.006 511.635 200.725 511.606 200.422C511.576 200.119 511.659 199.815 511.839 199.571C512.019 199.327 512.283 199.159 512.578 199.101C514.376 198.735 516.148 198.363 517.828 197.993C517.985 197.954 518.147 197.948 518.307 197.974C518.466 198 518.618 198.058 518.755 198.145C518.891 198.231 519.01 198.345 519.102 198.478C519.195 198.612 519.26 198.762 519.295 198.922C519.329 199.081 519.331 199.246 519.302 199.406C519.272 199.567 519.211 199.719 519.122 199.856C519.033 199.992 518.918 200.108 518.784 200.199C518.65 200.29 518.5 200.352 518.341 200.383C516.643 200.755 514.865 201.132 513.053 201.512C512.977 201.525 512.899 201.531 512.821 201.53L512.815 201.525ZM526.217 198.5C525.922 198.501 525.637 198.391 525.416 198.193C525.194 197.995 525.052 197.722 525.016 197.426C524.98 197.129 525.053 196.83 525.22 196.584C525.388 196.337 525.638 196.162 525.925 196.09C527.721 195.638 529.461 195.187 531.104 194.717C531.413 194.631 531.743 194.672 532.022 194.832C532.301 194.992 532.506 195.258 532.592 195.571C532.677 195.883 532.636 196.218 532.478 196.5C532.32 196.782 532.057 196.99 531.748 197.076C530.086 197.541 528.323 198.008 526.51 198.464C526.416 198.489 526.32 198.503 526.224 198.505L526.217 198.5ZM539.412 194.663C539.125 194.664 538.847 194.562 538.627 194.374C538.408 194.186 538.261 193.926 538.215 193.639C538.168 193.352 538.224 193.057 538.372 192.808C538.52 192.559 538.752 192.372 539.024 192.279C540.809 191.668 542.489 191.043 544.011 190.42C544.16 190.341 544.324 190.295 544.492 190.284C544.66 190.273 544.828 190.298 544.986 190.357C545.144 190.416 545.288 190.508 545.409 190.626C545.53 190.745 545.625 190.887 545.689 191.045C545.752 191.203 545.782 191.372 545.777 191.542C545.772 191.713 545.732 191.88 545.659 192.033C545.586 192.187 545.483 192.324 545.355 192.434C545.227 192.545 545.078 192.628 544.917 192.677C543.355 193.318 541.63 193.959 539.801 194.586C539.678 194.632 539.549 194.658 539.419 194.663H539.412ZM551.996 189.183C551.727 189.183 551.465 189.092 551.253 188.925C551.04 188.758 550.889 188.524 550.823 188.259C550.756 187.995 550.779 187.716 550.888 187.467C550.996 187.218 551.184 187.012 551.421 186.882C552.982 186.034 554.506 185.122 555.977 184.174C556.247 183.999 556.575 183.941 556.888 184.011C557.201 184.081 557.474 184.274 557.647 184.547C557.819 184.821 557.877 185.153 557.808 185.469C557.739 185.786 557.548 186.062 557.277 186.237C555.758 187.219 554.176 188.16 552.572 189.038C552.397 189.132 552.201 189.182 552.003 189.183H551.996ZM563.375 181.492C563.126 181.492 562.882 181.414 562.678 181.269C562.474 181.123 562.319 180.918 562.235 180.68C562.151 180.442 562.142 180.183 562.21 179.94C562.277 179.697 562.417 179.48 562.61 179.321C563.976 178.192 565.305 177.003 566.559 175.784C566.674 175.672 566.809 175.585 566.957 175.526C567.105 175.468 567.263 175.44 567.421 175.443C567.58 175.446 567.737 175.481 567.882 175.545C568.028 175.61 568.159 175.703 568.269 175.819C568.379 175.935 568.466 176.071 568.524 176.221C568.581 176.371 568.61 176.53 568.606 176.691C568.603 176.852 568.569 177.01 568.505 177.157C568.441 177.304 568.349 177.438 568.235 177.549C566.934 178.813 565.557 180.048 564.141 181.217C563.926 181.394 563.659 181.491 563.382 181.492H563.375ZM573.014 171.676C572.786 171.675 572.564 171.609 572.371 171.486C572.179 171.363 572.025 171.188 571.926 170.98C571.828 170.773 571.789 170.541 571.814 170.313C571.84 170.084 571.929 169.867 572.07 169.687C573.172 168.294 574.214 166.847 575.169 165.385C575.347 165.114 575.623 164.925 575.938 164.861C576.253 164.796 576.581 164.861 576.848 165.04C577.116 165.22 577.302 165.5 577.366 165.818C577.43 166.137 577.366 166.468 577.189 166.739C576.191 168.263 575.107 169.77 573.96 171.222C573.847 171.363 573.704 171.478 573.541 171.556C573.379 171.635 573.201 171.675 573.021 171.676H573.014ZM580.239 159.938C580.035 159.938 579.836 159.886 579.657 159.788C579.479 159.689 579.328 159.546 579.219 159.373C579.109 159.2 579.045 159.002 579.031 158.797C579.018 158.592 579.055 158.386 579.141 158.2C579.876 156.593 580.53 154.949 581.098 153.275C581.209 152.978 581.43 152.736 581.714 152.601C581.998 152.466 582.323 152.448 582.62 152.551C582.917 152.654 583.163 152.869 583.306 153.152C583.448 153.435 583.477 153.763 583.385 154.067C582.791 155.822 582.108 157.544 581.336 159.227C581.239 159.437 581.085 159.615 580.892 159.74C580.699 159.866 580.475 159.932 580.245 159.933L580.239 159.938ZM584.255 146.731C584.191 146.731 584.128 146.726 584.065 146.717C583.748 146.666 583.464 146.49 583.275 146.227C583.087 145.964 583.009 145.636 583.059 145.316C583.334 143.573 583.509 141.817 583.583 140.054C583.6 139.732 583.741 139.43 583.977 139.213C584.212 138.997 584.523 138.882 584.841 138.896C585.159 138.909 585.459 139.049 585.676 139.285C585.893 139.521 586.009 139.834 585.999 140.156C585.922 142.013 585.738 143.865 585.448 145.702C585.402 145.986 585.258 146.245 585.041 146.433C584.824 146.62 584.549 146.724 584.264 146.726L584.255 146.731ZM584.371 132.928C584.08 132.927 583.799 132.821 583.58 132.628C583.36 132.435 583.217 132.169 583.175 131.878C582.926 130.134 582.576 128.406 582.126 126.703C582.05 126.392 582.098 126.063 582.259 125.787C582.42 125.511 582.682 125.31 582.988 125.228C583.294 125.145 583.62 125.187 583.895 125.344C584.171 125.502 584.374 125.763 584.462 126.07C584.94 127.867 585.312 129.69 585.578 131.531C585.623 131.852 585.541 132.177 585.349 132.437C585.157 132.696 584.871 132.868 584.554 132.914C584.496 132.922 584.438 132.925 584.38 132.923L584.371 132.928ZM580.442 119.714C580.211 119.714 579.986 119.647 579.791 119.522C579.597 119.397 579.442 119.219 579.344 119.008C578.603 117.408 577.779 115.848 576.876 114.335C576.791 114.198 576.734 114.044 576.708 113.884C576.683 113.724 576.689 113.56 576.726 113.403C576.763 113.245 576.831 113.096 576.926 112.965C577.02 112.834 577.14 112.724 577.277 112.64C577.414 112.556 577.567 112.501 577.725 112.477C577.884 112.453 578.046 112.462 578.201 112.502C578.357 112.542 578.503 112.613 578.63 112.711C578.758 112.808 578.866 112.931 578.947 113.071C579.894 114.658 580.758 116.293 581.535 117.972C581.602 118.117 581.641 118.275 581.648 118.435C581.655 118.596 581.631 118.756 581.577 118.907C581.523 119.059 581.44 119.197 581.333 119.316C581.226 119.435 581.096 119.531 580.953 119.599C580.795 119.671 580.624 119.709 580.451 119.71L580.442 119.714ZM573.079 108.078C572.9 108.077 572.724 108.037 572.562 107.959C572.401 107.88 572.259 107.767 572.146 107.627C571.051 106.288 569.864 104.959 568.616 103.679C568.391 103.447 568.267 103.135 568.269 102.811C568.272 102.486 568.402 102.176 568.631 101.949C568.86 101.721 569.168 101.595 569.489 101.598C569.81 101.6 570.116 101.732 570.341 101.963C571.635 103.293 572.869 104.672 574.009 106.067C574.156 106.246 574.249 106.463 574.278 106.693C574.307 106.924 574.271 107.158 574.173 107.368C574.075 107.578 573.921 107.756 573.727 107.881C573.533 108.005 573.308 108.071 573.079 108.071V108.078ZM563.302 98.415C563.026 98.4153 562.759 98.3196 562.545 98.1441C561.207 97.0493 559.776 95.9704 558.306 94.9343C558.043 94.7481 557.864 94.464 557.809 94.1444C557.753 93.8248 557.825 93.4959 558.009 93.2301C558.193 92.9643 558.474 92.7833 558.79 92.727C559.106 92.6707 559.431 92.7437 559.694 92.9299C561.198 93.9976 562.666 95.1104 564.051 96.2367C564.247 96.3953 564.389 96.6115 564.458 96.8554C564.527 97.0993 564.519 97.3588 564.436 97.5981C564.353 97.8373 564.198 98.0445 563.993 98.1908C563.788 98.3371 563.543 98.4155 563.293 98.415H563.302ZM551.992 90.6411C551.781 90.6411 551.574 90.5851 551.392 90.4785C549.888 89.605 548.317 88.745 546.722 87.9234C546.58 87.8504 546.454 87.75 546.351 87.6279C546.248 87.5057 546.17 87.3642 546.121 87.2114C546.071 87.0586 546.053 86.8975 546.065 86.7373C546.077 86.5771 546.121 86.421 546.193 86.2778C546.265 86.1347 546.364 86.0073 546.485 85.9029C546.606 85.7985 546.746 85.7192 546.897 85.6696C547.048 85.6199 547.207 85.6008 547.365 85.6134C547.524 85.6259 547.678 85.67 547.82 85.7429C549.451 86.5826 551.059 87.4629 552.596 88.3567C552.828 88.4911 553.009 88.699 553.111 88.9481C553.213 89.1972 553.231 89.4735 553.162 89.7341C553.093 89.9947 552.941 90.2249 552.729 90.3889C552.518 90.553 552.258 90.6416 551.992 90.6411ZM539.72 84.5059C539.559 84.5057 539.398 84.4727 539.25 84.4089C537.645 83.7317 535.983 83.0545 534.307 82.4044C534.007 82.2895 533.765 82.0587 533.633 81.7628C533.501 81.4669 533.491 81.1302 533.605 80.8266C533.718 80.5231 533.946 80.2777 534.239 80.1443C534.531 80.011 534.864 80.0007 535.164 80.1156C536.869 80.7679 538.562 81.4541 540.193 82.1471C540.456 82.2536 540.673 82.4499 540.808 82.7018C540.942 82.9538 540.985 83.2454 540.929 83.526C540.872 83.8065 540.721 84.0582 540.5 84.2373C540.279 84.4163 540.003 84.5114 539.72 84.5059ZM526.88 79.7206C526.756 79.7208 526.632 79.7018 526.514 79.6642C524.85 79.1315 523.129 78.6123 521.405 78.1202C521.252 78.0766 521.109 78.003 520.984 77.9036C520.859 77.8041 520.755 77.6807 520.677 77.5405C520.599 77.4003 520.55 77.2459 520.531 77.0863C520.512 76.9267 520.525 76.7649 520.568 76.6101C520.611 76.4554 520.684 76.3108 520.782 76.1845C520.88 76.0582 521.002 75.9528 521.141 75.8742C521.28 75.7956 521.432 75.7453 521.59 75.7264C521.748 75.7074 521.908 75.7201 522.061 75.7637C523.81 76.2625 525.555 76.7907 527.244 77.3302C527.519 77.4179 527.755 77.6027 527.907 77.8509C528.06 78.0991 528.12 78.3944 528.076 78.6833C528.032 78.9722 527.887 79.2357 527.668 79.4259C527.448 79.6162 527.169 79.7207 526.88 79.7206ZM513.671 76.0684C513.578 76.0683 513.485 76.0569 513.395 76.0345C511.688 75.6305 509.934 75.24 508.178 74.8743C507.864 74.8088 507.588 74.6196 507.412 74.3485C507.236 74.0774 507.173 73.7465 507.238 73.4286C507.302 73.1107 507.489 72.8319 507.757 72.6534C508.025 72.475 508.353 72.4116 508.667 72.4771C510.452 72.8496 512.219 73.2446 513.946 73.6532C514.235 73.721 514.49 73.8943 514.661 74.1398C514.832 74.3854 514.908 74.6862 514.874 74.9847C514.84 75.2832 514.699 75.5587 514.477 75.7586C514.255 75.9585 513.968 76.0687 513.671 76.0684ZM500.24 73.3597C500.172 73.3601 500.105 73.3548 500.039 73.3439C498.31 73.0482 496.531 72.7661 494.755 72.5042C494.438 72.4573 494.152 72.2846 493.96 72.0243C493.769 71.7639 493.687 71.4372 493.733 71.116C493.78 70.7949 493.951 70.5055 494.208 70.3116C494.465 70.1178 494.788 70.0352 495.106 70.0822C496.891 70.3486 498.693 70.633 500.438 70.931C500.736 70.9832 501.003 71.1463 501.188 71.388C501.373 71.6297 501.461 71.9327 501.437 72.2372C501.412 72.5417 501.275 72.8258 501.053 73.0335C500.832 73.2413 500.542 73.3576 500.24 73.3597ZM486.674 71.4343C486.628 71.4376 486.582 71.4376 486.536 71.4343C484.789 71.2334 482.999 71.0438 481.214 70.8723C480.895 70.8423 480.6 70.6852 480.395 70.4354C480.19 70.1857 480.091 69.8638 480.121 69.5405C480.151 69.2172 480.306 68.9191 480.553 68.7117C480.8 68.5042 481.118 68.4045 481.437 68.4345C483.238 68.6083 485.043 68.8001 486.803 69.0033C487.112 69.0362 487.397 69.1881 487.598 69.4274C487.799 69.6667 487.902 69.9752 487.884 70.2889C487.867 70.6026 487.73 70.8974 487.504 71.1123C487.277 71.3273 486.978 71.4458 486.667 71.4433L486.674 71.4343ZM412.882 70.6917C412.566 70.6957 412.262 70.5746 412.033 70.3542C411.804 70.1338 411.67 69.8317 411.658 69.5124C411.647 69.1931 411.76 68.882 411.972 68.6455C412.184 68.4091 412.48 68.2661 412.795 68.2471C414.58 68.1162 416.396 67.992 418.17 67.8792C418.49 67.8588 418.805 67.968 419.046 68.1826C419.286 68.3972 419.433 68.6997 419.453 69.0236C419.473 69.3475 419.365 69.6662 419.153 69.9096C418.941 70.153 418.642 70.3011 418.322 70.3215C416.555 70.4344 414.752 70.5472 412.967 70.6894L412.882 70.6917ZM473.03 70.1838H472.948C471.19 70.0619 469.391 69.9581 467.593 69.8565C467.28 69.8301 466.989 69.6814 466.782 69.4418C466.575 69.2022 466.469 68.8905 466.486 68.5729C466.502 68.2553 466.64 67.9568 466.871 67.7404C467.101 67.5241 467.406 67.4071 467.72 67.4142C469.521 67.509 471.332 67.6196 473.104 67.7415C473.419 67.7607 473.714 67.9035 473.926 68.1394C474.138 68.3753 474.251 68.6857 474.24 69.0045C474.229 69.3232 474.096 69.6251 473.868 69.8458C473.64 70.0666 473.337 70.1886 473.021 70.1861L473.03 70.1838ZM426.566 69.861C426.253 69.8569 425.954 69.73 425.731 69.5071C425.509 69.2842 425.38 68.9827 425.373 68.666C425.366 68.3492 425.48 68.042 425.692 67.809C425.904 67.576 426.198 67.4352 426.51 67.4164C428.311 67.3307 430.123 67.2562 431.896 67.1907C432.057 67.181 432.219 67.2039 432.371 67.2582C432.523 67.3124 432.663 67.397 432.782 67.5068C432.902 67.6166 432.998 67.7494 433.066 67.8975C433.134 68.0456 433.172 68.2059 433.177 68.369C433.183 68.5322 433.156 68.6948 433.099 68.8473C433.041 68.9998 432.954 69.1392 432.843 69.2572C432.731 69.3752 432.598 69.4694 432.45 69.5344C432.302 69.5993 432.142 69.6336 431.981 69.6353C430.218 69.6985 428.411 69.773 426.626 69.861H426.566ZM459.347 69.5134H459.311C457.548 69.4615 455.741 69.4209 453.956 69.3938C453.635 69.389 453.33 69.2555 453.106 69.0227C452.883 68.7899 452.76 68.4768 452.765 68.1523C452.769 67.8278 452.901 67.5186 453.131 67.2925C453.361 67.0665 453.671 66.9422 453.992 66.9469C455.794 66.974 457.608 67.0147 459.38 67.0666C459.701 67.0711 460.007 67.2043 460.23 67.4369C460.454 67.6695 460.577 67.9825 460.573 68.3069C460.568 68.6314 460.436 68.9408 460.207 69.1671C459.977 69.3933 459.667 69.5179 459.347 69.5134ZM440.268 69.4141C440.109 69.4154 439.951 69.3851 439.804 69.3249C439.657 69.2646 439.523 69.1756 439.41 69.063C439.296 68.9503 439.206 68.8162 439.144 68.6682C439.082 68.5203 439.05 68.3615 439.048 68.2008C439.047 68.0402 439.077 67.8808 439.137 67.7319C439.196 67.5829 439.284 67.4473 439.395 67.3328C439.507 67.2182 439.639 67.127 439.786 67.0643C439.932 67.0016 440.089 66.9686 440.248 66.9673C442.053 66.9357 443.867 66.9153 445.638 66.9063C445.959 66.9063 446.266 67.0352 446.493 67.2647C446.72 67.4941 446.847 67.8053 446.847 68.1297C446.847 68.4542 446.72 68.7654 446.493 68.9948C446.266 69.2243 445.959 69.3532 445.638 69.3532C443.876 69.3532 442.068 69.3825 440.283 69.4141H440.268Z" fill="#112F4A"/>
</svg>
