<svg width="735" height="459" viewBox="0 0 735 459" fill="none" xmlns="http://www.w3.org/2000/svg">
<path d="M554.338 88C553.141 88 551.951 88 550.767 88C550.5 88 550.244 87.8936 550.055 87.7043C549.866 87.515 549.76 87.2582 549.76 86.9904C549.76 86.7227 549.866 86.4659 550.055 86.2765C550.244 86.0872 550.5 85.9808 550.767 85.9808C551.949 85.9808 553.139 85.9808 554.335 85.9808H555.244C555.511 85.9808 555.767 86.0872 555.956 86.2765C556.145 86.4659 556.251 86.7227 556.251 86.9904C556.251 87.2582 556.145 87.515 555.956 87.7043C555.767 87.8936 555.511 88 555.244 88H554.338ZM562.189 87.9814C561.922 87.9814 561.666 87.875 561.477 87.6857C561.288 87.4963 561.182 87.2395 561.182 86.9718C561.182 86.704 561.288 86.4472 561.477 86.2579C561.666 86.0686 561.922 85.9622 562.189 85.9622C563.677 85.9548 565.168 85.9448 566.664 85.9324H566.673C566.941 85.9324 567.197 86.0388 567.386 86.2281C567.575 86.4174 567.681 86.6742 567.681 86.942C567.681 87.2098 567.575 87.4665 567.386 87.6559C567.197 87.8452 566.941 87.9516 566.673 87.9516C565.169 87.9627 563.675 87.9727 562.193 87.9814H562.189ZM543.829 87.9627C542.323 87.9516 540.829 87.9385 539.347 87.9236C539.08 87.9222 538.824 87.8144 538.636 87.624C538.448 87.4336 538.343 87.1762 538.345 86.9085C538.346 86.6407 538.454 86.3845 538.644 86.1962C538.834 86.0079 539.091 85.903 539.358 85.9045H539.369C540.849 85.9194 542.341 85.9324 543.844 85.9436C544.111 85.9436 544.367 86.05 544.556 86.2393C544.745 86.4286 544.852 86.6854 544.852 86.9532C544.852 87.2209 544.745 87.4777 544.556 87.667C544.367 87.8564 544.111 87.9627 543.844 87.9627H543.829ZM573.608 87.8808C573.475 87.8815 573.344 87.8561 573.222 87.8061C573.099 87.756 572.988 87.6823 572.894 87.589C572.704 87.4008 572.596 87.1446 572.595 86.8768C572.593 86.609 572.698 86.3517 572.886 86.1613C573.074 85.9709 573.329 85.8631 573.597 85.8616C575.084 85.8442 576.575 85.8244 578.071 85.802H578.086C578.354 85.8001 578.611 85.9045 578.801 86.0925C578.991 86.2804 579.099 86.5364 579.101 86.8042C579.103 87.0719 578.999 87.3295 578.811 87.5202C578.624 87.7109 578.368 87.8192 578.101 87.8212C576.597 87.8435 575.103 87.8634 573.621 87.8808H573.608ZM532.411 87.8324H532.396C530.89 87.81 529.396 87.7845 527.915 87.756C527.783 87.7535 527.652 87.725 527.531 87.672C527.41 87.619 527.3 87.5426 527.208 87.4471C527.116 87.3516 527.044 87.239 526.996 87.1156C526.947 86.9921 526.924 86.8604 526.926 86.7278C526.929 86.5952 526.957 86.4644 527.01 86.3428C527.063 86.2213 527.139 86.1114 527.235 86.0194C527.33 85.9273 527.442 85.855 527.565 85.8066C527.689 85.7581 527.82 85.7344 527.952 85.7368C529.432 85.7654 530.924 85.7915 532.427 85.8151C532.687 85.8282 532.931 85.9413 533.11 86.1308C533.288 86.3202 533.386 86.5714 533.384 86.8317C533.382 87.0921 533.279 87.3416 533.098 87.5281C532.917 87.7145 532.67 87.8235 532.411 87.8324ZM585.023 87.7038C584.755 87.7063 584.498 87.6023 584.307 87.4147C584.117 87.2271 584.008 86.9713 584.006 86.7036C584.003 86.4358 584.107 86.178 584.294 85.987C584.481 85.7959 584.737 85.6871 585.004 85.6847L589.479 85.5953H589.501C589.768 85.5926 590.026 85.6963 590.217 85.8837C590.407 86.0711 590.516 86.3268 590.519 86.5946C590.522 86.8624 590.418 87.1202 590.231 87.3115C590.044 87.5027 589.789 87.6117 589.522 87.6144C588.018 87.648 586.525 87.6784 585.041 87.7057L585.023 87.7038ZM520.994 87.6032H520.968C519.462 87.566 517.969 87.5263 516.488 87.484C516.353 87.4845 516.219 87.4578 516.094 87.4054C515.97 87.3531 515.857 87.2762 515.763 87.1793C515.668 87.0824 515.595 86.9676 515.545 86.8415C515.496 86.7155 515.473 86.5808 515.477 86.4456C515.481 86.3103 515.512 86.1772 515.568 86.0542C515.624 85.9312 515.704 85.8207 515.804 85.7294C515.904 85.6381 516.021 85.5678 516.148 85.5227C516.275 85.4776 516.41 85.4585 516.545 85.4667C518.024 85.5077 519.515 85.5468 521.018 85.5841C521.285 85.5873 521.54 85.6967 521.727 85.8884C521.914 86.08 522.017 86.338 522.014 86.6058C522.01 86.8735 521.901 87.1291 521.71 87.3161C521.519 87.5032 521.261 87.6065 520.994 87.6032ZM509.581 87.2661H509.546C508.039 87.2139 506.546 87.1599 505.067 87.104C504.8 87.0937 504.548 86.9774 504.366 86.7807C504.185 86.584 504.088 86.3231 504.099 86.0553C504.109 85.7876 504.225 85.5349 504.421 85.3529C504.618 85.1709 504.878 85.0745 505.145 85.0849C506.621 85.1432 508.109 85.1979 509.607 85.2488C509.739 85.2511 509.87 85.2795 509.991 85.3324C510.113 85.3853 510.223 85.4616 510.314 85.557C510.406 85.6524 510.479 85.765 510.527 85.8884C510.576 86.0118 510.599 86.1435 510.597 86.2761C510.595 86.4087 510.566 86.5395 510.514 86.6611C510.461 86.7827 510.385 86.8927 510.289 86.9848C510.194 87.0769 510.082 87.1493 509.959 87.1979C509.836 87.2465 509.704 87.2703 509.572 87.268L509.581 87.2661ZM498.168 86.8135H498.124C496.614 86.7464 495.121 86.6762 493.645 86.603C493.378 86.5896 493.127 86.4706 492.948 86.272C492.769 86.0734 492.675 85.8116 492.689 85.544C492.702 85.2765 492.821 85.0253 493.019 84.8456C493.217 84.6658 493.478 84.5723 493.745 84.5857C495.22 84.6589 496.708 84.7291 498.207 84.7962C498.34 84.7991 498.47 84.8281 498.591 84.8816C498.712 84.935 498.822 85.0119 498.913 85.1077C499.005 85.2035 499.076 85.3164 499.124 85.4401C499.172 85.5637 499.195 85.6955 499.193 85.8281C499.19 85.9607 499.161 86.0914 499.107 86.2128C499.054 86.3341 498.977 86.4438 498.882 86.5354C498.786 86.6271 498.673 86.699 498.55 86.747C498.427 86.7951 498.295 86.8183 498.163 86.8153L498.168 86.8135ZM486.768 86.2342H486.711C485.201 86.1485 483.71 86.0603 482.236 85.9697C481.969 85.9534 481.72 85.8316 481.543 85.631C481.366 85.4305 481.275 85.1677 481.291 84.9005C481.308 84.6332 481.429 84.3834 481.629 84.2059C481.83 84.0285 482.092 83.9379 482.359 83.9542C483.831 84.0461 485.318 84.1343 486.82 84.2187C487.081 84.2346 487.326 84.3515 487.503 84.5448C487.679 84.738 487.774 84.9925 487.767 85.2544C487.759 85.5163 487.651 85.7652 487.464 85.9483C487.277 86.1315 487.026 86.2347 486.765 86.236L486.768 86.2342ZM475.383 85.5208H475.313C473.806 85.4164 472.318 85.309 470.851 85.1985C470.719 85.1886 470.59 85.1527 470.472 85.093C470.354 85.0333 470.249 84.9508 470.162 84.8503C470.076 84.7498 470.01 84.6332 469.969 84.5073C469.928 84.3814 469.911 84.2485 469.921 84.1163C469.941 83.8493 470.066 83.6011 470.269 83.4265C470.369 83.34 470.485 83.2742 470.611 83.2327C470.737 83.1913 470.869 83.175 471.001 83.1849C472.47 83.2942 473.957 83.401 475.463 83.5053C475.725 83.5212 475.971 83.639 476.148 83.8337C476.325 84.0283 476.419 84.2845 476.41 84.5476C476.401 84.8106 476.29 85.0597 476.1 85.2419C475.91 85.424 475.657 85.5248 475.394 85.5226L475.383 85.5208ZM464.006 84.6546H463.92C462.411 84.5304 460.923 84.4013 459.458 84.2672C459.192 84.2425 458.947 84.1128 458.776 83.9067C458.605 83.7006 458.523 83.4349 458.547 83.1682C458.572 82.9014 458.702 82.6554 458.907 82.4842C459.113 82.313 459.378 82.2308 459.644 82.2555C461.109 82.3883 462.597 82.5169 464.106 82.641C464.365 82.6633 464.604 82.7846 464.776 82.9796C464.947 83.1746 465.037 83.4283 465.027 83.6879C465.016 83.9476 464.906 84.1931 464.719 84.3736C464.533 84.554 464.284 84.6553 464.024 84.6565L464.006 84.6546ZM452.637 83.6171H452.537C451.028 83.4656 449.54 83.3128 448.075 83.1589C447.81 83.1307 447.566 82.9979 447.398 82.7897C447.23 82.5815 447.151 82.315 447.179 82.0487C447.207 81.7824 447.34 81.5382 447.548 81.3699C447.755 81.2015 448.021 81.1227 448.287 81.1509C449.746 81.3049 451.228 81.457 452.734 81.6072C452.994 81.6294 453.235 81.7518 453.407 81.9487C453.579 82.1455 453.668 82.4014 453.655 82.6626C453.642 82.9237 453.529 83.1697 453.339 83.3488C453.149 83.5279 452.897 83.6261 452.636 83.6227L452.637 83.6171ZM441.297 82.3877C441.258 82.3877 441.219 82.3877 441.18 82.3877C439.693 82.2126 438.196 82.0319 436.718 81.8475C436.453 81.8142 436.212 81.6766 436.048 81.4651C435.884 81.2536 435.81 80.9854 435.843 80.7197C435.877 80.4539 436.014 80.2122 436.225 80.0479C436.436 79.8835 436.704 79.8099 436.969 79.8433C438.432 80.0295 439.925 80.2158 441.405 80.3816C441.663 80.4087 441.9 80.5343 442.068 80.7322C442.236 80.9301 442.321 81.1852 442.306 81.4444C442.291 81.7036 442.176 81.947 441.987 82.1241C441.797 82.3012 441.547 82.3982 441.288 82.3952L441.297 82.3877ZM429.975 80.9404C429.93 80.944 429.884 80.944 429.838 80.9404C428.35 80.7336 426.85 80.5213 425.396 80.3071C425.132 80.2681 424.894 80.1253 424.734 79.9103C424.575 79.6953 424.507 79.4256 424.546 79.1606C424.585 78.8956 424.727 78.6569 424.942 78.4971C425.156 78.3373 425.426 78.2694 425.69 78.3084C427.136 78.5226 428.626 78.735 430.113 78.9399C430.366 78.9746 430.597 79.1043 430.758 79.3028C430.919 79.5013 430.999 79.7538 430.982 80.0092C430.964 80.2646 430.85 80.5038 430.664 80.6784C430.477 80.853 430.231 80.95 429.975 80.9497V80.9404ZM418.691 79.2435C418.636 79.2438 418.582 79.2394 418.529 79.2304C417.042 78.9902 415.554 78.7387 414.104 78.4854C413.973 78.4643 413.846 78.4172 413.733 78.3468C413.619 78.2765 413.521 78.1842 413.443 78.0754C413.366 77.9667 413.31 77.8435 413.281 77.7132C413.251 77.5828 413.247 77.4478 413.27 77.3161C413.293 77.1843 413.342 77.0585 413.413 76.9457C413.485 76.833 413.579 76.7356 413.688 76.6593C413.798 76.583 413.921 76.5293 414.052 76.5013C414.182 76.4732 414.317 76.4714 414.448 76.496C415.893 76.7475 417.374 76.9971 418.852 77.2411C419.102 77.2817 419.328 77.4152 419.484 77.6149C419.64 77.8147 419.716 78.066 419.695 78.3189C419.675 78.5718 419.56 78.8078 419.374 78.9798C419.188 79.1518 418.944 79.2473 418.691 79.2472V79.2435ZM407.454 77.2523C407.392 77.2512 407.33 77.245 407.269 77.2336C405.781 76.9487 404.309 76.6525 402.868 76.3563C402.738 76.3297 402.615 76.2777 402.506 76.2033C402.396 76.129 402.302 76.0338 402.229 75.9231C402.157 75.8124 402.106 75.6884 402.081 75.5582C402.056 75.428 402.057 75.2941 402.084 75.1642C402.11 75.0343 402.162 74.9109 402.236 74.8011C402.31 74.6913 402.405 74.5973 402.516 74.5243C402.626 74.4513 402.75 74.4008 402.88 74.3757C403.01 74.3507 403.144 74.3515 403.273 74.3781C404.707 74.6743 406.179 74.9667 407.65 75.2499C407.897 75.2956 408.118 75.4325 408.27 75.6335C408.422 75.8345 408.493 76.0852 408.47 76.3362C408.447 76.5872 408.331 76.8204 408.144 76.9899C407.958 77.1595 407.715 77.253 407.464 77.2523H407.454ZM396.3 74.8997C396.224 74.9002 396.147 74.8915 396.073 74.8736C394.586 74.5327 393.123 74.1826 391.704 73.8305C391.574 73.8001 391.452 73.7441 391.343 73.6658C391.235 73.5875 391.143 73.4884 391.074 73.3743C391.004 73.2603 390.958 73.1334 390.937 73.0012C390.917 72.869 390.923 72.7341 390.955 72.6042C390.987 72.4744 391.045 72.3522 391.125 72.2449C391.204 72.1376 391.304 72.0471 391.419 71.9789C391.534 71.9107 391.661 71.866 391.794 71.8475C391.926 71.829 392.06 71.8369 392.19 71.871C393.595 72.2193 395.054 72.5676 396.525 72.9066C396.766 72.9625 396.978 73.1052 397.12 73.3075C397.263 73.5097 397.326 73.7575 397.299 74.0036C397.271 74.2497 397.154 74.477 396.97 74.6422C396.785 74.8074 396.547 74.8991 396.3 74.8997ZM385.233 72.0889C385.141 72.0884 385.049 72.0759 384.96 72.0516C383.485 71.6381 382.033 71.2134 380.645 70.7887C380.389 70.7107 380.175 70.5341 380.049 70.2977C379.923 70.0614 379.897 69.7848 379.974 69.5286C380.052 69.2725 380.229 69.0578 380.464 68.9319C380.7 68.806 380.976 68.7791 381.232 68.8571C382.608 69.2762 384.043 69.6972 385.508 70.107C385.742 70.1726 385.945 70.321 386.079 70.5248C386.213 70.7286 386.268 70.974 386.235 71.2156C386.202 71.4573 386.083 71.6788 385.9 71.8393C385.717 71.9999 385.482 72.0885 385.238 72.0889H385.233ZM374.353 68.6653C374.239 68.6652 374.125 68.6456 374.017 68.6075C372.55 68.0841 371.13 67.5514 369.797 67.0186C369.67 66.9725 369.554 66.9013 369.455 66.8094C369.357 66.7174 369.277 66.6065 369.222 66.4833C369.167 66.3601 369.137 66.227 369.134 66.092C369.131 65.957 369.155 65.8227 369.205 65.6972C369.255 65.5716 369.329 65.4574 369.424 65.3612C369.518 65.265 369.631 65.1888 369.756 65.1371C369.88 65.0854 370.014 65.0593 370.149 65.0603C370.284 65.0613 370.417 65.0894 370.541 65.1429C371.842 65.6645 373.245 66.1897 374.69 66.7038C374.914 66.7833 375.103 66.9397 375.224 67.1454C375.344 67.3511 375.388 67.5928 375.347 67.8276C375.306 68.0625 375.184 68.2755 375.002 68.4288C374.82 68.5821 374.59 68.6659 374.352 68.6653H374.353ZM363.844 64.2656C363.686 64.2662 363.531 64.2291 363.391 64.1576C360.585 62.7307 359.429 61.8385 359.382 61.8012C359.174 61.6361 359.039 61.3951 359.007 61.1309C358.975 60.8666 359.049 60.6004 359.212 60.3902C359.375 60.18 359.614 60.0428 359.878 60.0084C360.141 59.9741 360.407 60.0454 360.619 60.2068C360.639 60.2235 361.714 61.0413 364.301 62.3563C364.503 62.4592 364.664 62.6272 364.759 62.8332C364.854 63.0391 364.877 63.2711 364.824 63.4916C364.771 63.7122 364.646 63.9085 364.468 64.0489C364.29 64.1893 364.07 64.2656 363.844 64.2656Z" fill="#112F4A"/>
<path d="M294.8 1.46523C294.323 3.31566 294.055 5.2137 294 7.12386C294.022 7.86622 294.015 8.60857 294.074 9.35093C294.445 14.0519 296.168 18.2815 298.701 22.2067C301.808 27.019 305.822 30.9888 310.304 34.502C311.061 35.0959 311.418 35.6749 311.516 36.6845C312.049 42.5046 314.604 47.4487 318.331 51.8583C318.56 52.1559 318.879 52.3711 319.241 52.4715C319.603 52.5719 319.987 52.5521 320.337 52.4151C320.694 52.3034 321.006 52.0817 321.229 51.7816C321.452 51.4816 321.574 51.1186 321.579 50.7448C321.634 49.8039 321.671 48.8592 321.764 47.922C321.95 46.0865 322.195 44.264 322.726 42.4916C322.807 42.2207 322.855 41.9182 323.219 41.8347C324.839 41.4353 326.365 40.7256 327.714 39.7449C328.041 39.5185 328.249 39.5593 328.512 39.8488C329.227 40.6246 329.965 41.3818 330.71 42.1316C331.929 43.362 333.482 43.3175 334.815 42.0314C336.114 40.7842 336.181 39.2308 335 37.9762C334.291 37.2227 333.583 36.4693 332.844 35.7492C332.521 35.4355 332.504 35.2054 332.779 34.8472C333.713 33.6625 334.42 32.3154 334.865 30.8737C335.019 30.3559 335.262 30.111 335.793 29.9922C338.409 29.437 341.08 29.1798 343.755 29.2257C344.664 29.2257 345.314 28.8156 345.625 28.0584C345.937 27.3011 345.757 26.5402 345.069 25.9278C340.603 21.9098 335.546 19.1334 329.462 18.5302C329.308 18.5201 329.158 18.4743 329.024 18.3964C328.891 18.3184 328.777 18.2105 328.692 18.0811C327.879 16.9675 327.07 15.8688 326.207 14.8054C322.339 10.0376 317.974 5.84143 312.474 2.97408C307.188 0.221784 301.639 -0.713587 295.771 0.561412C295.238 0.676478 294.945 0.880625 294.8 1.46523ZM320.658 41.8161C319.94 44.2417 319.682 46.7398 319.481 49.2397C319.453 49.4048 319.416 49.5684 319.37 49.7296C316.371 45.9436 314.43 41.8792 313.706 37.078C314.721 37.7461 315.597 38.3493 316.503 38.9098C317.761 39.6892 319.038 40.439 320.311 41.1944C320.552 41.3447 320.766 41.456 320.658 41.8161ZM322.395 39.8321C321.705 39.5199 321.04 39.1531 320.408 38.7353C320.222 38.6258 320.408 38.5033 320.515 38.4439C321.88 37.7226 323.193 36.9078 324.446 36.0053C324.475 35.9794 324.509 35.9602 324.547 35.9488C324.584 35.9374 324.623 35.9341 324.661 35.9392C324.7 35.9443 324.737 35.9577 324.77 35.9784C324.803 35.9991 324.831 36.0266 324.852 36.0591C325.363 36.5936 325.876 37.1256 326.389 37.6552C326.539 37.8111 326.59 37.9466 326.374 38.0876C325.17 38.8801 323.9 39.5259 322.395 39.8321ZM333.276 39.2865C333.445 39.461 333.659 39.615 333.647 39.9101C333.588 40.3574 333.256 40.6005 332.905 40.7916C332.554 40.9828 332.322 40.6951 332.105 40.4687C329.564 37.8333 327.024 35.1973 324.485 32.5607C323.409 31.4472 322.333 30.3337 321.259 29.2201C320.703 28.6411 320.717 28.4425 321.207 27.9359C321.697 27.4292 322.031 27.6018 322.442 28.0305C326.046 31.7856 329.655 35.5376 333.269 39.2865H333.276ZM332.916 29.2647C332.967 29.3646 332.996 29.4739 333.002 29.5856C333.009 29.6973 332.992 29.8092 332.953 29.9142C332.567 31.1606 331.982 32.3363 331.22 33.3959C331.034 33.6613 330.878 33.7355 330.663 33.4553L330.615 33.407C330.11 32.867 329.329 32.3937 329.175 31.7664C329.021 31.1391 329.906 30.6306 330.272 30.0256C330.793 29.1626 331.352 28.3237 331.942 27.3884C332.298 28.0788 332.603 28.6782 332.916 29.2702V29.2647ZM342.92 26.8743C342.793 27.1397 342.587 27.045 342.431 27.0599C339.987 27.1954 337.543 27.3234 335.16 27.9396C334.878 28.012 334.702 27.9748 334.561 27.6946C333.419 25.4527 332.148 23.2868 330.804 21.1581C330.772 21.0671 330.752 20.9723 330.745 20.876C335.399 21.7427 339.371 23.8622 342.92 26.8743ZM307.526 3.21905C311.794 4.64253 315.463 7.08303 318.772 10.0859C323.462 14.3322 327.209 19.3338 330.439 24.7474C330.515 24.8509 330.559 24.9749 330.565 25.1036C330.57 25.2322 330.537 25.3596 330.47 25.4694C329.755 26.8985 328.92 28.2644 327.974 29.5523C327.621 30.0367 327.399 30.1555 326.937 29.6377C325.949 28.5242 324.882 27.4997 323.863 26.4215C323.004 25.5121 321.991 25.2058 320.808 25.6345C319.626 26.0633 318.682 27.3698 318.657 28.5613C318.666 29.2902 318.961 29.9866 319.478 30.5007C320.558 31.6142 321.614 32.7482 322.716 33.8413C323.104 34.2273 323.037 34.3981 322.612 34.6765C321.267 35.5737 319.861 36.3767 318.405 37.0799C318.283 37.1559 318.142 37.1944 317.999 37.1904C317.856 37.1864 317.717 37.1402 317.6 37.0576C311.573 33.1268 306.082 28.604 301.765 22.7839C299.621 19.8924 297.944 16.7615 296.96 13.278C296.819 12.7788 296.912 12.5356 297.381 12.2758C301.122 10.2913 304.231 7.29929 306.358 3.63849C306.668 3.09842 306.971 3.03347 307.526 3.21905ZM304.556 2.50824C302.71 5.64595 300.078 8.24859 296.919 10.0599C296.548 10.2807 296.348 10.3271 296.292 9.77036C296.082 7.60233 296.179 5.41547 296.582 3.27473C296.684 2.71796 296.934 2.51381 297.493 2.42844C299.834 2.04896 302.224 2.07596 304.556 2.50824Z" fill="#112F4A"/>
<path d="M302.006 15.83C301.917 20.1913 305.223 23.6525 309.551 23.7323C311.085 23.7725 312.596 23.3562 313.893 22.5364C315.19 21.7166 316.214 20.5302 316.836 19.1275C317.458 17.7247 317.65 16.1689 317.387 14.6572C317.123 13.1456 316.417 11.7461 315.358 10.6362C314.298 9.52634 312.933 8.75606 311.435 8.423C309.937 8.08995 308.374 8.20913 306.944 8.76543C305.514 9.32173 304.281 10.2901 303.402 11.5478C302.523 12.8055 302.037 14.2958 302.006 15.83ZM315.211 16.1028C315.152 19.2578 312.711 21.6333 309.584 21.5758C308.118 21.5225 306.732 20.8954 305.724 19.8296C304.716 18.7638 304.168 17.3447 304.196 15.8782C304.225 14.4116 304.829 13.0151 305.878 11.9896C306.926 10.9641 308.336 10.3917 309.803 10.3959C312.901 10.459 315.267 12.957 315.211 16.1028ZM347.454 50.6521C347.448 50.9475 347.412 51.2416 347.348 51.5299C347.001 53.1 346.112 53.7366 345.427 53.9946C343.133 54.8594 339.859 52.8235 338.72 52.0292C338.749 52.7177 338.673 53.6011 337.87 54.0818C336.326 55.0097 335.134 54.2266 333.753 53.3246L333.382 53.0852C331.031 51.5652 329.362 48.7424 329.67 46.79C329.732 46.3175 329.936 45.8751 330.257 45.5222C330.577 45.1692 330.997 44.9226 331.461 44.8153C333.816 44.1713 336.164 43.2044 336.732 39.1938V39.1418L336.747 39.0917C337.164 37.6367 338.079 37.1152 338.774 36.9333C340.789 36.4081 343.413 38.0951 344.69 39.3571C346.386 41.0367 347.845 42.4843 347.431 43.7408C347.235 44.3365 346.689 44.704 345.787 44.8302C345.143 44.9211 344.872 45.0362 344.77 45.0956C344.853 45.3461 345.245 45.8658 345.538 46.2555C346.381 47.3672 347.487 48.8389 347.454 50.6521ZM337.19 51.2311C337.19 50.8358 337.294 50.448 337.69 50.229C338.3 49.8875 338.954 50.3682 339.306 50.6261C341.079 51.9252 343.588 53.1019 344.904 52.6064C345.408 52.4208 345.735 51.9605 345.9 51.2089C346.244 49.6518 345.197 48.2636 344.356 47.1482C343.64 46.1961 343.02 45.3758 343.372 44.5239C343.703 43.724 344.725 43.4828 345.581 43.3621C345.732 43.3469 345.879 43.3075 346.017 43.2452C345.941 42.6885 344.404 41.1592 343.653 40.415C342.413 39.1864 340.342 38.058 339.15 38.3735C338.853 38.4496 338.434 38.6482 338.189 39.4592C337.513 44.0841 334.744 45.4575 331.851 46.2499C331.664 46.2822 331.492 46.375 331.362 46.5141C331.233 46.6532 331.152 46.8309 331.133 47.0201C330.947 48.2432 332.211 50.5649 334.189 51.8454L334.561 52.0904C335.923 52.9813 336.389 53.2429 337.101 52.8161C337.287 52.7066 337.237 52.109 337.209 51.7508C337.194 51.578 337.188 51.4046 337.19 51.2311Z" fill="#112F4A"/>
<path d="M337.923 48.9261C335.841 48.2932 335.039 46.8976 338.009 44.4144C340.978 41.9312 342.311 47.6845 342.487 49.1952C342.663 50.7059 339.926 49.533 337.923 48.9261Z" fill="#112F4A"/>
<path d="M121.136 459C120.733 459 120.348 458.84 120.063 458.556C119.779 458.271 119.619 457.885 119.619 457.482C119.619 457.08 119.779 456.694 120.063 456.409C120.348 456.125 120.733 455.965 121.136 455.965C123.344 455.945 125.596 455.895 127.852 455.816C128.054 455.804 128.257 455.832 128.448 455.9C128.639 455.967 128.814 456.072 128.964 456.209C129.114 456.345 129.235 456.51 129.32 456.694C129.405 456.878 129.452 457.077 129.459 457.279C129.466 457.482 129.432 457.684 129.36 457.873C129.288 458.062 129.178 458.235 129.038 458.381C128.898 458.528 128.73 458.644 128.544 458.725C128.358 458.805 128.158 458.847 127.956 458.849C125.689 458.93 123.408 458.98 121.175 459H121.136ZM110.686 458.882H110.636C108.352 458.807 106.071 458.698 103.852 458.558C103.451 458.532 103.076 458.348 102.81 458.046C102.544 457.743 102.409 457.348 102.435 456.946C102.46 456.544 102.644 456.169 102.946 455.903C103.248 455.637 103.644 455.502 104.045 455.528C106.231 455.665 108.484 455.774 110.734 455.847C111.136 455.853 111.519 456.019 111.799 456.308C112.079 456.597 112.233 456.986 112.227 457.389C112.22 457.791 112.054 458.175 111.766 458.455C111.477 458.735 111.088 458.889 110.686 458.882ZM138.316 458.294C137.926 458.289 137.554 458.134 137.276 457.861C136.998 457.588 136.835 457.219 136.822 456.83C136.808 456.441 136.944 456.061 137.203 455.77C137.461 455.478 137.821 455.298 138.209 455.265C140.412 455.108 142.664 454.92 144.898 454.705C145.292 454.678 145.681 454.807 145.982 455.064C146.283 455.321 146.472 455.685 146.508 456.079C146.545 456.473 146.426 456.865 146.177 457.173C145.929 457.481 145.57 457.679 145.178 457.726C142.919 457.936 140.647 458.124 138.422 458.286L138.316 458.294ZM93.5397 457.639C93.481 457.643 93.4221 457.643 93.3634 457.639C91.091 457.379 88.8242 457.079 86.6218 456.74C86.224 456.679 85.8666 456.463 85.6284 456.138C85.3901 455.814 85.2904 455.408 85.3513 455.01C85.4121 454.612 85.6286 454.254 85.9529 454.016C86.2772 453.777 86.6829 453.678 87.0808 453.738C89.244 454.069 91.4744 454.369 93.7104 454.623C94.0978 454.664 94.4546 454.853 94.7069 455.15C94.9593 455.446 95.0878 455.829 95.0658 456.218C95.0439 456.607 94.8732 456.973 94.589 457.24C94.3049 457.506 93.9292 457.653 93.5397 457.65V457.639ZM155.428 456.597C155.042 456.598 154.669 456.452 154.387 456.187C154.105 455.922 153.935 455.56 153.911 455.174C153.887 454.788 154.011 454.407 154.258 454.109C154.506 453.812 154.857 453.62 155.241 453.573C157.452 453.293 159.688 452.985 161.89 452.66C162.089 452.626 162.293 452.632 162.49 452.678C162.687 452.724 162.872 452.809 163.036 452.927C163.2 453.046 163.338 453.196 163.443 453.369C163.548 453.542 163.617 453.734 163.647 453.934C163.676 454.134 163.666 454.337 163.615 454.533C163.565 454.729 163.476 454.913 163.354 455.074C163.232 455.235 163.079 455.37 162.904 455.471C162.729 455.572 162.536 455.637 162.335 455.662C160.11 455.993 157.857 456.301 155.619 456.583C155.555 456.59 155.492 456.593 155.428 456.592V456.597ZM76.578 454.845C76.4678 454.845 76.358 454.833 76.2506 454.808C74.0118 454.318 71.773 453.775 69.6321 453.198C69.4397 453.146 69.2594 453.057 69.1014 452.936C68.9434 452.814 68.8109 452.663 68.7114 452.49C68.6118 452.318 68.5473 452.127 68.5214 451.93C68.4954 451.732 68.5087 451.531 68.5603 451.339C68.6119 451.146 68.701 450.966 68.8223 450.808C68.9436 450.65 69.0949 450.517 69.2674 450.417C69.44 450.318 69.6304 450.253 69.8279 450.227C70.0254 450.201 70.2261 450.215 70.4185 450.266C72.523 450.826 74.703 451.361 76.8998 451.843C77.2666 451.921 77.5912 452.133 77.8111 452.437C78.031 452.741 78.1306 453.116 78.0906 453.489C78.0506 453.862 77.8738 454.207 77.5945 454.457C77.3152 454.708 76.953 454.846 76.578 454.845ZM172.429 453.979C172.05 453.98 171.685 453.84 171.405 453.585C171.124 453.33 170.949 452.98 170.914 452.602C170.879 452.225 170.987 451.848 171.215 451.546C171.444 451.244 171.777 451.038 172.149 450.969C174.408 450.557 176.627 450.129 178.737 449.689C178.934 449.643 179.139 449.636 179.339 449.67C179.539 449.703 179.73 449.777 179.901 449.886C180.072 449.995 180.22 450.137 180.335 450.304C180.45 450.471 180.531 450.659 180.572 450.858C180.613 451.057 180.614 451.262 180.575 451.461C180.535 451.66 180.457 451.849 180.343 452.017C180.229 452.185 180.083 452.328 179.913 452.439C179.743 452.55 179.552 452.625 179.353 452.66C177.217 453.103 174.976 453.54 172.692 453.954C172.605 453.968 172.517 453.975 172.429 453.974V453.979ZM60.0557 450.137C59.8811 450.137 59.7078 450.107 59.5436 450.048C57.3775 449.269 55.2395 448.432 53.1882 447.553C52.8171 447.395 52.524 447.095 52.3734 446.721C52.2227 446.347 52.2269 445.928 52.385 445.556C52.5431 445.185 52.8422 444.892 53.2164 444.741C53.5905 444.59 54.0092 444.595 54.3803 444.753C56.3785 445.61 58.4605 446.433 60.5678 447.183C60.9037 447.304 61.1862 447.54 61.3656 447.849C61.545 448.157 61.6099 448.52 61.5487 448.871C61.4875 449.223 61.3042 449.542 61.0312 449.772C60.7581 450.002 60.4127 450.129 60.0557 450.129V450.137ZM44.4065 443.089C44.1488 443.088 43.8957 443.022 43.6705 442.896C41.6584 441.776 39.6854 440.58 37.8133 439.343C37.4774 439.12 37.2438 438.773 37.1637 438.378C37.0837 437.982 37.1638 437.572 37.3865 437.236C37.6091 436.9 37.9561 436.666 38.351 436.586C38.7459 436.506 39.1565 436.586 39.4924 436.809C41.303 438.004 43.2087 439.161 45.1565 440.244C45.4507 440.408 45.6823 440.664 45.8149 440.974C45.9475 441.283 45.9736 441.628 45.889 441.953C45.8043 442.279 45.6139 442.568 45.3476 442.773C45.0812 442.979 44.7541 443.09 44.4177 443.089H44.4065ZM30.3077 433.317C29.9451 433.317 29.5943 433.187 29.3198 432.95C27.5792 431.455 25.8917 429.87 24.3049 428.254C24.1654 428.112 24.0554 427.943 23.9809 427.758C23.9065 427.574 23.8692 427.376 23.8712 427.177C23.8731 426.977 23.9143 426.78 23.9923 426.597C24.0703 426.413 24.1837 426.247 24.3259 426.108C24.4681 425.968 24.6364 425.858 24.8212 425.783C25.006 425.709 25.2036 425.672 25.4028 425.674C25.602 425.676 25.7988 425.717 25.9821 425.795C26.1654 425.873 26.3315 425.986 26.4709 426.129C27.9961 427.688 29.6193 429.209 31.2956 430.648C31.5304 430.85 31.6978 431.119 31.7753 431.419C31.8528 431.719 31.8367 432.036 31.7291 432.326C31.6216 432.617 31.4277 432.867 31.1736 433.044C30.9195 433.222 30.6174 433.317 30.3077 433.317ZM18.624 420.761C18.3865 420.761 18.1523 420.706 17.9403 420.599C17.7283 420.492 17.5445 420.336 17.4038 420.145C16.0549 418.313 14.7649 416.395 13.5755 414.438C13.4666 414.268 13.3928 414.077 13.3585 413.878C13.3241 413.679 13.33 413.474 13.3756 413.277C13.4212 413.08 13.5057 412.895 13.6242 412.731C13.7426 412.567 13.8925 412.428 14.0652 412.323C14.2379 412.218 14.4299 412.149 14.6298 412.119C14.8296 412.089 15.0335 412.1 15.2292 412.15C15.425 412.2 15.6089 412.289 15.7699 412.411C15.9309 412.533 16.0659 412.686 16.1669 412.861C17.3115 414.74 18.5484 416.583 19.8441 418.341C20.0109 418.567 20.1118 418.835 20.1354 419.115C20.1591 419.395 20.1046 419.676 19.9781 419.927C19.8517 420.178 19.6581 420.388 19.419 420.536C19.1799 420.683 18.9047 420.761 18.624 420.761ZM10.0214 405.92C9.73134 405.92 9.44741 405.836 9.20299 405.68C8.95857 405.524 8.76385 405.301 8.64175 405.038C7.67347 402.935 6.77795 400.818 5.97478 398.74C5.89298 398.553 5.84995 398.35 5.84828 398.146C5.8466 397.941 5.88633 397.738 5.96504 397.549C6.04376 397.36 6.15983 397.189 6.30631 397.046C6.4528 396.903 6.62668 396.792 6.81744 396.718C7.00819 396.644 7.21192 396.609 7.41635 396.616C7.62079 396.623 7.82171 396.672 8.00704 396.758C8.19236 396.845 8.35826 396.968 8.49476 397.12C8.63125 397.273 8.73549 397.451 8.80125 397.645C9.58203 399.664 10.4552 401.722 11.3983 403.766C11.4815 403.948 11.5283 404.143 11.536 404.342C11.5437 404.542 11.512 404.74 11.4429 404.927C11.3737 405.114 11.2685 405.286 11.1331 405.432C10.9977 405.578 10.8349 405.696 10.6539 405.78C10.4556 405.871 10.2397 405.918 10.0214 405.917V405.92ZM4.14455 389.777C3.81154 389.777 3.48781 389.667 3.22329 389.465C2.95878 389.262 2.76819 388.978 2.68095 388.657C2.08766 386.417 1.58955 384.176 1.19496 381.953C1.13316 381.561 1.22759 381.16 1.458 380.836C1.68842 380.512 2.03644 380.292 2.42733 380.223C2.81822 380.153 3.22084 380.239 3.54871 380.464C3.87658 380.688 4.10355 381.031 4.18093 381.421C4.56153 383.549 5.04287 385.722 5.61376 387.884C5.71608 388.273 5.6598 388.687 5.45723 389.034C5.25467 389.382 4.92241 389.635 4.53355 389.738C4.40686 389.766 4.2771 389.778 4.14735 389.774L4.14455 389.777ZM1.56155 372.808C1.16927 372.807 0.792428 372.655 0.510131 372.382C0.227834 372.11 0.0620617 371.738 0.0475867 371.346C0.0168033 370.506 0 369.635 0 368.792C0 367.344 0.0475717 365.886 0.137123 364.455C0.149619 364.256 0.201137 364.061 0.288766 363.882C0.376394 363.703 0.498413 363.543 0.647835 363.411C0.797257 363.28 0.971173 363.178 1.15964 363.114C1.34811 363.049 1.54744 363.022 1.74626 363.035C1.94508 363.048 2.13949 363.099 2.31839 363.187C2.49729 363.274 2.65718 363.397 2.78893 363.546C2.92068 363.696 3.02173 363.87 3.08627 364.058C3.15081 364.247 3.17757 364.446 3.16508 364.645C3.07833 366.014 3.03356 367.409 3.03356 368.792C3.03356 369.599 3.05036 370.419 3.07834 371.237C3.09271 371.639 2.94688 372.03 2.67295 372.325C2.39902 372.619 2.01941 372.793 1.61754 372.808H1.56155ZM3.1371 355.746C3.02314 355.745 2.90961 355.732 2.79849 355.707C2.60426 355.663 2.42064 355.58 2.25813 355.465C2.09562 355.35 1.9574 355.204 1.85137 355.035C1.74534 354.866 1.67359 354.678 1.64019 354.482C1.60678 354.285 1.61241 354.084 1.65672 353.89C2.16798 351.649 2.79663 349.436 3.5401 347.262C3.59825 347.066 3.69536 346.883 3.82566 346.726C3.95595 346.568 4.11673 346.439 4.29831 346.345C4.4799 346.251 4.67856 346.195 4.88237 346.18C5.08618 346.165 5.29093 346.191 5.48432 346.257C5.67772 346.323 5.85578 346.428 6.00781 346.564C6.15984 346.701 6.28271 346.867 6.36903 347.052C6.45535 347.238 6.50333 347.439 6.51012 347.643C6.51691 347.847 6.48238 348.051 6.40856 348.242C5.70174 350.317 5.10298 352.427 4.61471 354.564C4.53819 354.899 4.35075 355.197 4.08293 355.411C3.8151 355.625 3.48269 355.742 3.1399 355.743L3.1371 355.746ZM9.12028 339.698C8.87264 339.697 8.62887 339.637 8.40949 339.522C8.05442 339.333 7.78875 339.011 7.67072 338.626C7.55269 338.241 7.59193 337.825 7.77983 337.469C8.84046 335.467 10.0186 333.473 11.2947 331.544C11.3983 331.364 11.5377 331.207 11.7042 331.083C11.8708 330.96 12.061 330.871 12.2631 330.824C12.4652 330.776 12.6749 330.771 12.8791 330.808C13.0834 330.845 13.2779 330.923 13.4506 331.039C13.6233 331.154 13.7705 331.303 13.8832 331.478C13.9958 331.652 14.0715 331.848 14.1055 332.053C14.1395 332.258 14.1311 332.467 14.0809 332.669C14.0306 332.87 13.9396 333.059 13.8134 333.224C12.5932 335.072 11.4626 336.982 10.4552 338.897C10.3258 339.138 10.1337 339.34 9.89916 339.48C9.66463 339.621 9.39644 339.695 9.12309 339.695L9.12028 339.698ZM18.8926 325.599C18.6006 325.6 18.3147 325.516 18.0691 325.358C17.8235 325.2 17.6288 324.974 17.5082 324.708C17.3877 324.442 17.3464 324.147 17.3894 323.858C17.4325 323.569 17.558 323.299 17.7508 323.079C19.2312 321.399 20.8292 319.719 22.4663 318.1C22.6089 317.961 22.7775 317.851 22.9626 317.777C23.1476 317.703 23.3454 317.666 23.5448 317.668C23.7441 317.671 23.941 317.712 24.1242 317.791C24.3075 317.869 24.4735 317.983 24.6127 318.126C24.752 318.268 24.8619 318.437 24.936 318.622C25.0101 318.807 25.0471 319.005 25.0447 319.205C25.0424 319.404 25.0008 319.601 24.9223 319.785C24.8439 319.968 24.7302 320.134 24.5876 320.273C22.9924 321.83 21.4616 323.446 20.0344 325.079C19.8923 325.241 19.7172 325.371 19.5208 325.461C19.3244 325.55 19.1112 325.596 18.8954 325.597L18.8926 325.599ZM31.3963 313.839C31.0805 313.839 30.7726 313.74 30.5154 313.557C30.2583 313.373 30.0647 313.114 29.9618 312.815C29.8589 312.517 29.8517 312.193 29.9413 311.89C30.0309 311.587 30.2128 311.32 30.4616 311.125C32.2247 309.745 34.08 308.387 35.9774 307.087C36.3094 306.876 36.7106 306.801 37.0962 306.88C37.4819 306.959 37.8218 307.185 38.0442 307.51C38.2665 307.835 38.3539 308.234 38.2878 308.622C38.2217 309.01 38.0074 309.358 37.6901 309.591C35.8459 310.854 34.0521 312.175 32.3282 313.511C32.0641 313.721 31.7366 313.836 31.3991 313.836L31.3963 313.839ZM45.7134 304.349C45.3774 304.35 45.0507 304.239 44.7845 304.034C44.5182 303.829 44.3275 303.541 44.2423 303.216C44.1572 302.891 44.1823 302.546 44.3138 302.237C44.4454 301.928 44.6758 301.671 44.969 301.507C46.9279 300.412 48.9457 299.339 50.9998 298.323C51.3585 298.157 51.7678 298.138 52.1405 298.269C52.5132 298.401 52.8199 298.672 52.9953 299.027C53.1707 299.381 53.201 299.79 53.0797 300.166C52.9584 300.543 52.6951 300.857 52.3459 301.042C50.3393 302.036 48.3552 303.083 46.469 304.153C46.2391 304.281 45.9796 304.348 45.7162 304.346L45.7134 304.349ZM61.2059 296.917C60.8552 296.914 60.5163 296.79 60.2469 296.565C59.9775 296.341 59.7942 296.03 59.7282 295.685C59.6623 295.34 59.7177 294.984 59.885 294.675C60.0524 294.367 60.3213 294.126 60.6462 293.994C62.7198 293.154 64.8607 292.336 67.0099 291.572C67.3892 291.437 67.8064 291.458 68.1699 291.631C68.5333 291.804 68.8132 292.115 68.9479 292.494C69.0826 292.874 69.0612 293.291 68.8882 293.655C68.7153 294.019 68.4051 294.299 68.0258 294.433C65.9185 295.181 63.8281 295.979 61.7852 296.805C61.6021 296.879 61.4061 296.916 61.2087 296.914L61.2059 296.917ZM77.4623 291.348C77.0955 291.348 76.7407 291.216 76.4639 290.975C76.1871 290.734 76.0069 290.401 75.9566 290.038C75.9064 289.674 75.9897 289.304 76.1909 288.997C76.3921 288.691 76.6976 288.467 77.0509 288.368C79.2114 287.755 81.425 287.175 83.6302 286.643C84.0213 286.549 84.4339 286.614 84.7772 286.824C85.1204 287.034 85.3662 287.372 85.4604 287.763C85.5547 288.155 85.4897 288.567 85.2798 288.911C85.0698 289.254 84.7322 289.5 84.341 289.595C82.175 290.115 80.0006 290.687 77.8765 291.275C77.7433 291.317 77.6048 291.341 77.4651 291.345L77.4623 291.348ZM94.2141 287.489C93.8326 287.494 93.463 287.355 93.1792 287.1C92.8953 286.845 92.7181 286.492 92.6828 286.112C92.6475 285.732 92.7567 285.352 92.9887 285.049C93.2206 284.746 93.5583 284.541 93.9343 284.476C96.1451 284.081 98.4119 283.72 100.651 283.403C100.851 283.37 101.055 283.376 101.253 283.423C101.45 283.469 101.636 283.555 101.8 283.675C101.963 283.795 102.101 283.946 102.205 284.12C102.31 284.294 102.378 284.487 102.406 284.688C102.434 284.889 102.422 285.094 102.37 285.29C102.318 285.486 102.227 285.67 102.103 285.83C101.978 285.99 101.823 286.124 101.646 286.223C101.47 286.323 101.275 286.385 101.073 286.408C98.868 286.719 96.646 287.074 94.4716 287.464C94.3875 287.478 94.3023 287.486 94.2169 287.486L94.2141 287.489ZM111.263 285.249C110.863 285.261 110.475 285.115 110.183 284.843C109.891 284.571 109.717 284.194 109.701 283.795C109.684 283.395 109.826 283.006 110.094 282.71C110.363 282.415 110.738 282.237 111.137 282.216C113.375 282.029 115.67 281.88 117.929 281.774C118.33 281.755 118.723 281.896 119.021 282.167C119.319 282.438 119.496 282.816 119.515 283.219C119.534 283.621 119.393 284.014 119.122 284.312C118.851 284.609 118.473 284.787 118.071 284.806C115.849 284.91 113.594 285.056 111.388 285.243L111.263 285.249ZM128.456 284.56C128.257 284.561 128.06 284.524 127.875 284.449C127.691 284.374 127.523 284.263 127.381 284.123C127.239 283.983 127.126 283.817 127.048 283.633C126.971 283.45 126.93 283.253 126.928 283.053C126.927 282.854 126.965 282.656 127.04 282.472C127.115 282.287 127.225 282.119 127.365 281.977C127.505 281.835 127.671 281.722 127.855 281.644C128.038 281.567 128.235 281.526 128.434 281.524C130.511 281.496 132.761 281.462 135.187 281.421H135.212C135.614 281.418 136.001 281.575 136.288 281.857C136.574 282.14 136.737 282.525 136.74 282.927C136.743 283.33 136.586 283.717 136.304 284.004C136.021 284.291 135.637 284.453 135.234 284.456C132.809 284.495 130.557 284.53 128.479 284.56H128.456ZM145.698 284.28C145.296 284.284 144.908 284.127 144.621 283.845C144.334 283.563 144.171 283.179 144.167 282.776C144.164 282.374 144.32 281.986 144.602 281.699C144.883 281.412 145.268 281.248 145.67 281.244C147.83 281.205 150.081 281.161 152.423 281.113H152.454C152.856 281.109 153.243 281.265 153.531 281.546C153.818 281.828 153.982 282.213 153.986 282.615C153.99 283.018 153.834 283.405 153.552 283.693C153.271 283.98 152.887 284.144 152.484 284.148C150.141 284.197 147.888 284.241 145.726 284.28H145.698ZM162.928 283.93C162.526 283.934 162.139 283.778 161.851 283.496C161.564 283.214 161.4 282.83 161.396 282.428C161.392 282.025 161.548 281.637 161.83 281.35C162.111 281.062 162.495 280.899 162.898 280.894L169.645 280.743H169.681C170.083 280.739 170.471 280.894 170.759 281.176C171.046 281.457 171.21 281.842 171.215 282.244C171.219 282.647 171.064 283.034 170.782 283.322C170.501 283.61 170.117 283.774 169.715 283.779L162.962 283.93H162.928ZM180.15 283.532C179.748 283.537 179.36 283.382 179.072 283.101C178.785 282.819 178.62 282.435 178.615 282.033C178.61 281.63 178.766 281.242 179.047 280.954C179.328 280.666 179.712 280.502 180.114 280.497L186.861 280.329C187.263 280.319 187.653 280.469 187.945 280.747C188.236 281.024 188.406 281.406 188.416 281.809C188.426 282.211 188.275 282.601 187.998 282.893C187.721 283.185 187.339 283.354 186.937 283.364L180.187 283.532H180.15ZM197.364 283.09C196.962 283.095 196.574 282.94 196.286 282.659C195.997 282.378 195.833 281.994 195.827 281.592C195.822 281.189 195.977 280.801 196.258 280.513C196.539 280.225 196.922 280.06 197.325 280.054L204.069 279.872C204.272 279.86 204.475 279.889 204.667 279.957C204.859 280.025 205.035 280.13 205.185 280.268C205.335 280.405 205.456 280.571 205.54 280.757C205.625 280.942 205.671 281.142 205.677 281.345C205.683 281.549 205.647 281.751 205.573 281.941C205.499 282.13 205.387 282.303 205.245 282.448C205.103 282.594 204.933 282.709 204.745 282.788C204.558 282.866 204.356 282.906 204.153 282.905L197.406 283.09H197.364ZM214.572 282.608C214.18 282.598 213.808 282.436 213.533 282.157C213.258 281.878 213.101 281.504 213.096 281.112C213.09 280.72 213.237 280.342 213.504 280.055C213.771 279.769 214.139 279.597 214.53 279.576L221.274 279.377C221.477 279.364 221.68 279.393 221.872 279.461C222.063 279.528 222.239 279.634 222.389 279.771C222.539 279.908 222.66 280.074 222.745 280.259C222.83 280.444 222.876 280.644 222.882 280.847C222.888 281.05 222.853 281.252 222.78 281.442C222.706 281.631 222.595 281.804 222.454 281.95C222.312 282.096 222.142 282.211 221.955 282.29C221.768 282.369 221.567 282.41 221.364 282.409L214.617 282.608H214.572ZM231.777 282.09C231.578 282.093 231.38 282.057 231.195 281.983C231.01 281.91 230.841 281.8 230.698 281.661C230.409 281.381 230.244 280.997 230.238 280.595C230.232 280.192 230.386 279.804 230.666 279.515C230.946 279.226 231.33 279.061 231.732 279.055C233.96 278.986 236.207 278.914 238.474 278.839C238.673 278.833 238.871 278.866 239.058 278.936C239.244 279.006 239.415 279.113 239.561 279.249C239.706 279.385 239.823 279.549 239.905 279.731C239.987 279.912 240.033 280.109 240.039 280.308C240.046 280.507 240.013 280.706 239.943 280.892C239.872 281.079 239.766 281.25 239.63 281.395C239.494 281.541 239.33 281.658 239.148 281.74C238.967 281.822 238.771 281.868 238.572 281.874C236.303 281.947 234.054 282.018 231.824 282.087L231.777 282.09ZM248.979 281.53C248.577 281.537 248.189 281.383 247.899 281.103C247.61 280.824 247.444 280.44 247.437 280.038C247.431 279.635 247.584 279.246 247.864 278.957C248.143 278.668 248.527 278.501 248.929 278.495C251.168 278.422 253.416 278.345 255.673 278.265C256.076 278.251 256.467 278.398 256.761 278.673C257.055 278.948 257.228 279.328 257.242 279.731C257.256 280.134 257.109 280.525 256.834 280.819C256.559 281.114 256.179 281.287 255.777 281.3L249.032 281.53H248.979ZM266.179 280.934C265.776 280.941 265.388 280.788 265.098 280.508C264.809 280.228 264.642 279.845 264.635 279.443C264.628 279.04 264.781 278.651 265.061 278.362C265.34 278.072 265.723 277.905 266.126 277.898L272.867 277.652C273.27 277.637 273.661 277.783 273.956 278.057C274.251 278.331 274.425 278.711 274.44 279.114C274.455 279.516 274.309 279.908 274.035 280.203C273.761 280.498 273.381 280.672 272.979 280.687L266.235 280.931L266.179 280.934ZM283.376 280.295C282.973 280.303 282.585 280.15 282.295 279.87C282.005 279.591 281.838 279.208 281.831 278.806C281.823 278.403 281.976 278.014 282.255 277.724C282.534 277.434 282.917 277.267 283.32 277.26L290.058 276.999C290.456 276.99 290.842 277.138 291.132 277.41C291.422 277.683 291.593 278.059 291.609 278.456C291.625 278.854 291.484 279.243 291.216 279.537C290.949 279.832 290.576 280.01 290.179 280.032L283.434 280.292L283.376 280.295ZM300.572 279.615C300.18 279.608 299.806 279.449 299.528 279.172C299.25 278.895 299.09 278.521 299.082 278.128C299.074 277.736 299.219 277.355 299.485 277.067C299.751 276.779 300.119 276.605 300.511 276.582L307.249 276.302C307.649 276.29 308.037 276.436 308.329 276.708C308.621 276.98 308.795 277.357 308.811 277.756C308.828 278.155 308.686 278.545 308.418 278.841C308.149 279.136 307.774 279.314 307.375 279.335L300.634 279.615H300.572ZM317.763 278.895C317.361 278.904 316.972 278.752 316.681 278.473C316.391 278.195 316.223 277.812 316.215 277.41C316.206 277.007 316.358 276.618 316.636 276.327C316.914 276.036 317.297 275.868 317.699 275.86L324.438 275.58C324.637 275.571 324.836 275.602 325.023 275.67C325.21 275.738 325.382 275.843 325.529 275.977C325.675 276.112 325.794 276.274 325.878 276.455C325.963 276.636 326.01 276.831 326.019 277.03C326.028 277.229 325.997 277.428 325.929 277.615C325.861 277.803 325.756 277.975 325.622 278.122C325.487 278.269 325.325 278.388 325.144 278.472C324.964 278.556 324.768 278.604 324.569 278.612L317.828 278.892L317.763 278.895ZM334.952 278.131C334.549 278.14 334.16 277.988 333.869 277.71C333.579 277.432 333.41 277.049 333.401 276.647C333.393 276.244 333.544 275.854 333.822 275.564C334.1 275.273 334.482 275.104 334.885 275.095L341.621 274.784C341.824 274.767 342.029 274.791 342.223 274.854C342.417 274.918 342.596 275.02 342.749 275.155C342.903 275.289 343.028 275.453 343.116 275.637C343.205 275.821 343.256 276.021 343.265 276.225C343.275 276.429 343.243 276.633 343.172 276.824C343.101 277.016 342.992 277.191 342.852 277.339C342.712 277.488 342.543 277.606 342.356 277.688C342.169 277.769 341.967 277.812 341.763 277.814L335.025 278.128L334.952 278.131ZM352.14 277.319C351.941 277.323 351.743 277.289 351.557 277.217C351.371 277.145 351.201 277.037 351.057 276.9C350.913 276.762 350.797 276.598 350.716 276.415C350.636 276.233 350.592 276.037 350.587 275.837C350.582 275.638 350.617 275.44 350.689 275.254C350.76 275.068 350.868 274.898 351.006 274.753C351.143 274.609 351.308 274.493 351.49 274.413C351.672 274.332 351.868 274.288 352.067 274.283C354.306 274.177 356.551 274.067 358.803 273.953C359.002 273.943 359.201 273.972 359.389 274.039C359.577 274.106 359.749 274.21 359.897 274.343C360.045 274.477 360.165 274.639 360.25 274.819C360.335 274.999 360.384 275.194 360.394 275.394C360.404 275.593 360.375 275.792 360.308 275.98C360.241 276.167 360.138 276.34 360.004 276.488C359.87 276.636 359.709 276.756 359.529 276.841C359.349 276.926 359.153 276.975 358.954 276.985L352.216 277.316L352.14 277.319ZM369.323 276.456C368.93 276.452 368.554 276.296 368.274 276.02C367.994 275.744 367.832 275.37 367.822 274.976C367.812 274.583 367.955 274.201 368.221 273.912C368.487 273.622 368.855 273.447 369.247 273.424L375.983 273.074C376.186 273.057 376.389 273.081 376.582 273.144C376.775 273.207 376.953 273.309 377.106 273.443C377.259 273.576 377.384 273.739 377.473 273.922C377.562 274.105 377.613 274.303 377.624 274.506C377.634 274.709 377.604 274.912 377.535 275.103C377.466 275.294 377.359 275.469 377.221 275.618C377.083 275.767 376.916 275.887 376.731 275.97C376.546 276.054 376.346 276.099 376.143 276.103L369.404 276.456H369.323ZM386.506 275.543C386.112 275.541 385.735 275.385 385.454 275.109C385.173 274.834 385.01 274.46 385 274.066C384.989 273.673 385.132 273.29 385.398 273C385.664 272.71 386.032 272.534 386.425 272.511L393.158 272.138C393.359 272.122 393.562 272.147 393.754 272.21C393.946 272.274 394.123 272.375 394.275 272.508C394.427 272.641 394.551 272.803 394.64 272.985C394.729 273.166 394.781 273.364 394.792 273.566C394.803 273.768 394.774 273.97 394.706 274.16C394.639 274.351 394.534 274.526 394.397 274.675C394.261 274.824 394.096 274.945 393.912 275.03C393.729 275.114 393.53 275.161 393.328 275.168L386.59 275.543H386.506ZM403.686 274.577C403.283 274.589 402.893 274.44 402.6 274.163C402.308 273.887 402.137 273.505 402.125 273.103C402.114 272.7 402.263 272.31 402.539 272.017C402.815 271.724 403.197 271.553 403.599 271.542L410.357 271.147C410.557 271.135 410.757 271.163 410.946 271.228C411.134 271.294 411.309 271.396 411.458 271.529C411.607 271.662 411.729 271.823 411.816 272.003C411.904 272.183 411.955 272.378 411.966 272.578C411.978 272.778 411.95 272.978 411.885 273.167C411.819 273.356 411.717 273.53 411.585 273.679C411.452 273.829 411.291 273.951 411.111 274.038C410.931 274.125 410.736 274.176 410.536 274.188L403.775 274.586L403.686 274.577ZM420.902 273.547C420.508 273.547 420.129 273.393 419.846 273.119C419.563 272.844 419.398 272.47 419.386 272.075C419.374 271.681 419.516 271.297 419.781 271.006C420.047 270.715 420.416 270.538 420.81 270.514L427.543 270.091C427.742 270.079 427.941 270.106 428.129 270.17C428.318 270.235 428.492 270.336 428.641 270.468C428.791 270.6 428.913 270.76 429 270.939C429.088 271.118 429.139 271.312 429.152 271.511C429.164 271.71 429.138 271.909 429.073 272.098C429.009 272.287 428.907 272.461 428.776 272.61C428.644 272.76 428.484 272.882 428.305 272.969C428.126 273.057 427.932 273.109 427.733 273.121L420.997 273.544L420.902 273.547ZM438.06 272.455C437.675 272.441 437.31 272.282 437.038 272.01C436.767 271.737 436.609 271.372 436.596 270.987C436.584 270.602 436.718 270.227 436.971 269.938C437.225 269.648 437.579 269.466 437.962 269.428L444.678 268.982C444.88 268.962 445.084 268.983 445.278 269.044C445.472 269.104 445.652 269.203 445.807 269.334C445.963 269.465 446.09 269.627 446.181 269.808C446.273 269.99 446.327 270.188 446.341 270.391C446.355 270.593 446.328 270.797 446.261 270.989C446.195 271.181 446.09 271.358 445.954 271.509C445.818 271.66 445.653 271.782 445.469 271.868C445.285 271.954 445.085 272.002 444.882 272.009L438.166 272.457L438.06 272.455ZM455.206 271.293C454.817 271.286 454.445 271.131 454.167 270.858C453.89 270.585 453.728 270.216 453.714 269.827C453.701 269.438 453.838 269.059 454.096 268.767C454.354 268.476 454.715 268.296 455.102 268.263C457.341 268.102 459.58 267.943 461.819 267.784C462.22 267.755 462.617 267.888 462.921 268.151C463.225 268.415 463.412 268.789 463.44 269.191C463.469 269.593 463.337 269.99 463.073 270.294C462.809 270.598 462.436 270.785 462.034 270.814L455.301 271.29L455.206 271.293ZM472.366 270.055C471.97 270.06 471.588 269.91 471.301 269.636C471.014 269.363 470.846 268.988 470.831 268.592C470.817 268.196 470.958 267.81 471.225 267.517C471.491 267.223 471.862 267.046 472.257 267.022L478.974 266.516C479.176 266.492 479.382 266.51 479.577 266.567C479.773 266.625 479.955 266.722 480.113 266.852C480.27 266.982 480.4 267.142 480.494 267.323C480.588 267.505 480.645 267.703 480.661 267.907C480.676 268.11 480.651 268.315 480.585 268.509C480.52 268.702 480.416 268.881 480.28 269.033C480.145 269.186 479.979 269.309 479.795 269.396C479.61 269.483 479.41 269.532 479.206 269.54C476.967 269.713 474.728 269.883 472.489 270.049L472.366 270.055ZM489.524 268.73C489.126 268.74 488.74 268.592 488.45 268.32C488.16 268.047 487.989 267.671 487.973 267.273C487.957 266.876 488.098 266.487 488.366 266.193C488.634 265.898 489.006 265.72 489.404 265.698C491.642 265.511 493.881 265.33 496.12 265.155C496.514 265.134 496.901 265.267 497.199 265.527C497.496 265.787 497.681 266.153 497.713 266.547C497.745 266.941 497.622 267.332 497.371 267.636C497.119 267.941 496.759 268.136 496.366 268.179C494.127 268.366 491.889 268.552 489.65 268.739L489.524 268.73ZM506.67 267.311C506.28 267.31 505.904 267.158 505.623 266.887C505.341 266.616 505.175 266.247 505.159 265.856C505.143 265.466 505.278 265.084 505.536 264.79C505.794 264.497 506.155 264.314 506.544 264.281C508.783 264.094 511.022 263.899 513.261 263.696C513.661 263.659 514.061 263.782 514.37 264.04C514.68 264.297 514.875 264.667 514.912 265.068C514.949 265.469 514.825 265.868 514.568 266.178C514.311 266.488 513.941 266.683 513.541 266.72C511.302 266.92 509.063 267.115 506.824 267.305L506.67 267.311ZM523.811 265.785C523.424 265.779 523.054 265.626 522.776 265.357C522.499 265.088 522.334 264.722 522.317 264.336C522.299 263.949 522.43 263.571 522.682 263.277C522.934 262.984 523.289 262.798 523.674 262.758C525.913 262.549 528.151 262.339 530.39 262.128C530.785 262.102 531.174 262.231 531.475 262.487C531.776 262.744 531.964 263.108 532.001 263.502C532.037 263.896 531.919 264.288 531.67 264.596C531.421 264.904 531.063 265.102 530.67 265.149C528.443 265.362 526.204 265.572 523.954 265.779C523.907 265.785 523.861 265.787 523.814 265.787L523.811 265.785ZM540.941 264.138C540.553 264.135 540.181 263.984 539.901 263.716C539.622 263.448 539.455 263.082 539.436 262.695C539.417 262.307 539.547 261.928 539.799 261.633C540.052 261.339 540.407 261.152 540.792 261.111C543.031 260.887 545.27 260.659 547.509 260.428C547.909 260.386 548.31 260.506 548.622 260.76C548.935 261.013 549.134 261.381 549.175 261.782C549.217 262.182 549.097 262.583 548.844 262.896C548.59 263.209 548.223 263.408 547.822 263.449C545.598 263.679 543.359 263.907 541.106 264.133C541.053 264.137 540.999 264.138 540.946 264.135L540.941 264.138ZM558.056 262.352C557.667 262.352 557.293 262.204 557.011 261.937C556.728 261.669 556.559 261.304 556.539 260.915C556.518 260.527 556.647 260.145 556.899 259.849C557.151 259.553 557.507 259.366 557.894 259.325C560.144 259.08 562.377 258.833 564.593 258.583C564.793 258.557 564.995 258.571 565.189 258.625C565.383 258.678 565.564 258.77 565.722 258.894C565.88 259.018 566.012 259.173 566.11 259.348C566.208 259.524 566.27 259.717 566.293 259.917C566.316 260.117 566.298 260.319 566.242 260.513C566.186 260.706 566.092 260.886 565.965 261.042C565.839 261.199 565.683 261.328 565.506 261.424C565.329 261.519 565.135 261.579 564.935 261.598C562.713 261.85 560.474 262.099 558.218 262.343L558.056 262.352ZM575.155 260.392C574.769 260.39 574.399 260.241 574.119 259.975C573.839 259.71 573.671 259.348 573.648 258.962C573.626 258.577 573.751 258.198 573.998 257.901C574.245 257.605 574.596 257.414 574.979 257.367C577.229 257.099 579.458 256.826 581.667 256.55C581.865 256.525 582.065 256.54 582.258 256.593C582.45 256.645 582.629 256.736 582.787 256.858C582.944 256.981 583.075 257.133 583.174 257.306C583.272 257.48 583.336 257.671 583.36 257.869C583.385 258.066 583.37 258.267 583.317 258.459C583.264 258.652 583.174 258.831 583.052 258.989C582.929 259.146 582.777 259.278 582.604 259.376C582.431 259.475 582.24 259.538 582.042 259.563C579.828 259.837 577.589 260.11 575.326 260.38C575.27 260.389 575.214 260.395 575.158 260.397L575.155 260.392ZM592.226 258.241C591.842 258.239 591.474 258.091 591.195 257.827C590.915 257.564 590.746 257.205 590.722 256.822C590.697 256.438 590.818 256.06 591.061 255.763C591.303 255.466 591.65 255.272 592.03 255.22C594.28 254.921 596.506 254.618 598.707 254.312C598.904 254.285 599.105 254.297 599.298 254.347C599.491 254.397 599.672 254.485 599.831 254.605C599.99 254.725 600.123 254.876 600.224 255.048C600.325 255.22 600.391 255.41 600.418 255.607C600.446 255.805 600.434 256.006 600.384 256.199C600.334 256.392 600.246 256.573 600.126 256.732C600.005 256.891 599.855 257.025 599.683 257.125C599.511 257.226 599.321 257.292 599.124 257.32C596.919 257.624 594.687 257.926 592.427 258.227C592.363 258.237 592.299 258.244 592.234 258.247L592.226 258.241ZM609.271 255.844C608.889 255.843 608.521 255.698 608.241 255.437C607.962 255.176 607.791 254.819 607.763 254.437C607.735 254.056 607.852 253.678 608.091 253.379C608.329 253.08 608.672 252.882 609.05 252.825C611.306 252.489 613.547 252.148 615.711 251.806C615.908 251.775 616.108 251.783 616.302 251.83C616.496 251.877 616.678 251.962 616.839 252.079C617 252.196 617.137 252.344 617.24 252.515C617.344 252.685 617.414 252.874 617.444 253.07C617.475 253.267 617.467 253.468 617.42 253.662C617.373 253.856 617.289 254.039 617.172 254.2C617.054 254.361 616.906 254.497 616.737 254.601C616.567 254.705 616.378 254.774 616.181 254.805C614.009 255.147 611.762 255.491 609.498 255.827C609.426 255.84 609.353 255.847 609.28 255.85L609.271 255.844ZM626.275 253.133C625.896 253.132 625.531 252.989 625.252 252.732C624.973 252.474 624.801 252.122 624.769 251.744C624.737 251.365 624.847 250.989 625.079 250.689C625.311 250.388 625.647 250.185 626.02 250.12C628.284 249.734 630.515 249.342 632.653 248.953C633.049 248.881 633.457 248.97 633.788 249.199C634.118 249.429 634.344 249.78 634.416 250.176C634.487 250.573 634.399 250.981 634.17 251.312C633.94 251.643 633.589 251.869 633.193 251.941C631.046 252.33 628.805 252.725 626.533 253.111C626.451 253.128 626.367 253.137 626.283 253.139L626.275 253.133ZM643.206 250C642.828 250.002 642.464 249.862 642.183 249.609C641.903 249.356 641.727 249.007 641.69 248.631C641.653 248.255 641.757 247.879 641.983 247.576C642.208 247.273 642.539 247.065 642.909 246.993C645.165 246.539 647.387 246.077 649.494 245.618C649.691 245.57 649.895 245.562 650.094 245.595C650.294 245.627 650.485 245.699 650.657 245.807C650.828 245.914 650.976 246.055 651.093 246.22C651.209 246.386 651.291 246.573 651.334 246.771C651.377 246.968 651.38 247.173 651.342 247.372C651.305 247.571 651.229 247.76 651.117 247.929C651.006 248.098 650.862 248.243 650.694 248.355C650.525 248.467 650.336 248.545 650.138 248.583C648.008 249.045 645.778 249.513 643.505 249.983C643.409 250 643.312 250.007 643.214 250.006L643.206 250ZM660.016 246.248C659.646 246.248 659.288 246.113 659.011 245.867C658.733 245.621 658.555 245.283 658.51 244.915C658.465 244.547 658.556 244.175 658.766 243.87C658.976 243.565 659.29 243.347 659.65 243.257C661.903 242.697 664.086 242.137 666.145 241.555C666.533 241.447 666.948 241.499 667.298 241.697C667.648 241.896 667.905 242.225 668.012 242.613C668.119 243.001 668.068 243.416 667.87 243.766C667.671 244.117 667.342 244.374 666.954 244.481C664.869 245.058 662.658 245.637 660.383 246.203C660.266 246.234 660.146 246.251 660.025 246.253L660.016 246.248ZM676.567 241.487C676.206 241.489 675.857 241.362 675.582 241.129C675.306 240.896 675.123 240.573 675.064 240.217C675.006 239.861 675.076 239.495 675.262 239.186C675.448 238.877 675.738 238.645 676.08 238.531C678.319 237.772 680.426 236.996 682.334 236.223C682.522 236.126 682.727 236.069 682.938 236.055C683.149 236.042 683.36 236.073 683.558 236.146C683.756 236.219 683.937 236.333 684.089 236.479C684.24 236.626 684.36 236.803 684.439 236.999C684.518 237.195 684.556 237.405 684.55 237.616C684.543 237.827 684.493 238.035 684.402 238.225C684.311 238.416 684.181 238.585 684.02 238.723C683.86 238.86 683.673 238.962 683.471 239.023C681.512 239.819 679.349 240.614 677.054 241.392C676.9 241.449 676.739 241.481 676.575 241.487H676.567ZM692.35 234.689C692.013 234.689 691.684 234.577 691.418 234.369C691.151 234.162 690.961 233.871 690.878 233.543C690.795 233.216 690.824 232.87 690.96 232.56C691.096 232.251 691.331 231.996 691.628 231.835C693.587 230.782 695.499 229.651 697.343 228.475C697.682 228.259 698.093 228.186 698.486 228.273C698.879 228.36 699.221 228.599 699.438 228.938C699.654 229.278 699.727 229.689 699.64 230.082C699.553 230.475 699.314 230.818 698.974 231.034C697.069 232.253 695.084 233.42 693.072 234.509C692.853 234.626 692.608 234.688 692.359 234.689H692.35ZM706.623 225.148C706.309 225.149 706.004 225.052 705.748 224.871C705.492 224.691 705.298 224.436 705.193 224.14C705.088 223.845 705.076 223.525 705.16 223.223C705.245 222.921 705.42 222.653 705.663 222.455C707.375 221.055 709.043 219.579 710.616 218.067C710.76 217.929 710.929 217.82 711.115 217.748C711.3 217.675 711.498 217.64 711.698 217.644C711.897 217.648 712.093 217.691 712.276 217.771C712.458 217.851 712.623 217.966 712.761 218.11C712.899 218.254 713.007 218.424 713.08 218.609C713.152 218.795 713.188 218.993 713.184 219.192C713.18 219.392 713.136 219.588 713.057 219.771C712.977 219.953 712.861 220.118 712.718 220.257C711.086 221.825 709.36 223.356 707.583 224.807C707.314 225.026 706.978 225.147 706.631 225.148H706.623ZM718.712 212.97C718.427 212.969 718.147 212.888 717.906 212.735C717.665 212.583 717.471 212.366 717.348 212.108C717.224 211.851 717.176 211.564 717.208 211.28C717.24 210.996 717.351 210.727 717.528 210.503C718.911 208.776 720.218 206.981 721.415 205.166C721.638 204.83 721.985 204.596 722.38 204.516C722.775 204.436 723.185 204.517 723.521 204.739C723.857 204.962 724.091 205.309 724.171 205.704C724.251 206.1 724.171 206.51 723.948 206.846C722.697 208.737 721.337 210.607 719.899 212.408C719.757 212.583 719.577 212.725 719.373 212.822C719.169 212.92 718.946 212.97 718.721 212.97H718.712ZM727.774 198.41C727.519 198.41 727.268 198.346 727.045 198.223C726.821 198.101 726.632 197.924 726.495 197.709C726.357 197.494 726.277 197.248 726.26 196.994C726.242 196.739 726.29 196.485 726.397 196.253C727.319 194.26 728.139 192.221 728.851 190.143C728.991 189.775 729.268 189.475 729.624 189.308C729.981 189.14 730.388 189.118 730.761 189.245C731.133 189.373 731.442 189.641 731.621 189.992C731.799 190.343 731.835 190.75 731.72 191.126C730.975 193.303 730.118 195.44 729.151 197.527C729.029 197.788 728.836 198.009 728.594 198.164C728.351 198.32 728.07 198.403 727.782 198.404L727.774 198.41ZM732.811 182.026C732.731 182.026 732.652 182.02 732.573 182.009C732.175 181.946 731.819 181.727 731.582 181.401C731.346 181.075 731.248 180.668 731.311 180.27C731.656 178.109 731.876 175.929 731.969 173.743C731.99 173.344 732.167 172.969 732.462 172.7C732.758 172.431 733.147 172.289 733.546 172.306C733.945 172.323 734.322 172.496 734.594 172.789C734.866 173.081 735.012 173.469 734.999 173.869C734.902 176.174 734.671 178.471 734.308 180.749C734.25 181.102 734.069 181.423 733.797 181.656C733.525 181.889 733.18 182.018 732.822 182.02L732.811 182.026ZM732.956 164.903C732.592 164.902 732.24 164.77 731.965 164.531C731.689 164.292 731.509 163.961 731.456 163.6C731.144 161.436 730.705 159.292 730.141 157.18C730.046 156.794 730.106 156.386 730.308 156.044C730.51 155.702 730.838 155.453 731.222 155.35C731.606 155.247 732.014 155.299 732.36 155.495C732.706 155.69 732.961 156.014 733.071 156.396C733.67 158.624 734.137 160.886 734.47 163.169C734.527 163.567 734.424 163.972 734.183 164.293C733.942 164.615 733.584 164.828 733.186 164.886C733.114 164.895 733.041 164.899 732.968 164.897L732.956 164.903ZM728.028 148.51C727.739 148.51 727.456 148.427 727.213 148.272C726.969 148.117 726.774 147.896 726.651 147.634C725.722 145.649 724.689 143.714 723.556 141.837C723.45 141.667 723.378 141.477 723.346 141.278C723.314 141.079 723.321 140.876 723.368 140.68C723.415 140.485 723.5 140.3 723.619 140.138C723.737 139.975 723.887 139.838 724.059 139.734C724.231 139.63 724.423 139.562 724.622 139.532C724.82 139.503 725.023 139.513 725.218 139.563C725.413 139.613 725.596 139.701 725.757 139.822C725.917 139.943 726.052 140.095 726.153 140.269C727.341 142.237 728.425 144.267 729.4 146.349C729.484 146.529 729.532 146.725 729.541 146.924C729.551 147.123 729.52 147.322 729.453 147.509C729.385 147.697 729.281 147.869 729.146 148.016C729.012 148.164 728.85 148.283 728.669 148.367C728.471 148.457 728.257 148.504 728.04 148.505L728.028 148.51ZM718.793 134.075C718.569 134.074 718.348 134.024 718.145 133.927C717.943 133.83 717.765 133.689 717.624 133.515C716.249 131.855 714.761 130.205 713.196 128.618C712.914 128.331 712.758 127.943 712.761 127.541C712.765 127.138 712.928 126.754 713.214 126.471C713.501 126.189 713.888 126.033 714.291 126.036C714.693 126.039 715.078 126.203 715.36 126.49C716.983 128.139 718.53 129.85 719.96 131.58C720.144 131.802 720.261 132.072 720.297 132.357C720.334 132.643 720.288 132.934 720.166 133.194C720.043 133.455 719.849 133.676 719.606 133.83C719.363 133.985 719.081 134.067 718.793 134.067V134.075ZM706.53 122.088C706.185 122.088 705.85 121.969 705.582 121.752C703.903 120.394 702.109 119.055 700.264 117.77C699.935 117.539 699.711 117.186 699.641 116.79C699.571 116.393 699.661 115.985 699.892 115.656C700.123 115.326 700.475 115.102 700.872 115.032C701.268 114.962 701.676 115.052 702.005 115.283C703.891 116.608 705.733 117.988 707.471 119.386C707.716 119.582 707.894 119.851 707.981 120.153C708.067 120.456 708.057 120.778 707.953 121.074C707.848 121.371 707.654 121.628 707.397 121.81C707.141 121.991 706.834 122.088 706.519 122.088H706.53ZM692.345 112.444C692.08 112.444 691.821 112.374 691.592 112.242C689.706 111.159 687.736 110.092 685.735 109.073C685.557 108.982 685.399 108.857 685.27 108.706C685.14 108.554 685.042 108.379 684.981 108.189C684.919 108 684.895 107.8 684.911 107.601C684.926 107.402 684.981 107.209 685.071 107.031C685.162 106.854 685.286 106.696 685.438 106.566C685.589 106.437 685.765 106.338 685.954 106.277C686.144 106.215 686.343 106.191 686.542 106.207C686.74 106.222 686.934 106.277 687.112 106.368C689.157 107.409 691.175 108.501 693.103 109.61C693.393 109.777 693.62 110.035 693.748 110.344C693.877 110.653 693.899 110.996 693.813 111.319C693.726 111.642 693.535 111.928 693.27 112.131C693.004 112.335 692.679 112.445 692.345 112.444ZM676.953 104.833C676.75 104.833 676.549 104.792 676.362 104.713C674.35 103.873 672.266 103.033 670.164 102.226C669.788 102.083 669.483 101.797 669.318 101.43C669.153 101.063 669.14 100.645 669.282 100.269C669.425 99.8922 669.711 99.5877 670.078 99.4223C670.445 99.2569 670.862 99.2441 671.238 99.3867C673.377 100.196 675.501 101.047 677.546 101.907C677.876 102.039 678.148 102.282 678.317 102.595C678.485 102.908 678.539 103.269 678.469 103.617C678.398 103.965 678.208 104.278 677.931 104.5C677.654 104.722 677.308 104.84 676.953 104.833ZM660.848 98.8966C660.692 98.8969 660.537 98.8733 660.389 98.8266C658.301 98.1658 656.143 97.5217 653.98 96.9113C653.788 96.8572 653.609 96.7659 653.452 96.6425C653.296 96.5191 653.165 96.3661 653.068 96.1921C652.97 96.0182 652.908 95.8267 652.885 95.6287C652.861 95.4307 652.877 95.2299 652.931 95.038C652.985 94.846 653.076 94.6666 653.199 94.51C653.323 94.3533 653.476 94.2225 653.649 94.125C653.823 94.0275 654.015 93.9652 654.213 93.9417C654.41 93.9181 654.611 93.9339 654.803 93.9879C656.997 94.6068 659.185 95.262 661.304 95.9312C661.65 96.0401 661.945 96.2692 662.136 96.5772C662.328 96.8851 662.403 97.2514 662.348 97.6098C662.292 97.9683 662.111 98.2951 661.836 98.5311C661.561 98.7672 661.21 98.8968 660.848 98.8966ZM644.281 94.3659C644.164 94.3658 644.047 94.3517 643.934 94.3239C641.793 93.8227 639.593 93.3383 637.391 92.8847C636.997 92.8033 636.651 92.5687 636.43 92.2323C636.208 91.896 636.13 91.4855 636.211 91.0911C636.292 90.6968 636.527 90.3509 636.863 90.1295C637.199 89.9082 637.609 89.8295 638.004 89.9108C640.242 90.3729 642.459 90.8629 644.625 91.3697C644.988 91.4539 645.307 91.6688 645.522 91.9735C645.737 92.2781 645.832 92.6512 645.789 93.0216C645.747 93.3919 645.569 93.7337 645.291 93.9816C645.013 94.2295 644.653 94.3664 644.281 94.3659ZM627.434 91.0057C627.349 91.0062 627.265 90.9996 627.182 90.9861C625.013 90.6193 622.783 90.2693 620.555 89.9445C620.157 89.8862 619.798 89.672 619.558 89.349C619.317 89.0261 619.215 88.6208 619.273 88.2223C619.331 87.8239 619.546 87.465 619.868 87.2244C620.191 86.9839 620.596 86.8816 620.994 86.9399C623.233 87.2703 625.494 87.6231 627.683 87.9927C628.056 88.0576 628.391 88.2598 628.623 88.5597C628.855 88.8596 628.966 89.2354 628.935 89.6132C628.904 89.991 628.732 90.3434 628.454 90.6011C628.177 90.8588 627.812 91.0031 627.434 91.0057ZM610.419 88.6172C610.361 88.6212 610.303 88.6212 610.245 88.6172C608.054 88.3679 605.81 88.1327 603.571 87.9199C603.17 87.8828 602.8 87.6879 602.543 87.378C602.286 87.0682 602.162 86.6689 602.2 86.2678C602.237 85.8668 602.432 85.4969 602.741 85.2396C603.051 84.9823 603.45 84.8586 603.851 84.8957C606.109 85.1113 608.373 85.3494 610.581 85.6014C610.969 85.6422 611.325 85.8306 611.578 86.1275C611.83 86.4244 611.958 86.8071 611.937 87.1962C611.915 87.5854 611.744 87.9511 611.46 88.2177C611.176 88.4844 610.8 88.6314 610.41 88.6284L610.419 88.6172ZM517.864 87.6959C517.468 87.7009 517.086 87.5506 516.799 87.2772C516.512 87.0039 516.344 86.629 516.329 86.2329C516.315 85.8368 516.456 85.4509 516.723 85.1576C516.989 84.8643 517.36 84.6869 517.755 84.6633C519.994 84.5009 522.272 84.3469 524.497 84.2069C524.898 84.1816 525.293 84.317 525.595 84.5833C525.897 84.8495 526.081 85.2248 526.106 85.6266C526.131 86.0283 525.996 86.4237 525.73 86.7257C525.464 87.0276 525.088 87.2114 524.687 87.2367C522.47 87.3767 520.209 87.5167 517.971 87.6931L517.864 87.6959ZM593.306 87.0659H593.202C590.997 86.9147 588.742 86.7858 586.486 86.6598C586.093 86.6271 585.728 86.4426 585.469 86.1454C585.21 85.8481 585.076 85.4615 585.097 85.0675C585.118 84.6735 585.291 84.3031 585.58 84.0348C585.869 83.7664 586.251 83.6213 586.646 83.63C588.904 83.7476 591.176 83.8849 593.398 84.0361C593.793 84.0599 594.163 84.237 594.429 84.5297C594.695 84.8223 594.836 85.2074 594.823 85.6028C594.81 85.9983 594.642 86.3728 594.357 86.6466C594.071 86.9204 593.69 87.0719 593.295 87.0687L593.306 87.0659ZM535.027 86.6654C534.635 86.6603 534.259 86.5029 533.98 86.2264C533.701 85.9499 533.54 85.5758 533.531 85.1829C533.522 84.79 533.665 84.4089 533.931 84.1198C534.198 83.8307 534.565 83.6561 534.957 83.6328C537.216 83.5264 539.488 83.434 541.713 83.3528C541.915 83.3407 542.117 83.3691 542.308 83.4365C542.499 83.5038 542.674 83.6087 542.824 83.7449C542.974 83.8811 543.095 84.0459 543.18 84.2296C543.265 84.4133 543.312 84.6122 543.32 84.8146C543.327 85.0169 543.293 85.2187 543.221 85.4079C543.149 85.5971 543.04 85.77 542.9 85.9164C542.76 86.0628 542.593 86.1797 542.407 86.2602C542.222 86.3408 542.022 86.3833 541.819 86.3854C539.609 86.4638 537.342 86.5562 535.103 86.6654H535.027ZM576.143 86.2342H576.098C573.887 86.1698 571.62 86.1194 569.382 86.0858C568.979 86.0799 568.596 85.9143 568.316 85.6254C568.035 85.3366 567.881 84.9482 567.887 84.5457C567.893 84.1432 568.059 83.7595 568.347 83.4791C568.636 83.1987 569.024 83.0445 569.426 83.0504C571.688 83.084 573.963 83.1344 576.185 83.1988C576.587 83.2044 576.971 83.3696 577.251 83.6582C577.532 83.9468 577.686 84.335 577.681 84.7375C577.675 85.14 577.51 85.5239 577.221 85.8045C576.933 86.0852 576.545 86.2398 576.143 86.2342ZM552.213 86.111C552.014 86.1127 551.816 86.075 551.631 86.0003C551.447 85.9256 551.279 85.8152 551.137 85.6754C550.995 85.5356 550.882 85.3692 550.804 85.1857C550.726 85.0022 550.685 84.8052 550.684 84.6059C550.682 84.4066 550.719 84.2089 550.794 84.0242C550.869 83.8394 550.979 83.6712 551.119 83.5291C551.259 83.3869 551.425 83.2738 551.608 83.196C551.792 83.1182 551.989 83.0773 552.188 83.0756C554.452 83.0364 556.727 83.0112 558.949 83C559.351 83 559.737 83.1599 560.021 83.4445C560.306 83.7292 560.466 84.1152 560.466 84.5177C560.466 84.9202 560.306 85.3063 560.021 85.5909C559.737 85.8755 559.351 86.0354 558.949 86.0354C556.738 86.0354 554.471 86.0718 552.233 86.111H552.213Z" fill="#112F4A"/>
</svg>
