<svg width="924" height="199" viewBox="0 0 924 199" fill="none" xmlns="http://www.w3.org/2000/svg">
<rect width="194.526" height="199" rx="40" fill="url(#paint0_linear_786_1668)"/>
<path d="M163.193 112.626V82.461L31.3326 31.8413V66.4995L114.28 97.4966L31.3326 132.248V167.161L163.193 112.626Z" fill="white"/>
<path d="M155.039 84.8132C155.027 84.3943 155.277 84.0123 155.666 83.856L161.469 81.5239C162.134 81.2567 162.856 81.7549 162.842 82.4713L162.279 111.28C162.272 111.652 162.058 111.989 161.725 112.155L157.324 114.345C156.67 114.67 155.9 114.208 155.879 113.479L155.039 84.8132Z" fill="white"/>
<path d="M163.193 78.9688L31.3333 132.154V167.162L163.193 112.63V78.9688Z" stroke="url(#paint1_linear_786_1668)" stroke-width="4.5"/>
<path d="M401.922 30.8948C387.071 17.1734 365.513 9.95166 346.351 9.95166C314.733 9.95166 280.72 25.5988 280.72 63.3928C280.72 94.2057 302.517 105.279 324.075 112.26C346.351 119.482 359.286 123.574 359.286 136.573C359.286 150.295 348.267 155.109 335.812 155.109C322.398 155.109 307.308 147.406 299.164 137.055L272.337 164.498C287.188 180.145 311.619 189.052 335.812 189.052C369.346 189.052 400.724 171.479 400.724 132.24C400.724 98.298 371.023 88.4283 348.028 80.9658C331.979 75.9105 321.919 72.2996 321.919 60.9855C321.919 47.5049 335.093 43.894 345.632 43.894C356.172 43.894 368.867 49.6714 375.813 58.5783L401.922 30.8948ZM549.428 184.719V14.2847H508.469V78.7992H442.359V14.2847H401.4V184.719H442.359V113.464H508.469V184.719H549.428ZM705.522 14.2847H657.616L621.447 77.3549L585.278 14.2847H535.696L599.411 112.501V184.719H640.37V112.501L705.522 14.2847ZM803.476 49.4307V14.2847H691.855V184.719H732.336V118.519H797.967V84.5766H732.336V49.4307H803.476ZM924 49.4307V14.2847H787.229V49.4307H835.135V184.719H876.094V49.4307H924Z" fill="#112F4A"/>
<defs>
<linearGradient id="paint0_linear_786_1668" x1="16.9587" y1="17.3487" x2="175.461" y2="188.781" gradientUnits="userSpaceOnUse">
<stop stop-color="#E0499B"/>
<stop offset="1" stop-color="#5965F3"/>
</linearGradient>
<linearGradient id="paint1_linear_786_1668" x1="17.0997" y1="16.3057" x2="178.421" y2="198.404" gradientUnits="userSpaceOnUse">
<stop stop-color="#E0499B"/>
<stop offset="1" stop-color="#5965F3"/>
</linearGradient>
</defs>
</svg>
