<svg width="24" height="24" viewBox="0 0 24 24" fill="none" xmlns="http://www.w3.org/2000/svg">
<path d="M6.40005 11.9998L11.2 15.9998L17.6 7.9998M12 23.1998C10.5292 23.1998 9.07284 22.9101 7.71399 22.3473C6.35515 21.7844 5.12047 20.9594 4.08045 19.9194C3.04044 18.8794 2.21545 17.6447 1.6526 16.2859C1.08975 14.927 0.800049 13.4706 0.800049 11.9998C0.800049 10.529 1.08975 9.0726 1.6526 7.71375C2.21545 6.3549 3.04044 5.12022 4.08045 4.08021C5.12047 3.04019 6.35515 2.21521 7.71399 1.65235C9.07284 1.0895 10.5292 0.799805 12 0.799805C14.9705 0.799805 17.8192 1.9798 19.9196 4.08021C22.0201 6.18062 23.2 9.02938 23.2 11.9998C23.2 14.9702 22.0201 17.819 19.9196 19.9194C17.8192 22.0198 14.9705 23.1998 12 23.1998Z" stroke="#112F4A"/>
</svg>
