<svg width="19" height="24" viewBox="0 0 19 24" fill="none" xmlns="http://www.w3.org/2000/svg">
<path d="M7.82317 10.292L9.70267 8.56999C10.2166 8.09823 10.5778 7.48365 10.7399 6.80514C10.9021 6.12662 10.8578 5.41514 10.6127 4.76199L9.81117 2.62174C9.51172 1.82272 8.91892 1.16793 8.15352 0.790755C7.38812 0.413583 6.50771 0.342411 5.69167 0.591741C2.68867 1.51049 0.380415 4.30174 1.09092 7.61624C1.55817 9.79674 2.45242 12.5337 4.14642 15.4457C5.84392 18.3647 7.78292 20.5207 9.44542 22.0362C11.9549 24.32 15.5424 23.7495 17.8507 21.597C18.4694 21.0201 18.8449 20.2289 18.9005 19.3848C18.9561 18.5406 18.6876 17.7071 18.1499 17.054L16.6799 15.269C16.2366 14.7292 15.6418 14.3344 14.9722 14.1355C14.3027 13.9365 13.5889 13.9424 12.9227 14.1525L10.4937 14.9172C9.86638 14.2699 9.31667 13.5516 8.85567 12.777C8.4107 11.9936 8.06392 11.1584 7.82317 10.2902V10.292Z" fill="white"/>
</svg>
