<svg width="676" height="459" viewBox="0 0 676 459" fill="none" xmlns="http://www.w3.org/2000/svg">
<path d="M468.676 87.2661H468.643C467.257 87.2139 465.884 87.1599 464.524 87.104C464.278 87.0937 464.046 86.9774 463.879 86.7807C463.712 86.584 463.624 86.3231 463.633 86.0553C463.643 85.7876 463.75 85.5349 463.93 85.3529C464.111 85.1709 464.35 85.0745 464.596 85.0849C465.954 85.1432 467.322 85.1979 468.7 85.2488C468.821 85.2511 468.941 85.2795 469.053 85.3324C469.165 85.3853 469.266 85.4616 469.35 85.557C469.435 85.6524 469.501 85.765 469.546 85.8884C469.59 86.0118 469.612 86.1435 469.61 86.2761C469.608 86.4087 469.582 86.5395 469.533 86.6611C469.485 86.7827 469.415 86.8927 469.327 86.9848C469.24 87.0769 469.136 87.1493 469.023 87.1979C468.91 87.2465 468.789 87.2703 468.667 87.268L468.676 87.2661ZM458.179 86.8135H458.138C456.75 86.7464 455.377 86.6762 454.019 86.603C453.773 86.5896 453.543 86.4706 453.378 86.272C453.213 86.0734 453.127 85.8116 453.139 85.544C453.151 85.2765 453.261 85.0253 453.443 84.8456C453.625 84.6658 453.866 84.5723 454.111 84.5857C455.468 84.6589 456.836 84.7291 458.215 84.7962C458.337 84.7991 458.457 84.8281 458.568 84.8816C458.679 84.935 458.78 85.0119 458.864 85.1077C458.948 85.2035 459.014 85.3164 459.058 85.4401C459.102 85.5637 459.124 85.6955 459.121 85.8281C459.118 85.9607 459.092 86.0914 459.043 86.2128C458.994 86.3341 458.923 86.4438 458.835 86.5354C458.747 86.6271 458.643 86.699 458.53 86.747C458.417 86.7951 458.296 86.8183 458.174 86.8153L458.179 86.8135ZM447.694 86.2342H447.641C446.253 86.1485 444.881 86.0603 443.526 85.9697C443.28 85.9534 443.051 85.8316 442.888 85.631C442.725 85.4305 442.642 85.1677 442.657 84.9005C442.672 84.6332 442.784 84.3834 442.968 84.2059C443.152 84.0285 443.393 83.9379 443.638 83.9542C444.993 84.0461 446.36 84.1343 447.742 84.2187C447.982 84.2346 448.207 84.3515 448.37 84.5448C448.532 84.738 448.619 84.9925 448.612 85.2544C448.606 85.5163 448.506 85.7652 448.334 85.9483C448.162 86.1315 447.931 86.2347 447.691 86.236L447.694 86.2342ZM437.223 85.5208H437.158C435.772 85.4164 434.404 85.309 433.054 85.1985C432.933 85.1886 432.815 85.1527 432.706 85.093C432.597 85.0333 432.501 84.9508 432.421 84.8503C432.342 84.7498 432.281 84.6332 432.243 84.5073C432.205 84.3814 432.19 84.2485 432.2 84.1163C432.218 83.8493 432.333 83.6011 432.519 83.4265C432.611 83.34 432.718 83.2742 432.834 83.2327C432.95 83.1913 433.072 83.175 433.193 83.1849C434.544 83.2942 435.912 83.401 437.297 83.5053C437.538 83.5212 437.764 83.639 437.926 83.8337C438.089 84.0283 438.175 84.2845 438.167 84.5476C438.159 84.8106 438.057 85.0597 437.882 85.2419C437.708 85.424 437.475 85.5248 437.233 85.5226L437.223 85.5208ZM426.759 84.6546H426.68C425.292 84.5304 423.924 84.4013 422.577 84.2672C422.332 84.2425 422.106 84.1128 421.949 83.9067C421.792 83.7006 421.716 83.4349 421.739 83.1682C421.761 82.9014 421.88 82.6554 422.07 82.4842C422.259 82.313 422.503 82.2308 422.748 82.2555C424.095 82.3883 425.463 82.5169 426.851 82.641C427.089 82.6633 427.309 82.7846 427.467 82.9796C427.625 83.1746 427.707 83.4283 427.698 83.6879C427.688 83.9476 427.587 84.1931 427.415 84.3736C427.243 84.554 427.014 84.6553 426.776 84.6565L426.759 84.6546ZM416.303 83.6171H416.211C414.822 83.4656 413.454 83.3128 412.107 83.1589C411.863 83.1307 411.639 82.9979 411.484 82.7897C411.329 82.5815 411.257 82.315 411.283 82.0487C411.309 81.7824 411.431 81.5382 411.622 81.3699C411.813 81.2015 412.058 81.1227 412.302 81.1509C413.644 81.3049 415.007 81.457 416.392 81.6072C416.631 81.6294 416.853 81.7518 417.011 81.9487C417.169 82.1455 417.251 82.4014 417.239 82.6626C417.227 82.9237 417.123 83.1697 416.948 83.3488C416.773 83.5279 416.541 83.6261 416.301 83.6227L416.303 83.6171ZM405.873 82.3877C405.837 82.3877 405.801 82.3877 405.765 82.3877C404.397 82.2126 403.021 82.0319 401.662 81.8475C401.418 81.8142 401.196 81.6766 401.045 81.4651C400.894 81.2536 400.827 80.9854 400.857 80.7197C400.888 80.4539 401.014 80.2122 401.208 80.0479C401.402 79.8835 401.649 79.8099 401.893 79.8433C403.238 80.0295 404.611 80.2158 405.972 80.3816C406.209 80.4087 406.428 80.5343 406.582 80.7322C406.736 80.9301 406.814 81.1852 406.801 81.4444C406.787 81.7036 406.682 81.947 406.507 82.1241C406.333 82.3012 406.103 82.3982 405.864 82.3952L405.873 82.3877ZM395.46 80.9404C395.418 80.944 395.376 80.944 395.334 80.9404C393.966 80.7336 392.586 80.5213 391.249 80.3071C391.005 80.2681 390.786 80.1253 390.64 79.9103C390.493 79.6953 390.431 79.4256 390.466 79.1606C390.502 78.8956 390.633 78.6569 390.831 78.4971C391.028 78.3373 391.276 78.2694 391.519 78.3084C392.849 78.5226 394.219 78.735 395.587 78.9399C395.819 78.9746 396.031 79.1043 396.18 79.3028C396.328 79.5013 396.402 79.7538 396.386 80.0092C396.369 80.2646 396.265 80.5038 396.093 80.6784C395.921 80.853 395.695 80.95 395.46 80.9497V80.9404ZM385.081 79.2435C385.031 79.2438 384.982 79.2394 384.933 79.2304C383.565 78.9902 382.197 78.7387 380.863 78.4854C380.742 78.4643 380.626 78.4172 380.521 78.3468C380.417 78.2765 380.327 78.1842 380.255 78.0754C380.184 77.9667 380.133 77.8435 380.106 77.7132C380.078 77.5828 380.075 77.4478 380.096 77.3161C380.117 77.1843 380.162 77.0585 380.228 76.9457C380.294 76.833 380.38 76.7356 380.48 76.6593C380.581 76.583 380.695 76.5293 380.815 76.5013C380.935 76.4732 381.059 76.4714 381.179 76.496C382.508 76.7475 383.871 76.9971 385.23 77.2411C385.46 77.2817 385.667 77.4152 385.811 77.6149C385.955 77.8147 386.024 78.066 386.005 78.3189C385.987 78.5718 385.881 78.8078 385.71 78.9798C385.539 79.1518 385.314 79.2473 385.081 79.2472V79.2435ZM374.747 77.2523C374.69 77.2512 374.632 77.245 374.576 77.2336C373.208 76.9487 371.854 76.6525 370.529 76.3563C370.41 76.3297 370.296 76.2777 370.196 76.2033C370.095 76.129 370.008 76.0338 369.941 75.9231C369.874 75.8124 369.828 75.6884 369.805 75.5582C369.782 75.428 369.783 75.2941 369.807 75.1642C369.832 75.0343 369.879 74.9109 369.948 74.8011C370.016 74.6913 370.103 74.5973 370.205 74.5243C370.307 74.4513 370.42 74.4008 370.54 74.3757C370.659 74.3507 370.782 74.3515 370.902 74.3781C372.22 74.6743 373.574 74.9667 374.927 75.2499C375.154 75.2956 375.358 75.4325 375.497 75.6335C375.637 75.8345 375.703 76.0852 375.681 76.3362C375.66 76.5872 375.553 76.8204 375.382 76.9899C375.21 77.1595 374.987 77.253 374.756 77.2523H374.747ZM364.488 74.8997C364.418 74.9002 364.348 74.8915 364.279 74.8736C362.911 74.5327 361.566 74.1826 360.261 73.8305C360.142 73.8001 360.029 73.7441 359.929 73.6658C359.83 73.5875 359.745 73.4884 359.681 73.3743C359.617 73.2603 359.574 73.1334 359.556 73.0012C359.537 72.869 359.543 72.7341 359.572 72.6042C359.602 72.4744 359.655 72.3522 359.728 72.2449C359.801 72.1376 359.893 72.0471 359.999 71.9789C360.105 71.9107 360.222 71.866 360.343 71.8475C360.465 71.829 360.589 71.8369 360.707 71.871C362 72.2193 363.342 72.5676 364.695 72.9066C364.916 72.9625 365.111 73.1052 365.242 73.3075C365.374 73.5097 365.432 73.7575 365.406 74.0036C365.381 74.2497 365.273 74.477 365.104 74.6422C364.934 74.8074 364.715 74.8991 364.488 74.8997ZM354.309 72.0889C354.224 72.0884 354.14 72.0759 354.058 72.0516C352.702 71.6381 351.367 71.2134 350.089 70.7887C349.854 70.7107 349.657 70.5341 349.542 70.2977C349.426 70.0614 349.401 69.7848 349.473 69.5286C349.545 69.2725 349.707 69.0578 349.924 68.9319C350.14 68.806 350.394 68.7791 350.63 68.8571C351.895 69.2762 353.215 69.6972 354.562 70.107C354.778 70.1726 354.964 70.321 355.087 70.5248C355.21 70.7286 355.261 70.974 355.231 71.2156C355.201 71.4573 355.091 71.6788 354.923 71.8393C354.754 71.9999 354.538 72.0885 354.314 72.0889H354.309ZM344.303 68.6653C344.198 68.6652 344.093 68.6456 343.994 68.6075C342.645 68.0841 341.338 67.5514 340.112 67.0186C339.996 66.9725 339.889 66.9013 339.798 66.8094C339.707 66.7174 339.634 66.6065 339.584 66.4833C339.533 66.3601 339.505 66.227 339.503 66.092C339.5 65.957 339.522 65.8227 339.568 65.6972C339.614 65.5716 339.682 65.4574 339.769 65.3612C339.856 65.265 339.96 65.1888 340.074 65.1371C340.189 65.0854 340.312 65.0593 340.436 65.0603C340.56 65.0613 340.682 65.0894 340.796 65.1429C341.993 65.6645 343.284 66.1897 344.613 66.7038C344.819 66.7833 344.993 66.9397 345.103 67.1454C345.214 67.3511 345.254 67.5928 345.217 67.8276C345.18 68.0625 345.067 68.2755 344.9 68.4288C344.732 68.5821 344.52 68.6659 344.301 68.6653H344.303ZM334.637 64.2656C334.492 64.2662 334.349 64.2291 334.22 64.1576C331.64 62.7307 330.577 61.8385 330.534 61.8012C330.342 61.6361 330.218 61.3951 330.189 61.1309C330.159 60.8666 330.227 60.6004 330.377 60.3902C330.527 60.18 330.747 60.0428 330.989 60.0084C331.232 59.9741 331.477 60.0454 331.671 60.2068C331.69 60.2235 332.678 61.0413 335.058 62.3563C335.244 62.4592 335.392 62.6272 335.479 62.8332C335.566 63.0391 335.587 63.2711 335.539 63.4916C335.49 63.7122 335.375 63.9085 335.211 64.0489C335.048 64.1893 334.846 64.2656 334.637 64.2656Z" fill="white"/>
<path d="M271.136 1.46523C270.697 3.31566 270.45 5.2137 270.4 7.12386C270.42 7.86622 270.414 8.60857 270.468 9.35093C270.81 14.0519 272.394 18.2815 274.724 22.2067C277.581 27.019 281.273 30.9888 285.395 34.502C286.092 35.0959 286.419 35.6749 286.51 36.6845C287 42.5046 289.35 47.4487 292.778 51.8583C292.988 52.1559 293.282 52.3711 293.615 52.4715C293.948 52.5719 294.301 52.5521 294.623 52.4151C294.951 52.3034 295.238 52.0817 295.443 51.7816C295.648 51.4816 295.761 51.1186 295.765 50.7448C295.816 49.8039 295.85 48.8592 295.935 47.922C296.106 46.0865 296.331 44.264 296.82 42.4916C296.895 42.2207 296.939 41.9182 297.274 41.8347C298.763 41.4353 300.167 40.7256 301.408 39.7449C301.708 39.5185 301.899 39.5593 302.142 39.8488C302.799 40.6246 303.478 41.3818 304.163 42.1316C305.284 43.362 306.713 43.3175 307.938 42.0314C309.133 40.7842 309.195 39.2308 308.109 37.9762C307.457 37.2227 306.805 36.4693 306.126 35.7492C305.829 35.4355 305.813 35.2054 306.066 34.8472C306.925 33.6625 307.576 32.3154 307.985 30.8737C308.126 30.3559 308.35 30.111 308.838 29.9922C311.244 29.437 313.701 29.1798 316.161 29.2257C316.997 29.2257 317.594 28.8156 317.881 28.0584C318.168 27.3011 318.002 26.5402 317.369 25.9278C313.262 21.9098 308.611 19.1334 303.016 18.5302C302.874 18.5201 302.736 18.4743 302.613 18.3964C302.49 18.3184 302.385 18.2105 302.307 18.0811C301.56 16.9675 300.815 15.8688 300.022 14.8054C296.465 10.0376 292.45 5.84143 287.391 2.97408C282.529 0.221784 277.426 -0.713587 272.028 0.561412C271.538 0.676478 271.269 0.880625 271.136 1.46523ZM294.918 41.8161C294.258 44.2417 294.02 46.7398 293.836 49.2397C293.81 49.4048 293.776 49.5684 293.733 49.7296C290.975 45.9436 289.19 41.8792 288.524 37.078C289.458 37.7461 290.263 38.3493 291.096 38.9098C292.254 39.6892 293.428 40.439 294.599 41.1944C294.821 41.3447 295.017 41.456 294.918 41.8161ZM296.516 39.8321C295.881 39.5199 295.269 39.1531 294.688 38.7353C294.517 38.6258 294.688 38.5033 294.787 38.4439C296.042 37.7226 297.25 36.9078 298.402 36.0053C298.429 35.9794 298.46 35.9602 298.494 35.9488C298.529 35.9374 298.565 35.9341 298.6 35.9392C298.636 35.9443 298.67 35.9577 298.7 35.9784C298.73 35.9991 298.756 36.0266 298.776 36.0591C299.246 36.5936 299.717 37.1256 300.189 37.6552C300.327 37.8111 300.373 37.9466 300.175 38.0876C299.068 38.8801 297.9 39.5259 296.516 39.8321ZM306.523 39.2865C306.679 39.461 306.875 39.615 306.865 39.9101C306.81 40.3574 306.505 40.6005 306.182 40.7916C305.859 40.9828 305.646 40.6951 305.446 40.4687C303.109 37.8333 300.773 35.1973 298.438 32.5607C297.448 31.4472 296.459 30.3337 295.471 29.2201C294.959 28.6411 294.973 28.4425 295.423 27.9359C295.874 27.4292 296.181 27.6018 296.558 28.0305C299.873 31.7856 303.193 35.5376 306.517 39.2865H306.523ZM306.192 29.2647C306.239 29.3646 306.266 29.4739 306.271 29.5856C306.277 29.6973 306.262 29.8092 306.226 29.9142C305.871 31.1606 305.333 32.3363 304.632 33.3959C304.461 33.6613 304.318 33.7355 304.12 33.4553L304.076 33.407C303.611 32.867 302.893 32.3937 302.751 31.7664C302.609 31.1391 303.424 30.6306 303.76 30.0256C304.24 29.1626 304.753 28.3237 305.296 27.3884C305.624 28.0788 305.904 28.6782 306.192 29.2702V29.2647ZM315.393 26.8743C315.277 27.1397 315.087 27.045 314.944 27.0599C312.696 27.1954 310.448 27.3234 308.256 27.9396C307.996 28.012 307.834 27.9748 307.705 27.6946C306.655 25.4527 305.486 23.2868 304.25 21.1581C304.22 21.0671 304.202 20.9723 304.195 20.876C308.476 21.7427 312.129 23.8622 315.393 26.8743ZM282.84 3.21905C286.766 4.64253 290.14 7.08303 293.184 10.0859C297.497 14.3322 300.944 19.3338 303.914 24.7474C303.984 24.8509 304.024 24.9749 304.03 25.1036C304.035 25.2322 304.004 25.3596 303.943 25.4694C303.285 26.8985 302.517 28.2644 301.647 29.5523C301.322 30.0367 301.118 30.1555 300.693 29.6377C299.785 28.5242 298.803 27.4997 297.866 26.4215C297.076 25.5121 296.144 25.2058 295.056 25.6345C293.969 26.0633 293.1 27.3698 293.078 28.5613C293.086 29.2902 293.357 29.9866 293.832 30.5007C294.826 31.6142 295.797 32.7482 296.811 33.8413C297.168 34.2273 297.106 34.3981 296.715 34.6765C295.478 35.5737 294.185 36.3767 292.846 37.0799C292.734 37.1559 292.604 37.1944 292.472 37.1904C292.341 37.1864 292.213 37.1402 292.105 37.0576C286.563 33.1268 281.512 28.604 277.542 22.7839C275.57 19.8924 274.027 16.7615 273.122 13.278C272.993 12.7788 273.078 12.5356 273.51 12.2758C276.95 10.2913 279.81 7.29929 281.766 3.63849C282.051 3.09842 282.33 3.03347 282.84 3.21905ZM280.109 2.50824C278.41 5.64595 275.99 8.24859 273.085 10.0599C272.743 10.2807 272.559 10.3271 272.508 9.77036C272.315 7.60233 272.404 5.41547 272.774 3.27473C272.868 2.71796 273.099 2.51381 273.612 2.42844C275.766 2.04896 277.964 2.07596 280.109 2.50824Z" fill="white"/>
<path d="M277.764 15.83C277.682 20.1913 280.722 23.6525 284.702 23.7323C286.113 23.7725 287.503 23.3562 288.696 22.5364C289.889 21.7166 290.831 20.5302 291.403 19.1275C291.975 17.7247 292.152 16.1689 291.909 14.6572C291.667 13.1456 291.018 11.7461 290.043 10.6362C289.069 9.52634 287.813 8.75606 286.436 8.423C285.058 8.08995 283.62 8.20913 282.305 8.76543C280.99 9.32173 279.856 10.2901 279.048 11.5478C278.239 12.8055 277.792 14.2958 277.764 15.83ZM289.909 16.1028C289.854 19.2578 287.609 21.6333 284.733 21.5758C283.385 21.5225 282.11 20.8954 281.183 19.8296C280.256 18.7638 279.752 17.3447 279.778 15.8782C279.804 14.4116 280.36 13.0151 281.324 11.9896C282.289 10.9641 283.586 10.3917 284.935 10.3959C287.783 10.459 289.96 12.957 289.909 16.1028ZM319.563 50.6521C319.557 50.9475 319.525 51.2416 319.466 51.5299C319.146 53.1 318.329 53.7366 317.699 53.9946C315.589 54.8594 312.578 52.8235 311.53 52.0292C311.557 52.7177 311.487 53.6011 310.748 54.0818C309.328 55.0097 308.232 54.2266 306.962 53.3246L306.621 53.0852C304.458 51.5652 302.924 48.7424 303.207 46.79C303.264 46.3175 303.452 45.8751 303.746 45.5222C304.041 45.1692 304.427 44.9226 304.854 44.8153C307.02 44.1713 309.18 43.2044 309.702 39.1938V39.1418L309.716 39.0917C310.1 37.6367 310.941 37.1152 311.58 36.9333C313.433 36.4081 315.847 38.0951 317.021 39.3571C318.581 41.0367 319.923 42.4843 319.542 43.7408C319.361 44.3365 318.86 44.704 318.03 44.8302C317.438 44.9211 317.189 45.0362 317.095 45.0956C317.171 45.3461 317.532 45.8658 317.801 46.2555C318.576 47.3672 319.594 48.8389 319.563 50.6521ZM310.124 51.2311C310.124 50.8358 310.219 50.448 310.583 50.229C311.144 49.8875 311.745 50.3682 312.069 50.6261C313.7 51.9252 316.007 53.1019 317.218 52.6064C317.682 52.4208 317.982 51.9605 318.134 51.2089C318.45 49.6518 317.487 48.2636 316.714 47.1482C316.055 46.1961 315.485 45.3758 315.809 44.5239C316.113 43.724 317.054 43.4828 317.841 43.3621C317.979 43.3469 318.115 43.3075 318.242 43.2452C318.172 42.6885 316.758 41.1592 316.067 40.415C314.927 39.1864 313.022 38.058 311.926 38.3735C311.653 38.4496 311.267 38.6482 311.042 39.4592C310.421 44.0841 307.874 45.4575 305.213 46.2499C305.04 46.2822 304.883 46.375 304.763 46.5141C304.644 46.6532 304.57 46.8309 304.552 47.0201C304.382 48.2432 305.544 50.5649 307.363 51.8454L307.705 52.0904C308.958 52.9813 309.386 53.2429 310.042 52.8161C310.212 52.7066 310.166 52.109 310.141 51.7508C310.127 51.578 310.121 51.4046 310.124 51.2311Z" fill="white"/>
<path d="M310.798 48.9263C308.883 48.2935 308.145 46.8978 310.876 44.4146C313.607 41.9315 314.833 47.6847 314.995 49.1954C315.157 50.7061 312.639 49.5332 310.798 48.9263Z" fill="white"/>
<path d="M111.412 459C111.042 459 110.687 458.84 110.425 458.556C110.164 458.271 110.017 457.885 110.017 457.482C110.017 457.08 110.164 456.694 110.425 456.409C110.687 456.125 111.042 455.965 111.412 455.965C113.443 455.945 115.515 455.895 117.589 455.816C117.775 455.804 117.961 455.832 118.137 455.9C118.313 455.967 118.474 456.072 118.612 456.209C118.75 456.345 118.861 456.51 118.939 456.694C119.017 456.878 119.061 457.077 119.067 457.279C119.074 457.482 119.043 457.684 118.976 457.873C118.91 458.062 118.809 458.235 118.68 458.381C118.551 458.528 118.397 458.644 118.226 458.725C118.055 458.805 117.871 458.847 117.684 458.849C115.599 458.93 113.502 458.98 111.448 459H111.412ZM101.801 458.882H101.755C99.6544 458.807 97.5567 458.698 95.5157 458.558C95.1464 458.532 94.8016 458.348 94.5571 458.046C94.3126 457.743 94.1885 457.348 94.212 456.946C94.2356 456.544 94.4049 456.169 94.6827 455.903C94.9605 455.637 95.324 455.502 95.6933 455.528C97.7035 455.665 99.7754 455.774 101.845 455.847C102.215 455.853 102.567 456.019 102.825 456.308C103.082 456.597 103.224 456.986 103.218 457.389C103.212 457.791 103.06 458.175 102.794 458.455C102.528 458.735 102.171 458.889 101.801 458.882ZM127.213 458.294C126.855 458.289 126.512 458.134 126.257 457.861C126.001 457.588 125.851 457.219 125.839 456.83C125.826 456.441 125.952 456.061 126.189 455.77C126.427 455.478 126.758 455.298 127.115 455.265C129.141 455.108 131.212 454.92 133.266 454.705C133.629 454.678 133.987 454.807 134.264 455.064C134.54 455.321 134.714 455.685 134.748 456.079C134.781 456.473 134.672 456.865 134.443 457.173C134.215 457.481 133.885 457.679 133.524 457.726C131.447 457.936 129.357 458.124 127.311 458.286L127.213 458.294ZM86.031 457.639C85.9771 457.643 85.9229 457.643 85.8689 457.639C83.7789 457.379 81.6941 457.079 79.6685 456.74C79.3026 456.679 78.9739 456.463 78.7548 456.138C78.5356 455.814 78.444 455.408 78.4999 455.01C78.5559 454.612 78.755 454.254 79.0533 454.016C79.3516 453.777 79.7247 453.678 80.0906 453.738C82.0802 454.069 84.1315 454.369 86.188 454.623C86.5443 454.664 86.8725 454.853 87.1046 455.15C87.3367 455.446 87.4549 455.829 87.4347 456.218C87.4145 456.607 87.2575 456.973 86.9962 457.24C86.7349 457.506 86.3893 457.653 86.031 457.65V457.639ZM142.952 456.597C142.596 456.598 142.254 456.452 141.994 456.187C141.735 455.922 141.578 455.56 141.556 455.174C141.534 454.788 141.648 454.407 141.876 454.109C142.103 453.812 142.426 453.62 142.779 453.573C144.813 453.293 146.869 452.985 148.895 452.66C149.078 452.626 149.266 452.632 149.447 452.678C149.628 452.724 149.798 452.809 149.949 452.927C150.099 453.046 150.227 453.196 150.323 453.369C150.419 453.542 150.483 453.734 150.51 453.934C150.538 454.134 150.528 454.337 150.482 454.533C150.436 454.729 150.354 454.913 150.241 455.074C150.129 455.235 149.988 455.37 149.827 455.471C149.666 455.572 149.488 455.637 149.304 455.662C147.258 455.993 145.186 456.301 143.127 456.583C143.069 456.59 143.01 456.593 142.952 456.592V456.597ZM70.4309 454.845C70.3296 454.845 70.2286 454.833 70.1298 454.808C68.0707 454.318 66.0116 453.775 64.0426 453.198C63.8657 453.146 63.6998 453.057 63.5545 452.936C63.4092 452.814 63.2873 452.663 63.1958 452.49C63.1042 452.318 63.0448 452.127 63.021 451.93C62.9972 451.732 63.0093 451.531 63.0568 451.339C63.1043 451.146 63.1862 450.966 63.2978 450.808C63.4094 450.65 63.5485 450.517 63.7072 450.417C63.8659 450.318 64.041 450.253 64.2227 450.227C64.4043 450.201 64.5889 450.215 64.7659 450.266C66.7014 450.826 68.7064 451.361 70.7269 451.843C71.0642 451.921 71.3628 452.133 71.5651 452.437C71.7673 452.741 71.8589 453.116 71.8221 453.489C71.7853 453.862 71.6227 454.207 71.3658 454.457C71.1089 454.708 70.7758 454.846 70.4309 454.845ZM158.588 453.979C158.24 453.98 157.903 453.84 157.646 453.585C157.388 453.33 157.227 452.98 157.195 452.602C157.162 452.225 157.261 451.848 157.471 451.546C157.681 451.244 157.988 451.038 158.331 450.969C160.408 450.557 162.449 450.129 164.389 449.689C164.571 449.643 164.759 449.636 164.943 449.67C165.127 449.703 165.303 449.777 165.46 449.886C165.618 449.995 165.753 450.137 165.859 450.304C165.965 450.471 166.039 450.659 166.077 450.858C166.115 451.057 166.116 451.262 166.08 451.461C166.043 451.66 165.971 451.849 165.866 452.017C165.762 452.185 165.627 452.328 165.471 452.439C165.314 452.55 165.139 452.625 164.956 452.66C162.992 453.103 160.93 453.54 158.83 453.954C158.75 453.968 158.669 453.975 158.588 453.974V453.979ZM55.2349 450.137C55.0743 450.137 54.9149 450.107 54.7639 450.048C52.7717 449.269 50.8053 448.432 48.9186 447.553C48.5773 447.395 48.3078 447.095 48.1692 446.721C48.0307 446.347 48.0345 445.928 48.1799 445.556C48.3253 445.185 48.6004 444.892 48.9446 444.741C49.2887 444.59 49.6738 444.595 50.0151 444.753C51.8528 445.61 53.7678 446.433 55.7059 447.183C56.0148 447.304 56.2747 447.54 56.4397 447.849C56.6047 448.157 56.6643 448.52 56.6081 448.871C56.5518 449.223 56.3832 449.542 56.1321 449.772C55.8809 450.002 55.5632 450.129 55.2349 450.129V450.137ZM40.8419 443.089C40.6049 443.088 40.3721 443.022 40.165 442.896C38.3144 441.776 36.4998 440.58 34.7779 439.343C34.469 439.12 34.2541 438.773 34.1805 438.378C34.1069 437.982 34.1806 437.572 34.3854 437.236C34.5902 436.9 34.9093 436.666 35.2725 436.586C35.6357 436.506 36.0133 436.586 36.3222 436.809C37.9875 438.004 39.7403 439.161 41.5317 440.244C41.8023 440.408 42.0153 440.664 42.1373 440.974C42.2592 441.283 42.2832 441.628 42.2053 441.953C42.1275 442.279 41.9524 442.568 41.7074 442.773C41.4625 442.979 41.1616 443.09 40.8522 443.089H40.8419ZM27.8748 433.317C27.5413 433.317 27.2187 433.187 26.9663 432.95C25.3653 431.455 23.8133 429.87 22.3539 428.254C22.2256 428.112 22.1244 427.943 22.0559 427.758C21.9875 427.574 21.9532 427.376 21.955 427.177C21.9568 426.977 21.9946 426.78 22.0664 426.597C22.1382 426.413 22.2424 426.247 22.3732 426.108C22.504 425.968 22.6588 425.858 22.8287 425.783C22.9987 425.709 23.1805 425.672 23.3637 425.674C23.5469 425.676 23.7279 425.717 23.8965 425.795C24.065 425.873 24.2178 425.986 24.3461 426.129C25.7488 427.688 27.2416 429.209 28.7834 430.648C28.9993 430.85 29.1533 431.119 29.2246 431.419C29.2959 431.719 29.2811 432.036 29.1822 432.326C29.0832 432.617 28.9049 432.867 28.6712 433.044C28.4375 433.222 28.1596 433.317 27.8748 433.317ZM17.129 420.761C16.9106 420.761 16.6952 420.706 16.5002 420.599C16.3052 420.492 16.1362 420.336 16.0068 420.145C14.7662 418.313 13.5797 416.395 12.4858 414.438C12.3856 414.268 12.3177 414.077 12.2862 413.878C12.2546 413.679 12.2599 413.474 12.3019 413.277C12.3439 413.08 12.4216 412.895 12.5305 412.731C12.6395 412.567 12.7774 412.428 12.9362 412.323C13.095 412.218 13.2715 412.149 13.4554 412.119C13.6392 412.089 13.8267 412.1 14.0068 412.15C14.1868 412.2 14.3559 412.289 14.504 412.411C14.6521 412.533 14.7762 412.686 14.8692 412.861C15.9219 414.74 17.0595 416.583 18.2512 418.341C18.4046 418.567 18.4973 418.835 18.5191 419.115C18.5409 419.395 18.4908 419.676 18.3745 419.927C18.2581 420.178 18.0801 420.388 17.8602 420.536C17.6403 420.683 17.3872 420.761 17.129 420.761ZM9.21695 405.92C8.95018 405.92 8.68904 405.836 8.46424 405.68C8.23944 405.524 8.06036 405.301 7.94806 405.038C7.05751 402.935 6.23387 400.818 5.49517 398.74C5.41994 398.553 5.38037 398.35 5.37883 398.146C5.37728 397.941 5.41382 397.738 5.48622 397.549C5.55861 397.36 5.66537 397.189 5.80009 397.046C5.93482 396.903 6.09474 396.792 6.27019 396.718C6.44563 396.644 6.633 396.609 6.82102 396.616C7.00905 396.623 7.19384 396.672 7.36429 396.758C7.53474 396.845 7.68733 396.968 7.81286 397.12C7.9384 397.273 8.03427 397.451 8.09476 397.645C8.81286 399.664 9.61591 401.722 10.4833 403.766C10.5599 403.948 10.6029 404.143 10.61 404.342C10.617 404.542 10.5879 404.74 10.5243 404.927C10.4608 405.114 10.3639 405.286 10.2394 405.432C10.1149 405.578 9.96513 405.696 9.79865 405.78C9.61629 405.871 9.41773 405.918 9.21695 405.917V405.92ZM3.81186 389.777C3.50558 389.777 3.20783 389.667 2.96455 389.465C2.72127 389.262 2.54598 388.978 2.46574 388.657C1.92008 386.417 1.46195 384.176 1.09904 381.953C1.0422 381.561 1.12905 381.16 1.34097 380.836C1.55289 380.512 1.87297 380.292 2.23248 380.223C2.592 380.153 2.9623 380.239 3.26385 380.464C3.5654 380.688 3.77415 381.031 3.84532 381.421C4.19537 383.549 4.63807 385.722 5.16313 387.884C5.25724 388.273 5.20548 388.687 5.01917 389.034C4.83287 389.382 4.52728 389.635 4.16963 389.738C4.05311 389.766 3.93377 389.778 3.81444 389.774L3.81186 389.777ZM1.4362 372.808C1.07541 372.807 0.728818 372.655 0.469182 372.382C0.209545 372.11 0.0570799 371.738 0.0437668 371.346C0.0154544 370.506 0 369.635 0 368.792C0 367.344 0.043753 365.886 0.126116 364.455C0.137608 364.256 0.184991 364.061 0.265586 363.882C0.34618 363.703 0.458404 363.543 0.595832 363.411C0.733259 363.28 0.893215 363.178 1.06655 363.114C1.23989 363.049 1.42322 363.022 1.60608 363.035C1.78894 363.048 1.96775 363.099 2.13229 363.187C2.29683 363.274 2.44388 363.397 2.56506 363.546C2.68623 363.696 2.77917 363.87 2.83853 364.058C2.89789 364.247 2.9225 364.446 2.91101 364.645C2.83122 366.014 2.79005 367.409 2.79005 368.792C2.79005 369.599 2.8055 370.419 2.83124 371.237C2.84445 371.639 2.71033 372.03 2.45839 372.325C2.20644 372.619 1.8573 372.793 1.48769 372.808H1.4362ZM2.88528 355.746C2.78047 355.745 2.67605 355.732 2.57385 355.707C2.39521 355.663 2.22633 355.58 2.07687 355.465C1.9274 355.35 1.80028 355.204 1.70276 355.035C1.60524 354.866 1.53925 354.678 1.50853 354.482C1.4778 354.285 1.48298 354.084 1.52373 353.89C1.99395 351.649 2.57214 349.436 3.25593 347.262C3.30941 347.066 3.39873 346.883 3.51856 346.726C3.6384 346.568 3.78627 346.439 3.95328 346.345C4.12029 346.251 4.303 346.195 4.49045 346.18C4.6779 346.165 4.86621 346.191 5.04409 346.257C5.22196 346.323 5.38573 346.428 5.52555 346.564C5.66538 346.701 5.77839 346.867 5.85778 347.052C5.93717 347.238 5.98129 347.439 5.98754 347.643C5.99378 347.847 5.96203 348.051 5.89413 348.242C5.24404 350.317 4.69335 352.427 4.24428 354.564C4.1739 354.899 4.0015 355.197 3.75518 355.411C3.50886 355.625 3.20313 355.742 2.88786 355.743L2.88528 355.746ZM8.38818 339.698C8.16041 339.697 7.93621 339.637 7.73444 339.522C7.40788 339.333 7.16353 339.011 7.05497 338.626C6.94642 338.241 6.98251 337.825 7.15532 337.469C8.13081 335.467 9.21439 333.473 10.3881 331.544C10.4833 331.364 10.6115 331.207 10.7647 331.083C10.9179 330.96 11.0929 330.871 11.2787 330.824C11.4646 330.776 11.6574 330.771 11.8453 330.808C12.0331 330.845 12.2121 330.923 12.3709 331.039C12.5297 331.154 12.6651 331.303 12.7688 331.478C12.8724 331.652 12.942 331.848 12.9732 332.053C13.0045 332.258 12.9968 332.467 12.9506 332.669C12.9044 332.87 12.8206 333.059 12.7045 333.224C11.5823 335.072 10.5425 336.982 9.61591 338.897C9.49694 339.138 9.32024 339.34 9.10453 339.48C8.88883 339.621 8.64217 339.695 8.39075 339.695L8.38818 339.698ZM17.3761 325.599C17.1075 325.6 16.8445 325.516 16.6187 325.358C16.3928 325.2 16.2137 324.974 16.1028 324.708C15.9919 324.442 15.954 324.147 15.9936 323.858C16.0331 323.569 16.1485 323.299 16.3259 323.079C17.6875 321.399 19.1572 319.719 20.6629 318.1C20.794 317.961 20.9491 317.851 21.1193 317.777C21.2895 317.703 21.4715 317.666 21.6548 317.668C21.8381 317.671 22.0192 317.712 22.1877 317.791C22.3562 317.869 22.5089 317.983 22.637 318.126C22.7651 318.268 22.8661 318.437 22.9343 318.622C23.0025 318.807 23.0365 319.005 23.0343 319.205C23.0322 319.404 22.9939 319.601 22.9218 319.785C22.8496 319.968 22.745 320.134 22.6139 320.273C21.1468 321.83 19.7389 323.446 18.4262 325.079C18.2955 325.241 18.1345 325.371 17.9538 325.461C17.7732 325.55 17.5771 325.596 17.3787 325.597L17.3761 325.599ZM28.876 313.839C28.5856 313.839 28.3024 313.74 28.0659 313.557C27.8294 313.373 27.6514 313.114 27.5567 312.815C27.4621 312.517 27.4555 312.193 27.5379 311.89C27.6203 311.587 27.7876 311.32 28.0164 311.125C29.6379 309.745 31.3444 308.387 33.0894 307.087C33.3947 306.876 33.7638 306.801 34.1184 306.88C34.4731 306.959 34.7858 307.185 34.9903 307.51C35.1948 307.835 35.2751 308.234 35.2143 308.622C35.1536 309.01 34.9565 309.358 34.6646 309.591C32.9685 310.854 31.3186 312.175 29.7332 313.511C29.4902 313.721 29.189 313.836 28.8786 313.836L28.876 313.839ZM42.0439 304.349C41.7349 304.35 41.4344 304.239 41.1895 304.034C40.9446 303.829 40.7692 303.541 40.6909 303.216C40.6126 302.891 40.6357 302.546 40.7567 302.237C40.8776 301.928 41.0896 301.671 41.3592 301.507C43.1609 300.412 45.0167 299.339 46.9059 298.323C47.2358 298.157 47.6123 298.138 47.955 298.269C48.2978 298.401 48.5799 298.672 48.7413 299.027C48.9026 299.381 48.9304 299.79 48.8189 300.166C48.7073 300.543 48.4652 300.857 48.1439 301.042C46.2985 302.036 44.4736 303.083 42.7388 304.153C42.5274 304.281 42.2888 304.348 42.0465 304.346L42.0439 304.349ZM56.2927 296.917C55.9702 296.914 55.6585 296.79 55.4108 296.565C55.163 296.341 54.9944 296.03 54.9337 295.685C54.873 295.34 54.924 294.984 55.0779 294.675C55.2318 294.367 55.4792 294.126 55.778 293.994C57.6852 293.154 59.6542 292.336 61.6309 291.572C61.9797 291.437 62.3635 291.458 62.6977 291.631C63.032 291.804 63.2894 292.115 63.4133 292.494C63.5372 292.874 63.5175 293.291 63.3584 293.655C63.1994 294.019 62.914 294.299 62.5652 294.433C60.6271 295.181 58.7044 295.979 56.8255 296.805C56.6571 296.879 56.4769 296.916 56.2953 296.914L56.2927 296.917ZM71.2443 291.348C70.9069 291.348 70.5806 291.216 70.326 290.975C70.0714 290.734 69.9056 290.401 69.8594 290.038C69.8133 289.674 69.8898 289.304 70.0749 288.997C70.2599 288.691 70.5409 288.467 70.8659 288.368C72.8529 287.755 74.8888 287.175 76.917 286.643C77.2768 286.549 77.6562 286.614 77.9719 286.824C78.2876 287.034 78.5136 287.372 78.6003 287.763C78.687 288.155 78.6273 288.567 78.4342 288.911C78.2411 289.254 77.9305 289.5 77.5708 289.595C75.5786 290.115 73.5788 290.687 71.6252 291.275C71.5027 291.317 71.3753 291.341 71.2468 291.345L71.2443 291.348ZM86.6514 287.489C86.3004 287.494 85.9605 287.355 85.6995 287.1C85.4384 286.845 85.2754 286.492 85.2429 286.112C85.2104 285.732 85.3109 285.352 85.5243 285.049C85.7376 284.746 86.0481 284.541 86.394 284.476C88.4273 284.081 90.5121 283.72 92.5712 283.403C92.7551 283.37 92.9433 283.376 93.1248 283.423C93.3063 283.469 93.4774 283.555 93.6279 283.675C93.7785 283.795 93.9053 283.946 94.0012 284.12C94.097 284.294 94.1597 284.487 94.1857 284.688C94.2117 284.889 94.2004 285.094 94.1525 285.29C94.1045 285.486 94.021 285.67 93.9067 285.83C93.7924 285.99 93.6497 286.124 93.4871 286.223C93.3244 286.323 93.1452 286.385 92.9599 286.408C90.9317 286.719 88.888 287.074 86.8881 287.464C86.8108 287.478 86.7324 287.486 86.6539 287.486L86.6514 287.489ZM102.331 285.249C101.964 285.261 101.607 285.115 101.338 284.843C101.069 284.571 100.91 284.194 100.895 283.795C100.88 283.395 101.01 283.006 101.257 282.71C101.504 282.415 101.849 282.237 102.215 282.216C104.275 282.029 106.385 281.88 108.462 281.774C108.832 281.755 109.193 281.896 109.467 282.167C109.741 282.438 109.904 282.816 109.922 283.219C109.939 283.621 109.809 284.014 109.56 284.312C109.311 284.609 108.963 284.787 108.593 284.806C106.55 284.91 104.475 285.056 102.447 285.243L102.331 285.249ZM118.145 284.56C117.962 284.561 117.78 284.524 117.61 284.449C117.441 284.374 117.286 284.263 117.156 284.123C117.025 283.983 116.921 283.817 116.85 283.633C116.778 283.45 116.741 283.253 116.74 283.053C116.738 282.854 116.773 282.656 116.842 282.472C116.911 282.287 117.012 282.119 117.141 281.977C117.27 281.835 117.423 281.722 117.591 281.644C117.76 281.567 117.941 281.526 118.124 281.524C120.034 281.496 122.104 281.462 124.335 281.421H124.358C124.728 281.418 125.084 281.575 125.348 281.857C125.611 282.14 125.761 282.525 125.764 282.927C125.766 283.33 125.622 283.717 125.362 284.004C125.103 284.291 124.749 284.453 124.379 284.456C122.148 284.495 120.077 284.53 118.166 284.56H118.145ZM134.003 284.28C133.633 284.284 133.276 284.127 133.012 283.845C132.748 283.563 132.598 283.179 132.595 282.776C132.591 282.374 132.735 281.986 132.994 281.699C133.253 281.412 133.607 281.248 133.977 281.244C135.964 281.205 138.034 281.161 140.188 281.113H140.216C140.586 281.109 140.942 281.265 141.206 281.546C141.471 281.828 141.621 282.213 141.625 282.615C141.629 283.018 141.485 283.405 141.226 283.693C140.967 283.98 140.614 284.144 140.244 284.148C138.089 284.197 136.017 284.241 134.028 284.28H134.003ZM149.85 283.93C149.48 283.934 149.123 283.778 148.859 283.496C148.595 283.214 148.444 282.83 148.441 282.428C148.437 282.025 148.58 281.637 148.839 281.35C149.098 281.062 149.451 280.899 149.821 280.894L156.027 280.743H156.06C156.43 280.739 156.787 280.894 157.051 281.176C157.316 281.457 157.467 281.842 157.471 282.244C157.475 282.647 157.332 283.034 157.073 283.322C156.814 283.61 156.461 283.774 156.091 283.779L149.881 283.93H149.85ZM165.689 283.532C165.319 283.537 164.963 283.382 164.698 283.101C164.433 282.819 164.282 282.435 164.277 282.033C164.273 281.63 164.416 281.242 164.674 280.954C164.933 280.666 165.286 280.502 165.656 280.497L171.861 280.329C172.231 280.319 172.59 280.469 172.858 280.747C173.126 281.024 173.282 281.406 173.291 281.809C173.3 282.211 173.162 282.601 172.907 282.893C172.652 283.185 172.301 283.354 171.931 283.364L165.723 283.532H165.689ZM181.521 283.09C181.151 283.095 180.794 282.94 180.529 282.659C180.264 282.378 180.113 281.994 180.108 281.592C180.103 281.189 180.246 280.801 180.504 280.513C180.762 280.225 181.115 280.06 181.485 280.054L187.688 279.872C187.875 279.86 188.062 279.889 188.238 279.957C188.414 280.025 188.576 280.13 188.714 280.268C188.852 280.405 188.963 280.571 189.041 280.757C189.119 280.942 189.162 281.142 189.167 281.345C189.172 281.549 189.14 281.751 189.071 281.941C189.003 282.13 188.901 282.303 188.77 282.448C188.639 282.594 188.483 282.709 188.31 282.788C188.138 282.866 187.952 282.906 187.765 282.905L181.56 283.09H181.521ZM197.348 282.608C196.988 282.598 196.645 282.436 196.392 282.157C196.139 281.878 195.995 281.504 195.99 281.112C195.985 280.72 196.12 280.342 196.365 280.055C196.611 279.769 196.949 279.597 197.309 279.576L203.512 279.377C203.698 279.364 203.885 279.393 204.062 279.461C204.238 279.528 204.4 279.634 204.538 279.771C204.676 279.908 204.787 280.074 204.865 280.259C204.943 280.444 204.986 280.644 204.991 280.847C204.997 281.05 204.965 281.252 204.897 281.442C204.829 281.631 204.727 281.804 204.597 281.95C204.466 282.096 204.311 282.211 204.138 282.29C203.966 282.369 203.781 282.41 203.594 282.409L197.389 282.608H197.348ZM213.172 282.09C212.988 282.093 212.807 282.057 212.636 281.983C212.466 281.91 212.311 281.8 212.179 281.661C211.914 281.381 211.762 280.997 211.756 280.595C211.751 280.192 211.892 279.804 212.15 279.515C212.408 279.226 212.76 279.061 213.13 279.055C215.179 278.986 217.246 278.914 219.331 278.839C219.514 278.833 219.697 278.866 219.868 278.936C220.04 279.006 220.197 279.113 220.331 279.249C220.464 279.385 220.572 279.549 220.648 279.731C220.723 279.912 220.765 280.109 220.771 280.308C220.777 280.507 220.747 280.706 220.682 280.892C220.617 281.079 220.52 281.25 220.394 281.395C220.269 281.541 220.118 281.658 219.951 281.74C219.784 281.822 219.604 281.868 219.421 281.874C217.334 281.947 215.266 282.018 213.215 282.087L213.172 282.09ZM228.993 281.53C228.623 281.537 228.266 281.383 228 281.103C227.734 280.824 227.581 280.44 227.575 280.038C227.569 279.635 227.71 279.246 227.967 278.957C228.224 278.668 228.577 278.501 228.947 278.495C231.006 278.422 233.074 278.345 235.15 278.265C235.52 278.251 235.88 278.398 236.15 278.673C236.421 278.948 236.58 279.328 236.592 279.731C236.605 280.134 236.47 280.525 236.218 280.819C235.965 281.114 235.615 281.287 235.245 281.3L229.042 281.53H228.993ZM244.812 280.934C244.442 280.941 244.085 280.788 243.818 280.508C243.552 280.228 243.399 279.845 243.393 279.443C243.386 279.04 243.527 278.651 243.784 278.362C244.041 278.072 244.393 277.905 244.763 277.898L250.964 277.652C251.334 277.637 251.694 277.783 251.965 278.057C252.236 278.331 252.396 278.711 252.41 279.114C252.424 279.516 252.29 279.908 252.038 280.203C251.786 280.498 251.436 280.672 251.066 280.687L244.864 280.931L244.812 280.934ZM260.628 280.295C260.258 280.303 259.901 280.15 259.634 279.87C259.368 279.591 259.214 279.208 259.208 278.806C259.201 278.403 259.341 278.014 259.598 277.724C259.855 277.434 260.207 277.267 260.577 277.26L266.775 276.999C267.141 276.99 267.495 277.138 267.762 277.41C268.029 277.683 268.187 278.059 268.201 278.456C268.216 278.854 268.086 279.243 267.84 279.537C267.594 279.832 267.251 280.01 266.885 280.032L260.682 280.292L260.628 280.295ZM276.445 279.615C276.084 279.608 275.74 279.449 275.484 279.172C275.229 278.895 275.082 278.521 275.074 278.128C275.067 277.736 275.2 277.355 275.445 277.067C275.69 276.779 276.028 276.605 276.388 276.582L282.586 276.302C282.953 276.29 283.31 276.436 283.579 276.708C283.848 276.98 284.007 277.357 284.022 277.756C284.038 278.155 283.907 278.545 283.66 278.841C283.413 279.136 283.069 279.314 282.702 279.335L276.501 279.615H276.445ZM292.256 278.895C291.886 278.904 291.528 278.752 291.261 278.473C290.994 278.195 290.839 277.812 290.831 277.41C290.823 277.007 290.963 276.618 291.219 276.327C291.475 276.036 291.827 275.868 292.197 275.86L298.395 275.58C298.578 275.571 298.76 275.602 298.932 275.67C299.105 275.738 299.263 275.843 299.398 275.977C299.533 276.112 299.642 276.274 299.719 276.455C299.797 276.636 299.841 276.831 299.849 277.03C299.857 277.229 299.828 277.428 299.766 277.615C299.703 277.803 299.607 277.975 299.483 278.122C299.359 278.269 299.21 278.388 299.044 278.472C298.878 278.556 298.699 278.604 298.516 278.612L292.315 278.892L292.256 278.895ZM308.064 278.131C307.694 278.14 307.336 277.988 307.069 277.71C306.802 277.432 306.647 277.049 306.639 276.647C306.63 276.244 306.769 275.854 307.025 275.564C307.281 275.273 307.633 275.104 308.003 275.095L314.198 274.784C314.385 274.767 314.573 274.791 314.752 274.854C314.93 274.918 315.095 275.02 315.236 275.155C315.377 275.289 315.492 275.453 315.574 275.637C315.655 275.821 315.702 276.021 315.711 276.225C315.719 276.429 315.69 276.633 315.625 276.824C315.56 277.016 315.46 277.191 315.331 277.339C315.202 277.488 315.047 277.606 314.874 277.688C314.702 277.769 314.517 277.812 314.329 277.814L308.131 278.128L308.064 278.131ZM323.873 277.319C323.69 277.323 323.508 277.289 323.337 277.217C323.166 277.145 323.01 277.037 322.877 276.9C322.744 276.762 322.638 276.598 322.564 276.415C322.489 276.233 322.449 276.037 322.445 275.837C322.44 275.638 322.472 275.44 322.538 275.254C322.604 275.068 322.703 274.898 322.83 274.753C322.956 274.609 323.107 274.493 323.275 274.413C323.442 274.332 323.623 274.288 323.806 274.283C325.865 274.177 327.93 274.067 330.001 273.953C330.184 273.943 330.367 273.972 330.54 274.039C330.713 274.106 330.871 274.21 331.007 274.343C331.143 274.477 331.254 274.639 331.332 274.819C331.41 274.999 331.456 275.194 331.465 275.394C331.474 275.593 331.447 275.792 331.385 275.98C331.324 276.167 331.229 276.34 331.106 276.488C330.983 276.636 330.834 276.756 330.668 276.841C330.503 276.926 330.323 276.975 330.14 276.985L323.943 277.316L323.873 277.319ZM339.677 276.456C339.315 276.452 338.969 276.296 338.712 276.02C338.454 275.744 338.305 275.37 338.296 274.976C338.287 274.583 338.419 274.201 338.663 273.912C338.908 273.622 339.246 273.447 339.607 273.424L345.802 273.074C345.988 273.057 346.176 273.081 346.353 273.144C346.531 273.207 346.695 273.309 346.835 273.443C346.976 273.576 347.091 273.739 347.172 273.922C347.254 274.105 347.301 274.303 347.311 274.506C347.321 274.709 347.293 274.912 347.229 275.103C347.166 275.294 347.068 275.469 346.941 275.618C346.814 275.767 346.66 275.887 346.49 275.97C346.32 276.054 346.136 276.099 345.949 276.103L339.751 276.456H339.677ZM355.48 275.543C355.118 275.541 354.771 275.385 354.513 275.109C354.255 274.834 354.105 274.46 354.095 274.066C354.085 273.673 354.217 273.29 354.461 273C354.706 272.71 355.044 272.534 355.405 272.511L361.598 272.138C361.783 272.122 361.97 272.147 362.146 272.21C362.323 272.274 362.486 272.375 362.626 272.508C362.766 272.641 362.88 272.803 362.962 272.985C363.043 273.166 363.091 273.364 363.101 273.566C363.112 273.768 363.085 273.97 363.022 274.16C362.96 274.351 362.863 274.526 362.738 274.675C362.613 274.824 362.461 274.945 362.292 275.03C362.123 275.114 361.941 275.161 361.755 275.168L355.557 275.543H355.48ZM371.281 274.577C370.911 274.589 370.552 274.44 370.283 274.163C370.014 273.887 369.857 273.505 369.846 273.103C369.835 272.7 369.972 272.31 370.226 272.017C370.48 271.724 370.831 271.553 371.201 271.542L377.417 271.147C377.601 271.135 377.784 271.163 377.958 271.228C378.132 271.294 378.292 271.396 378.429 271.529C378.567 271.662 378.679 271.823 378.759 272.003C378.839 272.183 378.886 272.378 378.897 272.578C378.908 272.778 378.882 272.978 378.822 273.167C378.762 273.356 378.668 273.53 378.546 273.679C378.424 273.829 378.276 273.951 378.11 274.038C377.945 274.125 377.765 274.176 377.582 274.188L371.363 274.586L371.281 274.577ZM387.115 273.547C386.753 273.547 386.404 273.393 386.144 273.119C385.883 272.844 385.732 272.47 385.721 272.075C385.71 271.681 385.84 271.297 386.085 271.006C386.329 270.715 386.668 270.538 387.03 270.514L393.223 270.091C393.406 270.079 393.589 270.106 393.763 270.17C393.936 270.235 394.096 270.336 394.233 270.468C394.371 270.6 394.483 270.76 394.563 270.939C394.644 271.118 394.691 271.312 394.703 271.511C394.714 271.71 394.69 271.909 394.63 272.098C394.571 272.287 394.478 272.461 394.357 272.61C394.236 272.76 394.089 272.882 393.924 272.969C393.76 273.057 393.581 273.109 393.398 273.121L387.203 273.544L387.115 273.547ZM402.896 272.455C402.542 272.441 402.206 272.282 401.956 272.01C401.706 271.737 401.561 271.372 401.55 270.987C401.538 270.602 401.661 270.227 401.895 269.938C402.128 269.648 402.453 269.466 402.805 269.428L408.983 268.982C409.169 268.962 409.356 268.983 409.535 269.044C409.713 269.104 409.879 269.203 410.022 269.334C410.164 269.465 410.281 269.627 410.366 269.808C410.45 269.99 410.5 270.188 410.512 270.391C410.525 270.593 410.5 270.797 410.439 270.989C410.378 271.181 410.282 271.358 410.157 271.509C410.031 271.66 409.88 271.782 409.71 271.868C409.541 271.954 409.357 272.002 409.171 272.009L402.993 272.457L402.896 272.455ZM418.666 271.293C418.308 271.286 417.966 271.131 417.71 270.858C417.455 270.585 417.306 270.216 417.294 269.827C417.281 269.438 417.407 269.059 417.645 268.767C417.882 268.476 418.214 268.296 418.57 268.263C420.629 268.102 422.688 267.943 424.748 267.784C425.117 267.755 425.481 267.888 425.761 268.151C426.041 268.415 426.213 268.789 426.239 269.191C426.265 269.593 426.144 269.99 425.901 270.294C425.659 270.598 425.315 270.785 424.946 270.814L418.753 271.29L418.666 271.293ZM434.448 270.055C434.084 270.06 433.732 269.91 433.469 269.636C433.205 269.363 433.05 268.988 433.037 268.592C433.024 268.196 433.154 267.81 433.399 267.517C433.644 267.223 433.984 267.046 434.348 267.022L440.525 266.516C440.712 266.492 440.901 266.51 441.081 266.567C441.261 266.625 441.428 266.722 441.573 266.852C441.718 266.982 441.837 267.142 441.924 267.323C442.011 267.505 442.063 267.703 442.077 267.907C442.091 268.11 442.068 268.315 442.008 268.509C441.948 268.702 441.852 268.881 441.727 269.033C441.602 269.186 441.45 269.309 441.281 269.396C441.111 269.483 440.926 269.532 440.739 269.54C438.68 269.713 436.621 269.883 434.562 270.049L434.448 270.055ZM450.229 268.73C449.863 268.74 449.508 268.592 449.241 268.32C448.975 268.047 448.817 267.671 448.802 267.273C448.788 266.876 448.918 266.487 449.164 266.193C449.41 265.898 449.753 265.72 450.118 265.698C452.177 265.511 454.236 265.33 456.295 265.155C456.658 265.134 457.014 265.267 457.288 265.527C457.561 265.787 457.731 266.153 457.76 266.547C457.79 266.941 457.677 267.332 457.446 267.636C457.214 267.941 456.883 268.136 456.522 268.179C454.463 268.366 452.404 268.552 450.344 268.739L450.229 268.73ZM465.999 267.311C465.639 267.31 465.294 267.158 465.035 266.887C464.777 266.616 464.624 266.247 464.609 265.856C464.594 265.466 464.718 265.084 464.955 264.79C465.193 264.497 465.525 264.314 465.883 264.281C467.942 264.094 470.001 263.899 472.06 263.696C472.429 263.659 472.796 263.782 473.081 264.04C473.365 264.297 473.545 264.667 473.579 265.068C473.613 265.469 473.499 265.868 473.263 266.178C473.026 266.488 472.686 266.683 472.318 266.72C470.258 266.92 468.199 267.115 466.14 267.305L465.999 267.311ZM481.764 265.785C481.408 265.779 481.067 265.626 480.812 265.357C480.557 265.088 480.405 264.722 480.389 264.336C480.373 263.949 480.493 263.571 480.725 263.277C480.957 262.984 481.284 262.798 481.637 262.758C483.697 262.549 485.756 262.339 487.815 262.128C488.177 262.102 488.535 262.231 488.812 262.487C489.089 262.744 489.262 263.108 489.296 263.502C489.329 263.896 489.22 264.288 488.992 264.596C488.763 264.904 488.433 265.102 488.072 265.149C486.023 265.362 483.964 265.572 481.895 265.779C481.852 265.785 481.809 265.787 481.766 265.787L481.764 265.785ZM497.518 264.138C497.162 264.135 496.82 263.984 496.562 263.716C496.305 263.448 496.152 263.082 496.135 262.695C496.117 262.307 496.237 261.928 496.469 261.633C496.7 261.339 497.027 261.152 497.382 261.111C499.441 260.887 501.5 260.659 503.559 260.428C503.927 260.386 504.296 260.506 504.583 260.76C504.87 261.013 505.053 261.381 505.092 261.782C505.13 262.182 505.02 262.583 504.787 262.896C504.553 263.209 504.215 263.408 503.847 263.449C501.802 263.679 499.743 263.907 497.67 264.133C497.621 264.137 497.572 264.138 497.523 264.135L497.518 264.138ZM513.26 262.352C512.902 262.352 512.558 262.204 512.298 261.937C512.039 261.669 511.883 261.304 511.864 260.915C511.845 260.527 511.964 260.145 512.195 259.849C512.427 259.553 512.755 259.366 513.111 259.325C515.18 259.08 517.234 258.833 519.272 258.583C519.456 258.557 519.642 258.571 519.82 258.625C519.998 258.678 520.165 258.77 520.31 258.894C520.456 259.018 520.577 259.173 520.667 259.348C520.757 259.524 520.815 259.717 520.835 259.917C520.856 260.117 520.84 260.319 520.789 260.513C520.737 260.706 520.65 260.886 520.534 261.042C520.418 261.199 520.274 261.328 520.112 261.424C519.949 261.519 519.77 261.579 519.586 261.598C517.543 261.85 515.484 262.099 513.409 262.343L513.26 262.352ZM528.986 260.392C528.631 260.39 528.291 260.241 528.033 259.975C527.776 259.71 527.621 259.348 527.6 258.962C527.58 258.577 527.695 258.198 527.922 257.901C528.149 257.605 528.472 257.414 528.824 257.367C530.893 257.099 532.944 256.826 534.975 256.55C535.157 256.525 535.342 256.54 535.518 256.593C535.695 256.645 535.86 256.736 536.005 256.858C536.15 256.981 536.271 257.133 536.361 257.306C536.452 257.48 536.51 257.671 536.533 257.869C536.555 258.066 536.542 258.267 536.493 258.459C536.445 258.652 536.362 258.831 536.249 258.989C536.136 259.146 535.996 259.278 535.837 259.376C535.678 259.475 535.502 259.538 535.32 259.563C533.284 259.837 531.224 260.11 529.143 260.38C529.092 260.389 529.04 260.395 528.989 260.397L528.986 260.392ZM544.687 258.241C544.334 258.239 543.995 258.091 543.738 257.827C543.481 257.564 543.326 257.205 543.303 256.822C543.28 256.438 543.392 256.06 543.615 255.763C543.838 255.466 544.157 255.272 544.506 255.22C546.576 254.921 548.623 254.618 550.648 254.312C550.829 254.285 551.014 254.297 551.191 254.347C551.368 254.397 551.535 254.485 551.681 254.605C551.827 254.725 551.95 254.876 552.043 255.048C552.136 255.22 552.196 255.41 552.221 255.607C552.247 255.805 552.236 256.006 552.19 256.199C552.143 256.392 552.063 256.573 551.952 256.732C551.842 256.891 551.703 257.025 551.545 257.125C551.387 257.226 551.213 257.292 551.031 257.32C549.003 257.624 546.95 257.926 544.872 258.227C544.813 258.237 544.754 258.244 544.694 258.247L544.687 258.241ZM560.364 255.844C560.012 255.843 559.674 255.698 559.417 255.437C559.159 255.176 559.002 254.819 558.976 254.437C558.951 254.056 559.058 253.678 559.278 253.379C559.497 253.08 559.813 252.882 560.161 252.825C562.235 252.489 564.297 252.148 566.286 251.806C566.467 251.775 566.652 251.783 566.83 251.83C567.008 251.877 567.176 251.962 567.324 252.079C567.472 252.196 567.598 252.344 567.693 252.515C567.789 252.685 567.852 252.874 567.881 253.07C567.909 253.267 567.902 253.468 567.859 253.662C567.816 253.856 567.738 254.039 567.63 254.2C567.522 254.361 567.386 254.497 567.23 254.601C567.073 254.705 566.9 254.774 566.719 254.805C564.721 255.147 562.655 255.491 560.572 255.827C560.506 255.84 560.439 255.847 560.372 255.85L560.364 255.844ZM576.003 253.133C575.654 253.132 575.318 252.989 575.062 252.732C574.805 252.474 574.646 252.122 574.617 251.744C574.588 251.365 574.69 250.989 574.903 250.689C575.116 250.388 575.425 250.185 575.768 250.12C577.851 249.734 579.902 249.342 581.868 248.953C582.233 248.881 582.608 248.97 582.912 249.199C583.216 249.429 583.424 249.78 583.49 250.176C583.556 250.573 583.474 250.981 583.263 251.312C583.052 251.643 582.729 251.869 582.365 251.941C580.391 252.33 578.329 252.725 576.239 253.111C576.164 253.128 576.087 253.137 576.01 253.139L576.003 253.133ZM591.574 250C591.227 250.002 590.892 249.862 590.634 249.609C590.376 249.356 590.214 249.007 590.18 248.631C590.146 248.255 590.242 247.879 590.449 247.576C590.657 247.273 590.961 247.065 591.302 246.993C593.376 246.539 595.42 246.077 597.358 245.618C597.539 245.57 597.726 245.562 597.91 245.595C598.094 245.627 598.269 245.699 598.427 245.807C598.585 245.914 598.721 246.055 598.828 246.22C598.935 246.386 599.01 246.573 599.05 246.771C599.089 246.968 599.092 247.173 599.058 247.372C599.024 247.571 598.953 247.76 598.851 247.929C598.748 248.098 598.616 248.243 598.461 248.355C598.306 248.467 598.133 248.545 597.95 248.583C595.991 249.045 593.94 249.513 591.85 249.983C591.761 250 591.672 250.007 591.582 250.006L591.574 250ZM607.036 246.248C606.695 246.248 606.366 246.113 606.111 245.867C605.855 245.621 605.692 245.283 605.65 244.915C605.609 244.547 605.692 244.175 605.885 243.87C606.079 243.565 606.368 243.347 606.698 243.257C608.77 242.697 610.778 242.137 612.672 241.555C613.029 241.447 613.41 241.499 613.732 241.697C614.054 241.896 614.29 242.225 614.389 242.613C614.488 243.001 614.441 243.416 614.258 243.766C614.076 244.117 613.773 244.374 613.416 244.481C611.499 245.058 609.465 245.637 607.373 246.203C607.265 246.234 607.155 246.251 607.043 246.253L607.036 246.248ZM622.257 241.487C621.926 241.489 621.605 241.362 621.351 241.129C621.098 240.896 620.929 240.573 620.876 240.217C620.822 239.861 620.886 239.495 621.057 239.186C621.228 238.877 621.495 238.645 621.809 238.531C623.869 237.772 625.807 236.996 627.562 236.223C627.734 236.126 627.923 236.069 628.117 236.055C628.311 236.042 628.505 236.073 628.687 236.146C628.87 236.219 629.036 236.333 629.175 236.479C629.315 236.626 629.425 236.803 629.498 236.999C629.571 237.195 629.605 237.405 629.599 237.616C629.594 237.827 629.547 238.035 629.463 238.225C629.38 238.416 629.26 238.585 629.113 238.723C628.965 238.86 628.793 238.962 628.607 239.023C626.805 239.819 624.816 240.614 622.705 241.392C622.564 241.449 622.415 241.481 622.265 241.487H622.257ZM636.774 234.689C636.463 234.689 636.161 234.577 635.916 234.369C635.671 234.162 635.496 233.871 635.42 233.543C635.344 233.216 635.37 232.87 635.495 232.56C635.62 232.251 635.836 231.996 636.11 231.835C637.911 230.782 639.669 229.651 641.366 228.475C641.678 228.259 642.056 228.186 642.417 228.273C642.778 228.36 643.093 228.599 643.292 228.938C643.491 229.278 643.558 229.689 643.478 230.082C643.398 230.475 643.178 230.818 642.866 231.034C641.113 232.253 639.289 233.42 637.438 234.509C637.236 234.626 637.01 234.688 636.782 234.689H636.774ZM649.901 225.148C649.612 225.149 649.331 225.052 649.096 224.871C648.861 224.691 648.682 224.436 648.585 224.14C648.489 223.845 648.478 223.525 648.556 223.223C648.633 222.921 648.794 222.653 649.018 222.455C650.593 221.055 652.127 219.579 653.573 218.067C653.706 217.929 653.861 217.82 654.032 217.748C654.203 217.675 654.385 217.64 654.568 217.644C654.751 217.648 654.932 217.691 655.1 217.771C655.268 217.851 655.419 217.966 655.546 218.11C655.673 218.254 655.773 218.424 655.839 218.609C655.906 218.795 655.939 218.993 655.935 219.192C655.931 219.392 655.891 219.588 655.818 219.771C655.744 219.953 655.638 220.118 655.506 220.257C654.006 221.825 652.418 223.356 650.783 224.807C650.536 225.026 650.227 225.147 649.908 225.148H649.901ZM661.02 212.97C660.757 212.969 660.5 212.888 660.278 212.735C660.056 212.583 659.878 212.366 659.765 212.108C659.651 211.851 659.606 211.564 659.636 211.28C659.665 210.996 659.767 210.727 659.931 210.503C661.202 208.776 662.404 206.981 663.506 205.166C663.711 204.83 664.03 204.596 664.393 204.516C664.756 204.436 665.134 204.517 665.443 204.739C665.752 204.962 665.966 205.309 666.04 205.704C666.114 206.1 666.04 206.51 665.835 206.846C664.685 208.737 663.434 210.607 662.111 212.408C661.98 212.583 661.815 212.725 661.628 212.822C661.44 212.92 661.235 212.97 661.027 212.97H661.02ZM669.354 198.41C669.119 198.41 668.889 198.346 668.683 198.223C668.477 198.101 668.304 197.924 668.177 197.709C668.051 197.494 667.977 197.248 667.961 196.994C667.945 196.739 667.989 196.485 668.087 196.253C668.936 194.26 669.689 192.221 670.345 190.143C670.473 189.775 670.728 189.475 671.056 189.308C671.384 189.14 671.758 189.118 672.101 189.245C672.444 189.373 672.727 189.641 672.892 189.992C673.056 190.343 673.089 190.75 672.983 191.126C672.298 193.303 671.51 195.44 670.62 197.527C670.508 197.788 670.331 198.009 670.108 198.164C669.885 198.32 669.626 198.403 669.361 198.404L669.354 198.41ZM673.987 182.026C673.913 182.026 673.84 182.02 673.768 182.009C673.402 181.946 673.074 181.727 672.857 181.401C672.639 181.075 672.549 180.668 672.607 180.27C672.924 178.109 673.126 175.929 673.212 173.743C673.231 173.344 673.394 172.969 673.666 172.7C673.938 172.431 674.296 172.289 674.663 172.306C675.03 172.323 675.376 172.496 675.626 172.789C675.877 173.081 676.011 173.469 675.999 173.869C675.91 176.174 675.698 178.471 675.364 180.749C675.31 181.102 675.144 181.423 674.894 181.656C674.644 181.889 674.326 182.018 673.997 182.02L673.987 182.026ZM674.12 164.903C673.785 164.902 673.461 164.77 673.208 164.531C672.955 164.292 672.789 163.961 672.741 163.6C672.454 161.436 672.05 159.292 671.531 157.18C671.444 156.794 671.499 156.386 671.685 156.044C671.871 155.702 672.172 155.453 672.525 155.35C672.878 155.247 673.254 155.299 673.572 155.495C673.89 155.69 674.125 156.014 674.226 156.396C674.777 158.624 675.206 160.886 675.513 163.169C675.565 163.567 675.47 163.972 675.249 164.293C675.027 164.615 674.697 164.828 674.331 164.886C674.265 164.895 674.198 164.899 674.131 164.897L674.12 164.903ZM669.588 148.51C669.322 148.51 669.062 148.427 668.838 148.272C668.613 148.117 668.434 147.896 668.322 147.634C667.467 145.649 666.516 143.714 665.475 141.837C665.377 141.667 665.311 141.477 665.281 141.278C665.252 141.079 665.258 140.876 665.301 140.68C665.344 140.485 665.423 140.3 665.532 140.138C665.641 139.975 665.779 139.838 665.937 139.734C666.096 139.63 666.272 139.562 666.455 139.532C666.638 139.503 666.824 139.513 667.003 139.563C667.183 139.613 667.351 139.701 667.499 139.822C667.646 139.943 667.77 140.095 667.863 140.269C668.956 142.237 669.952 144.267 670.849 146.349C670.927 146.529 670.971 146.725 670.98 146.924C670.988 147.123 670.96 147.322 670.898 147.509C670.835 147.697 670.74 147.869 670.616 148.016C670.492 148.164 670.343 148.283 670.177 148.367C669.995 148.457 669.798 148.504 669.598 148.505L669.588 148.51ZM661.094 134.075C660.888 134.074 660.684 134.024 660.498 133.927C660.312 133.83 660.148 133.689 660.018 133.515C658.755 131.855 657.385 130.205 655.946 128.618C655.687 128.331 655.543 127.943 655.546 127.541C655.549 127.138 655.699 126.754 655.963 126.471C656.227 126.189 656.583 126.033 656.953 126.036C657.323 126.039 657.677 126.203 657.936 126.49C659.429 128.139 660.852 129.85 662.167 131.58C662.336 131.802 662.444 132.072 662.478 132.357C662.511 132.643 662.469 132.934 662.356 133.194C662.244 133.455 662.065 133.676 661.842 133.83C661.618 133.985 661.359 134.067 661.094 134.067V134.075ZM649.816 122.088C649.498 122.088 649.19 121.969 648.943 121.752C647.399 120.394 645.749 119.055 644.053 117.77C643.75 117.539 643.543 117.186 643.479 116.79C643.415 116.393 643.498 115.985 643.71 115.656C643.923 115.326 644.247 115.102 644.611 115.032C644.976 114.962 645.351 115.052 645.654 115.283C647.388 116.608 649.082 117.988 650.68 119.386C650.906 119.582 651.07 119.851 651.15 120.153C651.229 120.456 651.22 120.778 651.124 121.074C651.028 121.371 650.849 121.628 650.613 121.81C650.377 121.991 650.094 122.088 649.805 122.088H649.816ZM636.769 112.444C636.526 112.444 636.287 112.374 636.076 112.242C634.342 111.159 632.53 110.092 630.689 109.073C630.526 108.982 630.381 108.857 630.262 108.706C630.143 108.554 630.052 108.379 629.996 108.189C629.939 108 629.917 107.8 629.932 107.601C629.946 107.402 629.996 107.209 630.079 107.031C630.162 106.854 630.277 106.696 630.416 106.566C630.555 106.437 630.717 106.338 630.891 106.277C631.065 106.215 631.249 106.191 631.432 106.207C631.614 106.222 631.792 106.277 631.956 106.368C633.837 107.409 635.693 108.501 637.466 109.61C637.733 109.777 637.942 110.035 638.06 110.344C638.178 110.653 638.199 110.996 638.119 111.319C638.039 111.642 637.864 111.928 637.62 112.131C637.375 112.335 637.076 112.445 636.769 112.444ZM622.612 104.833C622.426 104.833 622.241 104.792 622.069 104.713C620.219 103.873 618.301 103.033 616.368 102.226C616.022 102.083 615.742 101.797 615.59 101.43C615.438 101.063 615.427 100.645 615.558 100.269C615.689 99.8922 615.952 99.5877 616.289 99.4223C616.627 99.2569 617.011 99.2441 617.357 99.3867C619.323 100.196 621.277 101.047 623.158 101.907C623.461 102.039 623.712 102.282 623.867 102.595C624.022 102.908 624.071 103.269 624.006 103.617C623.941 103.965 623.766 104.278 623.512 104.5C623.257 104.722 622.939 104.84 622.612 104.833ZM607.8 98.8966C607.657 98.8969 607.514 98.8733 607.378 98.8266C605.458 98.1658 603.473 97.5217 601.484 96.9113C601.307 96.8572 601.142 96.7659 600.998 96.6425C600.854 96.5191 600.734 96.3661 600.645 96.1921C600.555 96.0182 600.498 95.8267 600.476 95.6287C600.454 95.4307 600.469 95.2299 600.518 95.038C600.568 94.846 600.652 94.6666 600.766 94.51C600.879 94.3533 601.02 94.2225 601.18 94.125C601.339 94.0275 601.515 93.9652 601.698 93.9417C601.88 93.9181 602.064 93.9339 602.24 93.9879C604.258 94.6068 606.271 95.262 608.22 95.9312C608.537 96.0401 608.809 96.2692 608.985 96.5772C609.161 96.8851 609.23 97.2514 609.18 97.6098C609.129 97.9683 608.962 98.2951 608.709 98.5311C608.456 98.7672 608.133 98.8968 607.8 98.8966ZM592.563 94.3659C592.455 94.3658 592.348 94.3517 592.244 94.3239C590.275 93.8227 588.252 93.3383 586.226 92.8847C585.863 92.8033 585.546 92.5687 585.342 92.2323C585.139 91.896 585.066 91.4855 585.141 91.0911C585.216 90.6968 585.432 90.3509 585.741 90.1295C586.05 89.9082 586.427 89.8295 586.79 89.9108C588.849 90.3729 590.887 90.8629 592.879 91.3697C593.213 91.4539 593.507 91.6688 593.704 91.9735C593.902 92.2781 593.989 92.6512 593.95 93.0216C593.911 93.3919 593.748 93.7337 593.492 93.9816C593.236 94.2295 592.905 94.3664 592.563 94.3659ZM577.068 91.0057C576.991 91.0062 576.913 90.9996 576.836 90.9861C574.842 90.6193 572.79 90.2693 570.742 89.9445C570.375 89.8862 570.045 89.672 569.824 89.349C569.603 89.0261 569.509 88.6208 569.563 88.2223C569.616 87.8239 569.813 87.465 570.11 87.2244C570.407 86.9839 570.779 86.8816 571.146 86.9399C573.205 87.2703 575.284 87.6231 577.297 87.9927C577.641 88.0576 577.949 88.2598 578.162 88.5597C578.375 88.8596 578.478 89.2354 578.449 89.6132C578.42 89.991 578.263 90.3434 578.007 90.6011C577.752 90.8588 577.417 91.0031 577.068 91.0057ZM561.419 88.6172C561.366 88.6212 561.313 88.6212 561.26 88.6172C559.244 88.3679 557.18 88.1327 555.121 87.9199C554.752 87.8828 554.412 87.6879 554.176 87.378C553.939 87.0682 553.826 86.6689 553.86 86.2678C553.894 85.8668 554.073 85.4969 554.358 85.2396C554.643 84.9823 555.01 84.8586 555.378 84.8957C557.455 85.1113 559.538 85.3494 561.568 85.6014C561.925 85.6422 562.253 85.8306 562.485 86.1275C562.717 86.4244 562.835 86.8071 562.815 87.1962C562.795 87.5854 562.638 87.9511 562.377 88.2177C562.115 88.4844 561.77 88.6314 561.411 88.6284L561.419 88.6172ZM476.294 87.6959C475.93 87.7009 475.578 87.5506 475.314 87.2772C475.051 87.0039 474.896 86.629 474.882 86.2329C474.869 85.8368 474.999 85.4509 475.244 85.1576C475.489 84.8643 475.83 84.6869 476.194 84.6633C478.253 84.5009 480.348 84.3469 482.394 84.2069C482.763 84.1816 483.127 84.317 483.404 84.5833C483.682 84.8495 483.851 85.2248 483.874 85.6266C483.897 86.0283 483.773 86.4237 483.528 86.7257C483.283 87.0276 482.938 87.2114 482.569 87.2367C480.531 87.3767 478.451 87.5167 476.392 87.6931L476.294 87.6959ZM545.68 87.0659H545.585C543.557 86.9147 541.482 86.7858 539.408 86.6598C539.046 86.6271 538.711 86.4426 538.472 86.1454C538.234 85.8481 538.111 85.4615 538.13 85.0675C538.149 84.6735 538.309 84.3031 538.574 84.0348C538.84 83.7664 539.192 83.6213 539.554 83.63C541.631 83.7476 543.721 83.8849 545.765 84.0361C546.128 84.0599 546.468 84.237 546.713 84.5297C546.958 84.8223 547.088 85.2074 547.075 85.6028C547.063 85.9983 546.909 86.3728 546.646 86.6466C546.384 86.9204 546.033 87.0719 545.67 87.0687L545.68 87.0659ZM492.08 86.6654C491.718 86.6603 491.373 86.5029 491.116 86.2264C490.86 85.9499 490.712 85.5758 490.703 85.1829C490.695 84.79 490.827 84.4089 491.072 84.1198C491.316 83.8307 491.655 83.6561 492.015 83.6328C494.092 83.5264 496.182 83.434 498.228 83.3528C498.414 83.3407 498.6 83.3691 498.776 83.4365C498.951 83.5038 499.113 83.6087 499.25 83.7449C499.388 83.8811 499.499 84.0459 499.578 84.2296C499.656 84.4133 499.7 84.6122 499.706 84.8146C499.713 85.0169 499.682 85.2187 499.616 85.4079C499.549 85.5971 499.449 85.77 499.32 85.9164C499.192 86.0628 499.038 86.1797 498.867 86.2602C498.696 86.3408 498.512 86.3833 498.326 86.3854C496.293 86.4638 494.208 86.5562 492.149 86.6654H492.08ZM529.895 86.2342H529.853C527.82 86.1698 525.735 86.1194 523.676 86.0858C523.306 86.0799 522.954 85.9143 522.696 85.6254C522.438 85.3366 522.296 84.9482 522.302 84.5457C522.307 84.1432 522.459 83.7595 522.725 83.4791C522.99 83.1987 523.347 83.0445 523.717 83.0504C525.797 83.084 527.89 83.1344 529.933 83.1988C530.303 83.2044 530.656 83.3696 530.914 83.6582C531.172 83.9468 531.314 84.335 531.309 84.7375C531.304 85.14 531.152 85.5239 530.887 85.8045C530.621 86.0852 530.265 86.2398 529.895 86.2342ZM507.886 86.111C507.702 86.1127 507.521 86.075 507.351 86.0003C507.181 85.9256 507.026 85.8152 506.896 85.6754C506.765 85.5356 506.661 85.3692 506.59 85.1857C506.518 85.0022 506.48 84.8052 506.479 84.6059C506.477 84.4066 506.512 84.2089 506.581 84.0242C506.649 83.8394 506.751 83.6712 506.879 83.5291C507.008 83.3869 507.161 83.2738 507.329 83.196C507.498 83.1182 507.679 83.0773 507.862 83.0756C509.945 83.0364 512.037 83.0112 514.081 83C514.451 83 514.806 83.1599 515.067 83.4445C515.329 83.7292 515.476 84.1152 515.476 84.5177C515.476 84.9202 515.329 85.3063 515.067 85.5909C514.806 85.8755 514.451 86.0354 514.081 86.0354C512.047 86.0354 509.963 86.0718 507.904 86.111H507.886Z" fill="white"/>
</svg>
