<svg width="24" height="24" viewBox="0 0 24 24" fill="none" xmlns="http://www.w3.org/2000/svg">
<g clip-path="url(#clip0_2643_21480)">
<path d="M6.3998 12.0008L11.1998 16.0008L17.5998 8.00078M11.9998 23.2008C10.529 23.2008 9.0726 22.9111 7.71375 22.3482C6.3549 21.7854 5.12022 20.9604 4.08021 19.9204C3.04019 18.8804 2.21521 17.6457 1.65235 16.2868C1.0895 14.928 0.799805 13.4716 0.799805 12.0008C0.799805 10.53 1.0895 9.07357 1.65235 7.71473C2.21521 6.35588 3.04019 5.1212 4.08021 4.08119C5.12022 3.04117 6.3549 2.21618 7.71375 1.65333C9.0726 1.09048 10.529 0.800781 11.9998 0.800781C14.9702 0.800781 17.819 1.98078 19.9194 4.08119C22.0198 6.18159 23.1998 9.03036 23.1998 12.0008C23.1998 14.9712 22.0198 17.82 19.9194 19.9204C17.819 22.0208 14.9702 23.2008 11.9998 23.2008Z" stroke="white"/>
</g>
<defs>
<clipPath id="clip0_2643_21480">
<rect width="24" height="24" fill="white"/>
</clipPath>
</defs>
</svg>
