<svg width="52" height="52" viewBox="0 0 52 52" fill="none" xmlns="http://www.w3.org/2000/svg">
<g filter="url(#filter0_ii_634_1289)">
<rect width="52" height="52" rx="10" fill="url(#paint0_linear_634_1289)"/>
</g>
<g filter="url(#filter1_ii_634_1289)">
<path d="M36.2796 18.6015C32.9369 16.1001 29.7343 16.1704 29.7343 16.1704L29.407 16.5444C33.3809 17.7366 35.2277 19.4897 35.2277 19.4897C29.542 16.3594 22.3001 16.3819 16.3863 19.4897C16.3863 19.4897 18.3031 17.6429 22.511 16.4507L22.2774 16.1701C22.2774 16.1701 19.098 16.1001 15.732 18.6012C15.732 18.6012 12.3657 24.6556 12.3657 32.1128C12.3657 32.1128 14.3295 35.4791 19.4956 35.6427C19.4956 35.6427 20.3605 34.6142 21.0618 33.7259C18.0931 32.8377 16.9709 30.9909 16.9709 30.9909C18.8361 32.158 20.722 32.8884 23.0723 33.352C26.896 34.139 31.6522 33.3298 35.2047 30.9909C35.2047 30.9909 34.0358 32.8844 30.9734 33.7493C31.6747 34.6142 32.5163 35.6194 32.5163 35.6194C37.6824 35.4558 39.6459 32.0895 39.6459 32.1131C39.6456 24.6559 36.2796 18.6015 36.2796 18.6015ZM21.6461 29.939C20.3369 29.939 19.2617 28.7935 19.2617 27.3676C19.3574 23.9526 23.9588 23.9631 24.0305 27.3676C24.0305 28.7935 22.9783 29.939 21.6461 29.939ZM30.1782 29.939C28.8691 29.939 27.7938 28.7935 27.7938 27.3676C27.8988 23.9593 32.4428 23.9578 32.5627 27.3676C32.5627 28.7935 31.5108 29.939 30.1782 29.939Z" fill="url(#paint1_linear_634_1289)"/>
</g>
<defs>
<filter id="filter0_ii_634_1289" x="-4" y="-4" width="60" height="60" filterUnits="userSpaceOnUse" color-interpolation-filters="sRGB">
<feFlood flood-opacity="0" result="BackgroundImageFix"/>
<feBlend mode="normal" in="SourceGraphic" in2="BackgroundImageFix" result="shape"/>
<feColorMatrix in="SourceAlpha" type="matrix" values="0 0 0 0 0 0 0 0 0 0 0 0 0 0 0 0 0 0 127 0" result="hardAlpha"/>
<feOffset dx="-4" dy="-4"/>
<feGaussianBlur stdDeviation="2.5"/>
<feComposite in2="hardAlpha" operator="arithmetic" k2="-1" k3="1"/>
<feColorMatrix type="matrix" values="0 0 0 0 0.392157 0 0 0 0 0.392157 0 0 0 0 0.392157 0 0 0 0.14 0"/>
<feBlend mode="normal" in2="shape" result="effect1_innerShadow_634_1289"/>
<feColorMatrix in="SourceAlpha" type="matrix" values="0 0 0 0 0 0 0 0 0 0 0 0 0 0 0 0 0 0 127 0" result="hardAlpha"/>
<feOffset dx="4" dy="4"/>
<feGaussianBlur stdDeviation="2.5"/>
<feComposite in2="hardAlpha" operator="arithmetic" k2="-1" k3="1"/>
<feColorMatrix type="matrix" values="0 0 0 0 0.766667 0 0 0 0 0.766667 0 0 0 0 0.766667 0 0 0 0.3 0"/>
<feBlend mode="normal" in2="effect1_innerShadow_634_1289" result="effect2_innerShadow_634_1289"/>
</filter>
<filter id="filter1_ii_634_1289" x="8.36572" y="12.1699" width="32.2803" height="26.4727" filterUnits="userSpaceOnUse" color-interpolation-filters="sRGB">
<feFlood flood-opacity="0" result="BackgroundImageFix"/>
<feBlend mode="normal" in="SourceGraphic" in2="BackgroundImageFix" result="shape"/>
<feColorMatrix in="SourceAlpha" type="matrix" values="0 0 0 0 0 0 0 0 0 0 0 0 0 0 0 0 0 0 127 0" result="hardAlpha"/>
<feOffset dx="-4" dy="-4"/>
<feGaussianBlur stdDeviation="2.5"/>
<feComposite in2="hardAlpha" operator="arithmetic" k2="-1" k3="1"/>
<feColorMatrix type="matrix" values="0 0 0 0 0.160784 0 0 0 0 0.156863 0 0 0 0 0.329412 0 0 0 0.5 0"/>
<feBlend mode="normal" in2="shape" result="effect1_innerShadow_634_1289"/>
<feColorMatrix in="SourceAlpha" type="matrix" values="0 0 0 0 0 0 0 0 0 0 0 0 0 0 0 0 0 0 127 0" result="hardAlpha"/>
<feOffset dx="1" dy="3"/>
<feGaussianBlur stdDeviation="2.5"/>
<feComposite in2="hardAlpha" operator="arithmetic" k2="-1" k3="1"/>
<feColorMatrix type="matrix" values="0 0 0 0 0.639216 0 0 0 0 0.635294 0 0 0 0 1 0 0 0 0.3 0"/>
<feBlend mode="normal" in2="effect1_innerShadow_634_1289" result="effect2_innerShadow_634_1289"/>
</filter>
<linearGradient id="paint0_linear_634_1289" x1="0" y1="0" x2="52" y2="52" gradientUnits="userSpaceOnUse">
<stop stop-color="white"/>
<stop offset="1" stop-color="#F2F2F2"/>
</linearGradient>
<linearGradient id="paint1_linear_634_1289" x1="12.3657" y1="16.1699" x2="30.782" y2="41.9699" gradientUnits="userSpaceOnUse">
<stop stop-color="#6B6ADD"/>
<stop offset="0.0001" stop-color="#8B89FF"/>
<stop offset="1" stop-color="#6261E0"/>
</linearGradient>
</defs>
</svg>
