<svg width="52" height="52" viewBox="0 0 52 52" fill="none" xmlns="http://www.w3.org/2000/svg">
<g filter="url(#filter0_ii_693_1106)">
<rect width="52" height="52" rx="10" fill="url(#paint0_linear_693_1106)"/>
</g>
<g filter="url(#filter1_ii_693_1106)">
<path d="M36.1445 18.3766C36.0429 18.2419 35.9344 18.1126 35.8195 17.9891C35.9351 17.6809 36.023 17.363 36.082 17.0391C36.2561 15.8544 36.1049 14.6446 35.6445 13.5391C35.6445 13.5391 34.2445 13.1016 31.032 15.2641C29.6681 14.8876 28.2593 14.6983 26.8445 14.7016C25.4255 14.6992 24.0127 14.8884 22.6445 15.2641C19.4319 13.0766 18.0319 13.5391 18.0319 13.5391C17.5771 14.6329 17.4259 15.8291 17.5944 17.0016C17.6538 17.339 17.7459 17.6697 17.8694 17.9891C17.7569 18.1141 17.6444 18.2516 17.5444 18.3766C16.6117 19.5467 16.1165 21.0056 16.1444 22.5016C16.1415 22.8565 16.1582 23.2112 16.1944 23.5641C16.5944 29.1016 20.2819 30.3891 23.7945 30.7891C23.2973 31.2514 22.9602 31.86 22.8319 32.5266C22.7158 32.9712 22.6611 33.4297 22.6694 33.8891V35.5261C21.2717 35.6503 19.8363 35.4469 19.3917 34.1994C18.9137 33.0057 18.1213 31.9638 17.0986 31.1843C17.0243 31.1437 16.9536 31.0967 16.8874 31.0439C16.7976 30.8077 16.6384 30.6042 16.4307 30.4602C16.2231 30.3162 15.9767 30.2384 15.724 30.237H15.718C15.3875 30.2369 15.0704 30.3677 14.8362 30.6009C14.6019 30.834 14.4695 31.1504 14.468 31.4809C14.4632 32.4966 15.4794 33.1521 15.8963 33.3755C16.3824 33.8653 16.7736 34.441 17.0498 35.0735C17.5051 36.3528 18.8363 38.2961 22.6321 38.0435C22.6334 38.0874 22.6346 38.1289 22.6352 38.1667L22.6406 38.5012C22.6406 38.6654 22.6729 38.8279 22.7357 38.9796C22.7985 39.1313 22.8906 39.2691 23.0067 39.3852C23.1228 39.5013 23.2606 39.5934 23.4122 39.6562C23.5639 39.719 23.7265 39.7513 23.8907 39.7512L23.8945 39.7505V39.7513H29.7834C29.9476 39.7513 30.1102 39.719 30.2618 39.6562C30.4135 39.5934 30.5513 39.5013 30.6674 39.3852C30.7835 39.2692 30.8756 39.1313 30.9384 38.9797C31.0012 38.828 31.0335 38.6654 31.0334 38.5013C31.0334 38.5013 31.0426 34.5517 31.0426 33.8892C31.0509 33.4297 30.9962 32.9713 30.8801 32.5267L30.8778 32.5191L30.882 32.5267C30.8713 32.483 30.8549 32.4473 30.8431 32.4049C30.7036 31.7857 30.3811 31.2227 29.9175 30.7891L29.932 30.8152C29.9235 30.8075 29.9155 30.7966 29.9069 30.7891C33.4194 30.3891 37.0819 29.0766 37.4819 23.5641C37.5182 23.2112 37.5349 22.8564 37.5319 22.5016C37.5541 21.0085 37.0644 19.5529 36.1445 18.3766V18.3766Z" fill="url(#paint1_linear_693_1106)"/>
</g>
<defs>
<filter id="filter0_ii_693_1106" x="-4" y="-4" width="60" height="60" filterUnits="userSpaceOnUse" color-interpolation-filters="sRGB">
<feFlood flood-opacity="0" result="BackgroundImageFix"/>
<feBlend mode="normal" in="SourceGraphic" in2="BackgroundImageFix" result="shape"/>
<feColorMatrix in="SourceAlpha" type="matrix" values="0 0 0 0 0 0 0 0 0 0 0 0 0 0 0 0 0 0 127 0" result="hardAlpha"/>
<feOffset dx="-4" dy="-4"/>
<feGaussianBlur stdDeviation="2.5"/>
<feComposite in2="hardAlpha" operator="arithmetic" k2="-1" k3="1"/>
<feColorMatrix type="matrix" values="0 0 0 0 0.0745098 0 0 0 0 0.0823529 0 0 0 0 0.0980392 0 0 0 0.5 0"/>
<feBlend mode="normal" in2="shape" result="effect1_innerShadow_693_1106"/>
<feColorMatrix in="SourceAlpha" type="matrix" values="0 0 0 0 0 0 0 0 0 0 0 0 0 0 0 0 0 0 127 0" result="hardAlpha"/>
<feOffset dx="4" dy="4"/>
<feGaussianBlur stdDeviation="2.5"/>
<feComposite in2="hardAlpha" operator="arithmetic" k2="-1" k3="1"/>
<feColorMatrix type="matrix" values="0 0 0 0 0.301961 0 0 0 0 0.333333 0 0 0 0 0.388235 0 0 0 0.3 0"/>
<feBlend mode="normal" in2="effect1_innerShadow_693_1106" result="effect2_innerShadow_693_1106"/>
</filter>
<filter id="filter1_ii_693_1106" x="10.468" y="9.49829" width="31.0647" height="34.2529" filterUnits="userSpaceOnUse" color-interpolation-filters="sRGB">
<feFlood flood-opacity="0" result="BackgroundImageFix"/>
<feBlend mode="normal" in="SourceGraphic" in2="BackgroundImageFix" result="shape"/>
<feColorMatrix in="SourceAlpha" type="matrix" values="0 0 0 0 0 0 0 0 0 0 0 0 0 0 0 0 0 0 127 0" result="hardAlpha"/>
<feOffset dx="-4" dy="-4"/>
<feGaussianBlur stdDeviation="2.5"/>
<feComposite in2="hardAlpha" operator="arithmetic" k2="-1" k3="1"/>
<feColorMatrix type="matrix" values="0 0 0 0 0.156863 0 0 0 0 0.156863 0 0 0 0 0.392157 0 0 0 0.5 0"/>
<feBlend mode="normal" in2="shape" result="effect1_innerShadow_693_1106"/>
<feColorMatrix in="SourceAlpha" type="matrix" values="0 0 0 0 0 0 0 0 0 0 0 0 0 0 0 0 0 0 127 0" result="hardAlpha"/>
<feOffset dx="4" dy="4"/>
<feGaussianBlur stdDeviation="2.5"/>
<feComposite in2="hardAlpha" operator="arithmetic" k2="-1" k3="1"/>
<feColorMatrix type="matrix" values="0 0 0 0 0.635294 0 0 0 0 0.619608 0 0 0 0 1 0 0 0 0.3 0"/>
<feBlend mode="normal" in2="effect1_innerShadow_693_1106" result="effect2_innerShadow_693_1106"/>
</filter>
<linearGradient id="paint0_linear_693_1106" x1="0" y1="0" x2="52" y2="52" gradientUnits="userSpaceOnUse">
<stop stop-color="#323841"/>
<stop offset="1" stop-color="#2E323B"/>
</linearGradient>
<linearGradient id="paint1_linear_693_1106" x1="14.468" y1="13.4983" x2="40.5024" y2="36.3709" gradientUnits="userSpaceOnUse">
<stop stop-color="#6A68FF"/>
<stop offset="1" stop-color="#605EF2"/>
</linearGradient>
</defs>
</svg>
