<svg width="52" height="52" viewBox="0 0 52 52" fill="none" xmlns="http://www.w3.org/2000/svg">
<g filter="url(#filter0_ii_695_1141)">
<rect width="52" height="52" rx="10" fill="url(#paint0_linear_695_1141)"/>
</g>
<g filter="url(#filter1_ii_695_1141)">
<path d="M36.1445 18.3764C36.0429 18.2417 35.9344 18.1123 35.8195 17.9889C35.9351 17.6807 36.023 17.3628 36.082 17.0389C36.2561 15.8541 36.1049 14.6443 35.6445 13.5389C35.6445 13.5389 34.2445 13.1014 31.032 15.2639C29.6681 14.8873 28.2593 14.6981 26.8445 14.7014C25.4255 14.6989 24.0127 14.8881 22.6445 15.2639C19.4319 13.0764 18.0319 13.5389 18.0319 13.5389C17.5771 14.6326 17.4259 15.8289 17.5944 17.0014C17.6538 17.3387 17.7459 17.6695 17.8694 17.9889C17.7569 18.1139 17.6444 18.2514 17.5444 18.3764C16.6117 19.5464 16.1165 21.0053 16.1444 22.5014C16.1415 22.8562 16.1582 23.2109 16.1944 23.5639C16.5944 29.1014 20.2819 30.3889 23.7945 30.7889C23.2973 31.2512 22.9602 31.8597 22.832 32.5264C22.7158 32.971 22.6611 33.4294 22.6694 33.8889V35.5259C21.2717 35.6501 19.8363 35.4467 19.3917 34.1992C18.9137 33.0055 18.1213 31.9635 17.0986 31.184C17.0243 31.1434 16.9536 31.0964 16.8874 31.0437C16.7976 30.8075 16.6384 30.604 16.4307 30.46C16.2231 30.3159 15.9767 30.2381 15.724 30.2368H15.718C15.3875 30.2367 15.0704 30.3675 14.8362 30.6006C14.6019 30.8337 14.4695 31.1502 14.468 31.4807C14.4632 32.4963 15.4794 33.1518 15.8963 33.3752C16.3824 33.865 16.7736 34.4408 17.0498 35.0732C17.5051 36.3525 18.8363 38.2959 22.6321 38.0432C22.6334 38.0871 22.6346 38.1286 22.6352 38.1665L22.6406 38.501C22.6406 38.6651 22.6729 38.8277 22.7357 38.9794C22.7985 39.1311 22.8906 39.2689 23.0067 39.385C23.1228 39.501 23.2606 39.5931 23.4122 39.6559C23.5639 39.7187 23.7265 39.751 23.8907 39.751L23.8945 39.7502V39.751H29.7834C29.9476 39.7511 30.1102 39.7188 30.2618 39.6559C30.4135 39.5931 30.5513 39.5011 30.6674 39.385C30.7835 39.2689 30.8756 39.1311 30.9384 38.9794C31.0012 38.8277 31.0335 38.6652 31.0334 38.501C31.0334 38.501 31.0426 34.5514 31.0426 33.889C31.0509 33.4295 30.9963 32.9711 30.8801 32.5265L30.8778 32.5188L30.882 32.5265C30.8713 32.4827 30.8549 32.447 30.8431 32.4046C30.7036 31.7854 30.3811 31.2225 29.9175 30.7889L29.932 30.815C29.9235 30.8073 29.9155 30.7964 29.9069 30.7889C33.4194 30.3889 37.0819 29.0764 37.4819 23.5639C37.5182 23.2109 37.5349 22.8562 37.5319 22.5014C37.5541 21.0083 37.0644 19.5526 36.1445 18.3764Z" fill="url(#paint1_linear_695_1141)"/>
</g>
<defs>
<filter id="filter0_ii_695_1141" x="-4" y="-4" width="60" height="60" filterUnits="userSpaceOnUse" color-interpolation-filters="sRGB">
<feFlood flood-opacity="0" result="BackgroundImageFix"/>
<feBlend mode="normal" in="SourceGraphic" in2="BackgroundImageFix" result="shape"/>
<feColorMatrix in="SourceAlpha" type="matrix" values="0 0 0 0 0 0 0 0 0 0 0 0 0 0 0 0 0 0 127 0" result="hardAlpha"/>
<feOffset dx="-4" dy="-4"/>
<feGaussianBlur stdDeviation="2.5"/>
<feComposite in2="hardAlpha" operator="arithmetic" k2="-1" k3="1"/>
<feColorMatrix type="matrix" values="0 0 0 0 0.392157 0 0 0 0 0.392157 0 0 0 0 0.392157 0 0 0 0.14 0"/>
<feBlend mode="normal" in2="shape" result="effect1_innerShadow_695_1141"/>
<feColorMatrix in="SourceAlpha" type="matrix" values="0 0 0 0 0 0 0 0 0 0 0 0 0 0 0 0 0 0 127 0" result="hardAlpha"/>
<feOffset dx="4" dy="4"/>
<feGaussianBlur stdDeviation="2.5"/>
<feComposite in2="hardAlpha" operator="arithmetic" k2="-1" k3="1"/>
<feColorMatrix type="matrix" values="0 0 0 0 0.766667 0 0 0 0 0.766667 0 0 0 0 0.766667 0 0 0 0.3 0"/>
<feBlend mode="normal" in2="effect1_innerShadow_695_1141" result="effect2_innerShadow_695_1141"/>
</filter>
<filter id="filter1_ii_695_1141" x="10.468" y="9.49805" width="31.0647" height="34.2539" filterUnits="userSpaceOnUse" color-interpolation-filters="sRGB">
<feFlood flood-opacity="0" result="BackgroundImageFix"/>
<feBlend mode="normal" in="SourceGraphic" in2="BackgroundImageFix" result="shape"/>
<feColorMatrix in="SourceAlpha" type="matrix" values="0 0 0 0 0 0 0 0 0 0 0 0 0 0 0 0 0 0 127 0" result="hardAlpha"/>
<feOffset dx="-4" dy="-4"/>
<feGaussianBlur stdDeviation="2.5"/>
<feComposite in2="hardAlpha" operator="arithmetic" k2="-1" k3="1"/>
<feColorMatrix type="matrix" values="0 0 0 0 0.156863 0 0 0 0 0.156863 0 0 0 0 0.392157 0 0 0 0.5 0"/>
<feBlend mode="normal" in2="shape" result="effect1_innerShadow_695_1141"/>
<feColorMatrix in="SourceAlpha" type="matrix" values="0 0 0 0 0 0 0 0 0 0 0 0 0 0 0 0 0 0 127 0" result="hardAlpha"/>
<feOffset dx="4" dy="4"/>
<feGaussianBlur stdDeviation="2.5"/>
<feComposite in2="hardAlpha" operator="arithmetic" k2="-1" k3="1"/>
<feColorMatrix type="matrix" values="0 0 0 0 0.635294 0 0 0 0 0.619608 0 0 0 0 1 0 0 0 0.3 0"/>
<feBlend mode="normal" in2="effect1_innerShadow_695_1141" result="effect2_innerShadow_695_1141"/>
</filter>
<linearGradient id="paint0_linear_695_1141" x1="0" y1="0" x2="52" y2="52" gradientUnits="userSpaceOnUse">
<stop stop-color="white"/>
<stop offset="1" stop-color="#F2F2F2"/>
</linearGradient>
<linearGradient id="paint1_linear_695_1141" x1="14.468" y1="13.498" x2="40.5024" y2="36.3707" gradientUnits="userSpaceOnUse">
<stop stop-color="#6A68FF"/>
<stop offset="1" stop-color="#605EF2"/>
</linearGradient>
</defs>
</svg>
