<svg width="32" height="32" viewBox="0 0 32 32" fill="none" xmlns="http://www.w3.org/2000/svg">
<g filter="url(#filter0_ii_634_1309)">
<path d="M16.5801 19.1069L3.8901 11.0312C3.23405 10.5973 2.77462 9.92316 2.61076 9.15388C2.4469 8.3846 2.5917 7.58174 3.01399 6.91818C3.43629 6.25462 4.10228 5.78344 4.86857 5.60611C5.63486 5.42878 6.44014 5.55949 7.111 5.97008L16.421 11.8944L24.7801 6.04288C25.4323 5.60094 26.2321 5.43327 27.0069 5.57609C27.7816 5.71891 28.4691 6.16075 28.9209 6.80618C29.3726 7.45162 29.5523 8.24884 29.4212 9.02567C29.2901 9.80249 28.8587 10.4966 28.2201 10.958L16.5801 19.1069Z" fill="url(#paint0_linear_634_1309)"/>
</g>
<g filter="url(#filter1_ii_634_1309)">
<path d="M27.5 26.5H23.5V8.5C23.5 7.70435 23.8161 6.94129 24.3787 6.37868C24.9413 5.81607 25.7044 5.5 26.5 5.5C27.2956 5.5 28.0587 5.81607 28.6213 6.37868C29.1839 6.94129 29.5 7.70435 29.5 8.5L29.5 24.5C29.5 25.0304 29.2893 25.5391 28.9142 25.9142C28.5391 26.2893 28.0304 26.5 27.5 26.5Z" fill="url(#paint1_linear_634_1309)"/>
</g>
<g filter="url(#filter2_ii_634_1309)">
<path d="M29.4561 8.06545C29.4473 8.00545 29.448 7.94415 29.4355 7.88425C29.4163 7.79245 29.3806 7.70765 29.3532 7.61905C29.3267 7.51764 29.2947 7.41773 29.2574 7.31975C29.2374 7.27225 29.2066 7.23055 29.1839 7.18435C29.1217 7.05105 29.0497 6.92253 28.9685 6.79985C28.9285 6.74175 28.8785 6.69225 28.8343 6.63725C28.7585 6.53729 28.6765 6.44214 28.5888 6.35235C28.5223 6.28765 28.4465 6.23355 28.3742 6.17525C28.2974 6.10937 28.2173 6.04739 28.1342 5.98955C28.0549 5.93775 27.9681 5.89785 27.8842 5.85365C27.7958 5.80755 27.7092 5.75735 27.6172 5.72055C27.5283 5.68475 27.4335 5.66195 27.3406 5.63465C27.2477 5.60735 27.1553 5.57465 27.0599 5.55695C26.9417 5.53796 26.8225 5.52594 26.7029 5.52095C26.627 5.51565 26.5518 5.50235 26.4756 5.50295C26.3342 5.50707 26.1932 5.52127 26.0537 5.54545C25.9974 5.55385 25.9407 5.55315 25.8848 5.56475C25.6961 5.6224 25.508 5.68174 25.3203 5.74275C25.2688 5.76475 25.2237 5.79745 25.1738 5.82225C24.666 6.05921 24.2377 6.43817 23.9406 6.91334C23.6436 7.38851 23.4905 7.93955 23.4999 8.49985V14.2618L28.2199 10.9575C28.6834 10.6465 29.0468 10.2077 29.2662 9.69442C29.4855 9.18111 29.5514 8.61522 29.4558 8.06525L29.4561 8.06545Z" fill="url(#paint2_linear_634_1309)"/>
</g>
<g filter="url(#filter3_ii_634_1309)">
<path d="M5.5 5.5C6.29565 5.5 7.05871 5.81607 7.62132 6.37868C8.18393 6.94129 8.5 7.70435 8.5 8.5V26.5H4.5C3.96957 26.5 3.46086 26.2893 3.08579 25.9142C2.71071 25.5391 2.5 25.0304 2.5 24.5V8.5C2.5 7.70435 2.81607 6.94129 3.37868 6.37868C3.94129 5.81607 4.70435 5.5 5.5 5.5Z" fill="url(#paint3_linear_634_1309)"/>
</g>
<g filter="url(#filter4_ii_634_1309)">
<path d="M2.54397 8.06517C2.55277 8.00517 2.55207 7.94387 2.56457 7.88397C2.58377 7.79217 2.61947 7.70737 2.64687 7.61877C2.67343 7.5174 2.70541 7.41752 2.74266 7.31957C2.76266 7.27207 2.79347 7.23037 2.81627 7.18417C2.87845 7.05082 2.95044 6.92226 3.03167 6.79957C3.07167 6.74147 3.12167 6.69197 3.16587 6.63697C3.24168 6.53701 3.32364 6.44186 3.41127 6.35207C3.47777 6.28737 3.55357 6.23327 3.62596 6.17497C3.70278 6.10906 3.78288 6.04709 3.86597 5.98927C3.94527 5.93747 4.03207 5.89757 4.11597 5.85337C4.20267 5.80433 4.29178 5.75967 4.38297 5.71957C4.47197 5.68377 4.56677 5.66097 4.65957 5.63367C4.75237 5.60637 4.84486 5.57367 4.94026 5.55597C5.05846 5.53699 5.17766 5.52497 5.29727 5.51997C5.37327 5.51467 5.44836 5.50137 5.52456 5.50197C5.66603 5.50609 5.80702 5.52029 5.94647 5.54447C6.00277 5.55287 6.05946 5.55217 6.11546 5.56377C6.21226 5.58844 6.30772 5.61808 6.40147 5.65257C6.49573 5.67763 6.58868 5.7074 6.67997 5.74177C6.73137 5.76377 6.77646 5.79647 6.82646 5.82127C6.95609 5.88217 7.08115 5.95236 7.20066 6.03127C7.6013 6.30636 7.92896 6.67483 8.15534 7.10487C8.38173 7.53491 8.50004 8.01359 8.50006 8.49957V14.2616L3.78006 10.9575C3.31664 10.6463 2.95328 10.2076 2.73392 9.69428C2.51455 9.181 2.44857 8.61516 2.54397 8.06517Z" fill="url(#paint4_linear_634_1309)"/>
</g>
<defs>
<filter id="filter0_ii_634_1309" x="-1.45508" y="1.52637" width="34.9182" height="21.5801" filterUnits="userSpaceOnUse" color-interpolation-filters="sRGB">
<feFlood flood-opacity="0" result="BackgroundImageFix"/>
<feBlend mode="normal" in="SourceGraphic" in2="BackgroundImageFix" result="shape"/>
<feColorMatrix in="SourceAlpha" type="matrix" values="0 0 0 0 0 0 0 0 0 0 0 0 0 0 0 0 0 0 127 0" result="hardAlpha"/>
<feOffset dx="-4" dy="-4"/>
<feGaussianBlur stdDeviation="2.5"/>
<feComposite in2="hardAlpha" operator="arithmetic" k2="-1" k3="1"/>
<feColorMatrix type="matrix" values="0 0 0 0 0.368627 0 0 0 0 0.105882 0 0 0 0 0.0823529 0 0 0 0.5 0"/>
<feBlend mode="normal" in2="shape" result="effect1_innerShadow_634_1309"/>
<feColorMatrix in="SourceAlpha" type="matrix" values="0 0 0 0 0 0 0 0 0 0 0 0 0 0 0 0 0 0 127 0" result="hardAlpha"/>
<feOffset dx="4" dy="4"/>
<feGaussianBlur stdDeviation="2.5"/>
<feComposite in2="hardAlpha" operator="arithmetic" k2="-1" k3="1"/>
<feColorMatrix type="matrix" values="0 0 0 0 1 0 0 0 0 0.427451 0 0 0 0 0.333333 0 0 0 0.3 0"/>
<feBlend mode="normal" in2="effect1_innerShadow_634_1309" result="effect2_innerShadow_634_1309"/>
</filter>
<filter id="filter1_ii_634_1309" x="19.5" y="1.5" width="14" height="29" filterUnits="userSpaceOnUse" color-interpolation-filters="sRGB">
<feFlood flood-opacity="0" result="BackgroundImageFix"/>
<feBlend mode="normal" in="SourceGraphic" in2="BackgroundImageFix" result="shape"/>
<feColorMatrix in="SourceAlpha" type="matrix" values="0 0 0 0 0 0 0 0 0 0 0 0 0 0 0 0 0 0 127 0" result="hardAlpha"/>
<feOffset dx="-4" dy="-4"/>
<feGaussianBlur stdDeviation="2.5"/>
<feComposite in2="hardAlpha" operator="arithmetic" k2="-1" k3="1"/>
<feColorMatrix type="matrix" values="0 0 0 0 0 0 0 0 0 0.270588 0 0 0 0 0.109804 0 0 0 0.5 0"/>
<feBlend mode="normal" in2="shape" result="effect1_innerShadow_634_1309"/>
<feColorMatrix in="SourceAlpha" type="matrix" values="0 0 0 0 0 0 0 0 0 0 0 0 0 0 0 0 0 0 127 0" result="hardAlpha"/>
<feOffset dx="4" dy="4"/>
<feGaussianBlur stdDeviation="2.5"/>
<feComposite in2="hardAlpha" operator="arithmetic" k2="-1" k3="1"/>
<feColorMatrix type="matrix" values="0 0 0 0 0 0 0 0 0 1 0 0 0 0 0.447059 0 0 0 0.3 0"/>
<feBlend mode="normal" in2="effect1_innerShadow_634_1309" result="effect2_innerShadow_634_1309"/>
</filter>
<filter id="filter2_ii_634_1309" x="19.4995" y="1.50293" width="13.999" height="16.7588" filterUnits="userSpaceOnUse" color-interpolation-filters="sRGB">
<feFlood flood-opacity="0" result="BackgroundImageFix"/>
<feBlend mode="normal" in="SourceGraphic" in2="BackgroundImageFix" result="shape"/>
<feColorMatrix in="SourceAlpha" type="matrix" values="0 0 0 0 0 0 0 0 0 0 0 0 0 0 0 0 0 0 127 0" result="hardAlpha"/>
<feOffset dx="-4" dy="-4"/>
<feGaussianBlur stdDeviation="2.5"/>
<feComposite in2="hardAlpha" operator="arithmetic" k2="-1" k3="1"/>
<feColorMatrix type="matrix" values="0 0 0 0 0.392157 0 0 0 0 0.290196 0 0 0 0 0 0 0 0 0.5 0"/>
<feBlend mode="normal" in2="shape" result="effect1_innerShadow_634_1309"/>
<feColorMatrix in="SourceAlpha" type="matrix" values="0 0 0 0 0 0 0 0 0 0 0 0 0 0 0 0 0 0 127 0" result="hardAlpha"/>
<feOffset dx="4" dy="4"/>
<feGaussianBlur stdDeviation="2.5"/>
<feComposite in2="hardAlpha" operator="arithmetic" k2="-1" k3="1"/>
<feColorMatrix type="matrix" values="0 0 0 0 1 0 0 0 0 1 0 0 0 0 0 0 0 0 0.3 0"/>
<feBlend mode="normal" in2="effect1_innerShadow_634_1309" result="effect2_innerShadow_634_1309"/>
</filter>
<filter id="filter3_ii_634_1309" x="-1.5" y="1.5" width="14" height="29" filterUnits="userSpaceOnUse" color-interpolation-filters="sRGB">
<feFlood flood-opacity="0" result="BackgroundImageFix"/>
<feBlend mode="normal" in="SourceGraphic" in2="BackgroundImageFix" result="shape"/>
<feColorMatrix in="SourceAlpha" type="matrix" values="0 0 0 0 0 0 0 0 0 0 0 0 0 0 0 0 0 0 127 0" result="hardAlpha"/>
<feOffset dx="-4" dy="-4"/>
<feGaussianBlur stdDeviation="2.5"/>
<feComposite in2="hardAlpha" operator="arithmetic" k2="-1" k3="1"/>
<feColorMatrix type="matrix" values="0 0 0 0 0.101961 0 0 0 0 0.207843 0 0 0 0 0.384314 0 0 0 0.5 0"/>
<feBlend mode="normal" in2="shape" result="effect1_innerShadow_634_1309"/>
<feColorMatrix in="SourceAlpha" type="matrix" values="0 0 0 0 0 0 0 0 0 0 0 0 0 0 0 0 0 0 127 0" result="hardAlpha"/>
<feOffset dx="4" dy="4"/>
<feGaussianBlur stdDeviation="2.5"/>
<feComposite in2="hardAlpha" operator="arithmetic" k2="-1" k3="1"/>
<feColorMatrix type="matrix" values="0 0 0 0 0.415686 0 0 0 0 0.835294 0 0 0 0 1 0 0 0 0.3 0"/>
<feBlend mode="normal" in2="effect1_innerShadow_634_1309" result="effect2_innerShadow_634_1309"/>
</filter>
<filter id="filter4_ii_634_1309" x="-1.49854" y="1.50195" width="13.9985" height="16.7598" filterUnits="userSpaceOnUse" color-interpolation-filters="sRGB">
<feFlood flood-opacity="0" result="BackgroundImageFix"/>
<feBlend mode="normal" in="SourceGraphic" in2="BackgroundImageFix" result="shape"/>
<feColorMatrix in="SourceAlpha" type="matrix" values="0 0 0 0 0 0 0 0 0 0 0 0 0 0 0 0 0 0 127 0" result="hardAlpha"/>
<feOffset dx="-4" dy="-4"/>
<feGaussianBlur stdDeviation="2.5"/>
<feComposite in2="hardAlpha" operator="arithmetic" k2="-1" k3="1"/>
<feColorMatrix type="matrix" values="0 0 0 0 0.309804 0 0 0 0 0.0588235 0 0 0 0 0.0627451 0 0 0 0.5 0"/>
<feBlend mode="normal" in2="shape" result="effect1_innerShadow_634_1309"/>
<feColorMatrix in="SourceAlpha" type="matrix" values="0 0 0 0 0 0 0 0 0 0 0 0 0 0 0 0 0 0 127 0" result="hardAlpha"/>
<feOffset dx="4" dy="4"/>
<feGaussianBlur stdDeviation="2.5"/>
<feComposite in2="hardAlpha" operator="arithmetic" k2="-1" k3="1"/>
<feColorMatrix type="matrix" values="0 0 0 0 1 0 0 0 0 0.231373 0 0 0 0 0.25098 0 0 0 0.3 0"/>
<feBlend mode="normal" in2="effect1_innerShadow_634_1309" result="effect2_innerShadow_634_1309"/>
</filter>
<linearGradient id="paint0_linear_634_1309" x1="2.54492" y1="5.52637" x2="13.4678" y2="27.1767" gradientUnits="userSpaceOnUse">
<stop stop-color="#F64738"/>
<stop offset="1" stop-color="#DE4132"/>
</linearGradient>
<linearGradient id="paint1_linear_634_1309" x1="29.5" y1="26.5" x2="18.4057" y2="23.3302" gradientUnits="userSpaceOnUse">
<stop stop-color="#00B54B"/>
<stop offset="1" stop-color="#00A343"/>
</linearGradient>
<linearGradient id="paint2_linear_634_1309" x1="23.4995" y1="5.50293" x2="31.6664" y2="11.0964" gradientUnits="userSpaceOnUse">
<stop stop-color="#FFC300"/>
<stop offset="1" stop-color="#F2B100"/>
</linearGradient>
<linearGradient id="paint3_linear_634_1309" x1="2.5" y1="5.5" x2="13.5943" y2="8.66981" gradientUnits="userSpaceOnUse">
<stop stop-color="#458CFF"/>
<stop offset="1" stop-color="#3F7EE8"/>
</linearGradient>
<linearGradient id="paint4_linear_634_1309" x1="2.50146" y1="5.50195" x2="10.6686" y2="11.0948" gradientUnits="userSpaceOnUse">
<stop stop-color="#CF272A"/>
<stop offset="1" stop-color="#BB2326"/>
</linearGradient>
</defs>
</svg>
