<svg width="32" height="32" viewBox="0 0 32 32" fill="none" xmlns="http://www.w3.org/2000/svg">
<g filter="url(#filter0_ii_2132_18510)">
<path d="M26.8207 7.86763C26.7125 7.72393 26.5967 7.58596 26.4741 7.4543C26.5975 7.12556 26.6912 6.78642 26.7541 6.44097C26.9399 5.17723 26.7786 3.88676 26.2874 2.70763C26.2874 2.70763 24.7941 2.24097 21.3674 4.54763C19.9126 4.14595 18.41 3.9441 16.9007 3.94763C15.3872 3.94499 13.8802 4.14681 12.4207 4.54763C8.99408 2.2143 7.50074 2.70763 7.50074 2.70763C7.01555 3.87429 6.85432 5.15029 7.03408 6.40097C7.09735 6.76079 7.19559 7.11357 7.32741 7.4543C7.20741 7.58764 7.08741 7.7343 6.98074 7.86763C5.98576 9.11565 5.45761 10.6718 5.48741 12.2676C5.48425 12.6461 5.50205 13.0245 5.54074 13.401C5.96733 19.3076 9.90075 20.681 13.6474 21.1076C13.1171 21.6007 12.7575 22.2499 12.6207 22.961C12.4968 23.4352 12.4385 23.9242 12.4474 24.4143V26.1604C10.9565 26.2929 9.42544 26.0759 8.95116 24.7453C8.44129 23.472 7.59604 22.3606 6.5052 21.5291C6.42592 21.4858 6.35053 21.4357 6.27986 21.3794C6.18407 21.1274 6.01427 20.9104 5.79279 20.7568C5.57131 20.6032 5.30852 20.5202 5.03898 20.5187H5.03257C4.68004 20.5186 4.34181 20.6581 4.09192 20.9068C3.84203 21.1555 3.70083 21.493 3.69924 21.8455C3.69404 22.9289 4.77802 23.6281 5.22268 23.8664C5.74125 24.3889 6.15846 25.003 6.45314 25.6776C6.93882 27.0422 8.35875 29.1151 12.4076 28.8456C12.4089 28.8924 12.4102 28.9367 12.4108 28.9771L12.4167 29.3339C12.4166 29.509 12.4511 29.6824 12.5181 29.8442C12.5851 30.0059 12.6833 30.1529 12.8071 30.2768C12.9309 30.4006 13.0779 30.4988 13.2397 30.5658C13.4015 30.6328 13.5749 30.6672 13.75 30.6672L13.7542 30.6664V30.6672H20.0357C20.2108 30.6673 20.3842 30.6328 20.546 30.5658C20.7078 30.4988 20.8548 30.4006 20.9786 30.2768C21.1024 30.153 21.2006 30.006 21.2676 29.8442C21.3346 29.6824 21.369 29.509 21.369 29.3339C21.369 29.3339 21.3788 25.121 21.3788 24.4144C21.3877 23.9243 21.3293 23.4353 21.2054 22.961L21.203 22.9529L21.2075 22.961C21.196 22.9144 21.1785 22.8763 21.166 22.8311C21.0171 22.1706 20.6732 21.5701 20.1787 21.1076L20.1942 21.1354C20.185 21.1272 20.1765 21.1156 20.1674 21.1076C23.9141 20.681 27.8207 19.281 28.2474 13.401C28.2861 13.0245 28.3039 12.6461 28.3007 12.2676C28.3243 10.675 27.802 9.12226 26.8207 7.86763Z" fill="url(#paint0_linear_2132_18510)"/>
</g>
<defs>
<filter id="filter0_ii_2132_18510" x="-0.300781" y="-1.33594" width="32.6023" height="36.0039" filterUnits="userSpaceOnUse" color-interpolation-filters="sRGB">
<feFlood flood-opacity="0" result="BackgroundImageFix"/>
<feBlend mode="normal" in="SourceGraphic" in2="BackgroundImageFix" result="shape"/>
<feColorMatrix in="SourceAlpha" type="matrix" values="0 0 0 0 0 0 0 0 0 0 0 0 0 0 0 0 0 0 127 0" result="hardAlpha"/>
<feOffset dx="-4" dy="-4"/>
<feGaussianBlur stdDeviation="2.5"/>
<feComposite in2="hardAlpha" operator="arithmetic" k2="-1" k3="1"/>
<feColorMatrix type="matrix" values="0 0 0 0 0.156863 0 0 0 0 0.156863 0 0 0 0 0.392157 0 0 0 0.5 0"/>
<feBlend mode="normal" in2="shape" result="effect1_innerShadow_2132_18510"/>
<feColorMatrix in="SourceAlpha" type="matrix" values="0 0 0 0 0 0 0 0 0 0 0 0 0 0 0 0 0 0 127 0" result="hardAlpha"/>
<feOffset dx="4" dy="4"/>
<feGaussianBlur stdDeviation="2.5"/>
<feComposite in2="hardAlpha" operator="arithmetic" k2="-1" k3="1"/>
<feColorMatrix type="matrix" values="0 0 0 0 0.635294 0 0 0 0 0.619608 0 0 0 0 1 0 0 0 0.3 0"/>
<feBlend mode="normal" in2="effect1_innerShadow_2132_18510" result="effect2_innerShadow_2132_18510"/>
</filter>
<linearGradient id="paint0_linear_2132_18510" x1="3.69922" y1="2.66406" x2="31.4693" y2="27.0615" gradientUnits="userSpaceOnUse">
<stop stop-color="#6A68FF"/>
<stop offset="1" stop-color="#605EF2"/>
</linearGradient>
</defs>
</svg>
