<svg width="52" height="52" viewBox="0 0 52 52" fill="none" xmlns="http://www.w3.org/2000/svg">
<g filter="url(#filter0_ii_625_1052)">
<rect width="52" height="52" rx="10" fill="url(#paint0_linear_625_1052)"/>
</g>
<g clip-path="url(#clip0_625_1052)">
<g filter="url(#filter1_ii_625_1052)">
<path d="M40.5853 17.8667C39.488 18.3452 38.3275 18.6633 37.1395 18.8111C38.3914 18.0683 39.3275 16.8923 39.7703 15.5056C38.5981 16.2009 37.3155 16.6905 35.9781 16.9532C35.1581 16.0777 34.0938 15.469 32.9234 15.2063C31.753 14.9435 30.5306 15.0388 29.415 15.4798C28.2995 15.9208 27.3424 16.6871 26.668 17.6791C25.9936 18.6711 25.6331 19.8431 25.6335 21.0426C25.6335 21.5166 25.6736 21.9724 25.772 22.4063C23.3929 22.2897 21.0652 21.6722 18.9411 20.5943C16.8171 19.5164 14.9444 18.0023 13.4456 16.151C12.6777 17.4671 12.4403 19.0264 12.7817 20.5114C13.1231 21.9963 14.0177 23.2953 15.2833 24.1438C14.3367 24.1184 13.41 23.8658 12.5814 23.4073V23.4729C12.583 24.8538 13.0603 26.192 13.9329 27.2623C14.8056 28.3325 16.0203 29.0694 17.3727 29.349C16.8611 29.4838 16.3338 29.55 15.8047 29.5459C15.4248 29.5526 15.0452 29.5184 14.6726 29.4438C15.059 30.6307 15.8038 31.6687 16.8046 32.4147C17.8053 33.1608 19.0127 33.5783 20.2606 33.6097C18.1438 35.2652 15.533 36.1633 12.8457 36.1604C12.3553 36.1604 11.8849 36.1385 11.4146 36.0783C14.1491 37.8405 17.3356 38.7726 20.5887 38.762C31.5934 38.762 37.6099 29.6462 37.6099 21.7445C37.6099 21.4802 37.6008 21.2249 37.588 20.9715C38.7675 20.1274 39.7832 19.0752 40.5853 17.8667Z" fill="url(#paint1_linear_625_1052)"/>
</g>
</g>
<defs>
<filter id="filter0_ii_625_1052" x="-4" y="-4" width="60" height="60" filterUnits="userSpaceOnUse" color-interpolation-filters="sRGB">
<feFlood flood-opacity="0" result="BackgroundImageFix"/>
<feBlend mode="normal" in="SourceGraphic" in2="BackgroundImageFix" result="shape"/>
<feColorMatrix in="SourceAlpha" type="matrix" values="0 0 0 0 0 0 0 0 0 0 0 0 0 0 0 0 0 0 127 0" result="hardAlpha"/>
<feOffset dx="-4" dy="-4"/>
<feGaussianBlur stdDeviation="2.5"/>
<feComposite in2="hardAlpha" operator="arithmetic" k2="-1" k3="1"/>
<feColorMatrix type="matrix" values="0 0 0 0 0.392157 0 0 0 0 0.392157 0 0 0 0 0.392157 0 0 0 0.14 0"/>
<feBlend mode="normal" in2="shape" result="effect1_innerShadow_625_1052"/>
<feColorMatrix in="SourceAlpha" type="matrix" values="0 0 0 0 0 0 0 0 0 0 0 0 0 0 0 0 0 0 127 0" result="hardAlpha"/>
<feOffset dx="4" dy="4"/>
<feGaussianBlur stdDeviation="2.5"/>
<feComposite in2="hardAlpha" operator="arithmetic" k2="-1" k3="1"/>
<feColorMatrix type="matrix" values="0 0 0 0 0.766667 0 0 0 0 0.766667 0 0 0 0 0.766667 0 0 0 0.3 0"/>
<feBlend mode="normal" in2="effect1_innerShadow_625_1052" result="effect2_innerShadow_625_1052"/>
</filter>
<filter id="filter1_ii_625_1052" x="9.41455" y="13.061" width="33.1707" height="27.7012" filterUnits="userSpaceOnUse" color-interpolation-filters="sRGB">
<feFlood flood-opacity="0" result="BackgroundImageFix"/>
<feBlend mode="normal" in="SourceGraphic" in2="BackgroundImageFix" result="shape"/>
<feColorMatrix in="SourceAlpha" type="matrix" values="0 0 0 0 0 0 0 0 0 0 0 0 0 0 0 0 0 0 127 0" result="hardAlpha"/>
<feOffset dx="-2" dy="-2"/>
<feGaussianBlur stdDeviation="2.5"/>
<feComposite in2="hardAlpha" operator="arithmetic" k2="-1" k3="1"/>
<feColorMatrix type="matrix" values="0 0 0 0 0.00392157 0 0 0 0 0.266667 0 0 0 0 0.384314 0 0 0 0.5 0"/>
<feBlend mode="normal" in2="shape" result="effect1_innerShadow_625_1052"/>
<feColorMatrix in="SourceAlpha" type="matrix" values="0 0 0 0 0 0 0 0 0 0 0 0 0 0 0 0 0 0 127 0" result="hardAlpha"/>
<feOffset dx="2" dy="2"/>
<feGaussianBlur stdDeviation="2.5"/>
<feComposite in2="hardAlpha" operator="arithmetic" k2="-1" k3="1"/>
<feColorMatrix type="matrix" values="0 0 0 0 0.0196078 0 0 0 0 1 0 0 0 0 1 0 0 0 0.3 0"/>
<feBlend mode="normal" in2="effect1_innerShadow_625_1052" result="effect2_innerShadow_625_1052"/>
</filter>
<linearGradient id="paint0_linear_625_1052" x1="0" y1="0" x2="52" y2="52" gradientUnits="userSpaceOnUse">
<stop stop-color="white"/>
<stop offset="1" stop-color="#F2F2F2"/>
</linearGradient>
<linearGradient id="paint1_linear_625_1052" x1="11.4146" y1="15.061" x2="34.6137" y2="43.614" gradientUnits="userSpaceOnUse">
<stop stop-color="#03B1FF"/>
<stop offset="1" stop-color="#03A1E8"/>
</linearGradient>
<clipPath id="clip0_625_1052">
<rect width="29.1707" height="29.1707" fill="white" transform="translate(11.4146 11.4146)"/>
</clipPath>
</defs>
</svg>
